mtllib couch.mtl
g objMesh
v 0.301795 0.751390 1.000001
v 0.301797 0.751390 -3.952414
v -1.000000 0.751390 1.000000
v -1.000000 0.751390 -3.952415
v 0.370614 0.665170 1.000000
v 0.370615 0.665170 -3.952415
v -1.000000 0.665170 1.000000
v -1.000000 0.665170 -3.952415
v -1.103154 0.732710 -3.952415
v -1.026010 0.771216 -3.952415
v 0.370615 0.578951 -3.952415
v 0.301796 0.492732 -3.952415
v -0.165615 0.492732 -3.952415
v -1.000000 0.578951 -3.952415
v -0.633027 0.492732 -3.952415
v -1.100438 0.492732 -3.952415
v -1.180297 0.694205 -3.952415
v -1.257441 0.655700 -3.952415
v -1.100439 0.492732 1.000000
v -0.633027 0.492732 1.000000
v -1.000000 0.578951 1.000000
v -0.165616 0.492732 1.000000
v 0.301796 0.492732 1.000000
v 0.370614 0.578951 1.000000
v 0.301796 0.492732 -3.467011
v 0.301796 0.492732 0.507864
v -1.349009 1.892484 -3.952415
v -1.349009 1.892484 1.000000
v -1.026010 0.771216 1.000000
v -1.580439 1.776968 1.000001
v -1.580439 1.776968 -3.952414
v -1.257441 0.655700 1.000000
v -1.524502 1.857959 1.000000
v -1.524502 1.857959 -3.952415
v -1.180297 0.694205 1.000000
v -1.103154 0.732710 1.000000
v -1.447359 1.896465 -3.952415
v -1.447358 1.896465 1.000000
v -1.100439 0.492732 0.507864
v -1.100439 0.492732 -3.467011
v -0.633027 0.492732 -3.467011
v -0.633027 0.492732 0.507864
v -0.165615 0.492732 -3.467011
v -0.165616 0.492732 0.507864
v -0.830720 -0.002748 -3.672314
v -0.761934 0.492732 -3.600881
v -0.971531 0.492732 -3.600881
v -0.902746 -0.002748 -3.672314
v -0.761935 0.492732 0.864274
v -0.761935 0.492732 0.643590
v -0.971532 0.492732 0.864274
v -0.971531 0.492732 0.643590
v 0.104103 -0.002748 -3.747112
v 0.172889 0.492732 -3.818545
v 0.172889 0.492732 -3.600881
v 0.104103 -0.002748 -3.672314
v -0.761934 0.492732 -3.818546
v -0.971531 0.492732 -3.818546
v -0.830720 -0.002748 0.791850
v -0.902746 -0.002748 0.791850
v -0.036708 0.492732 -3.600881
v -0.036708 0.492732 -3.818545
v -0.830720 -0.002748 -3.747113
v 0.172889 0.492732 0.864274
v 0.172889 0.492732 0.643590
v -0.036708 0.492732 0.864274
v -0.036708 0.492732 0.643590
v -0.902746 -0.002748 0.716014
v -0.830720 -0.002748 0.716014
v -0.902746 -0.002748 -3.747113
v 0.032077 -0.002748 -3.747112
v 0.032077 -0.002748 -3.672314
v 0.032077 -0.002748 0.716014
v 0.104103 -0.002748 0.716014
v 0.104103 -0.002748 0.791850
v 0.032077 -0.002748 0.791850
vt 0.000474 0.467896
vt 0.686521 0.467896
vt 0.000474 0.648231
vt 0.686521 0.648231
vt 0.000474 0.686727
vt 0.686522 0.686728
vt 0.686522 0.706713
vt 0.000474 0.706713
vt 0.741927 0.839122
vt 0.732388 0.856683
vt 0.552059 0.839057
vt 0.552053 0.856621
vt 0.687880 0.680254
vt 0.700533 0.668071
vt 0.700533 0.687908
vt 0.687470 0.685651
vt 0.755834 0.726174
vt 0.746301 0.743738
vt 0.681551 0.743738
vt 0.565966 0.726174
vt 0.616802 0.743738
vt 0.552053 0.743738
vt 0.552053 0.838109
vt 0.552053 0.820544
vt 0.732388 0.820544
vt 0.741921 0.838109
vt 0.552059 0.744686
vt 0.741927 0.744752
vt 0.741921 0.762316
vt 0.552053 0.762251
vt 0.687869 0.635032
vt 0.700666 0.623001
vt 0.700666 0.657281
vt 0.687631 0.654867
vt 0.733133 0.644008
vt 0.755461 0.642115
vt 0.733133 0.678287
vt 0.746168 0.680701
vt 0.552053 0.707661
vt 0.616802 0.707661
vt 0.565966 0.725226
vt 0.681552 0.707661
vt 0.746301 0.707661
vt 0.755835 0.725226
vt 0.552053 0.802032
vt 0.741921 0.802032
vt 0.741921 0.819596
vt 0.552053 0.819596
vt 0.619280 0.649179
vt 0.686522 0.649179
vt 0.686522 0.669164
vt 0.068646 0.649180
vt 0.000474 0.669164
vt 0.000474 0.649180
vt 0.000474 0.669164
vt 0.686522 0.669164
vt 0.686522 0.686728
vt 0.000474 0.686727
vt 0.686521 0.234185
vt 0.686521 0.466948
vt 0.000474 0.466948
vt 0.000474 0.234185
vt 0.000474 0.000474
vt 0.686521 0.000474
vt 0.000474 0.233237
vt 0.686521 0.233237
vt 0.000474 0.931662
vt 0.686507 0.931659
vt 0.686507 0.949887
vt 0.000474 0.949890
vt 0.766435 0.313635
vt 0.755659 0.298933
vt 0.767654 0.071815
vt 0.755659 0.066172
vt 0.750039 0.336541
vt 0.738008 0.349338
vt 0.715759 0.336541
vt 0.718173 0.349575
vt 0.714811 0.373694
vt 0.701614 0.370213
vt 0.714811 0.131869
vt 0.702788 0.137452
vt 0.733133 0.380226
vt 0.745157 0.374642
vt 0.743983 0.607399
vt 0.733133 0.622047
vt 0.688643 0.380227
vt 0.700666 0.374644
vt 0.700666 0.616470
vt 0.688642 0.622053
vt 0.735596 0.350524
vt 0.723413 0.363176
vt 0.715759 0.350524
vt 0.718016 0.363586
vt 0.000551 0.991476
vt 0.461829 0.991476
vt 0.461752 0.999526
vt 0.000474 0.999526
vt 0.687469 0.131869
vt 0.699492 0.137452
vt 0.700666 0.370214
vt 0.687469 0.373696
vt 0.758129 0.622051
vt 0.746105 0.616467
vt 0.758129 0.380225
vt 0.746105 0.374642
vt 0.000474 0.904754
vt 0.686507 0.904755
vt 0.000474 0.918404
vt 0.686507 0.918403
vt 0.000474 0.918404
vt 0.686507 0.918403
vt 0.000474 0.931662
vt 0.686507 0.931659
vt 0.798586 0.168555
vt 0.820195 0.174481
vt 0.813954 0.208188
vt 0.800698 0.208188
vt 0.068648 0.990528
vt 0.000474 0.990528
vt 0.000474 0.950839
vt 0.686520 0.950838
vt 0.619278 0.990528
vt 0.686520 0.990528
vt 0.551104 0.839057
vt 0.551104 0.903806
vt 0.000474 0.903806
vt 0.000474 0.839057
vt 0.754711 0.066172
vt 0.754711 0.130921
vt 0.687469 0.130921
vt 0.687469 0.066172
vt 0.551105 0.773359
vt 0.551105 0.838108
vt 0.000474 0.838109
vt 0.000474 0.773359
vt 0.551105 0.707661
vt 0.551105 0.772411
vt 0.000474 0.772411
vt 0.000474 0.707661
vt 0.755643 0.000474
vt 0.755643 0.065224
vt 0.687469 0.065224
vt 0.687469 0.000474
vt 0.818092 0.066172
vt 0.827621 0.167593
vt 0.798586 0.167593
vt 0.808114 0.066172
vt 0.604630 0.781122
vt 0.623432 0.763264
vt 0.672804 0.781122
vt 0.654002 0.763264
vt 0.756592 0.039026
vt 0.774449 0.020224
vt 0.821341 0.039026
vt 0.803484 0.020224
vt 0.672804 0.782070
vt 0.654002 0.799927
vt 0.604630 0.782070
vt 0.623432 0.799927
vt 0.738502 0.782092
vt 0.720638 0.800888
vt 0.673753 0.782070
vt 0.691603 0.800878
vt 0.736008 0.234204
vt 0.745912 0.335590
vt 0.715759 0.335592
vt 0.725646 0.234205
vt 0.759077 0.801889
vt 0.777621 0.784032
vt 0.826319 0.801889
vt 0.807774 0.784032
vt 0.790178 0.636225
vt 0.808035 0.617680
vt 0.854927 0.636225
vt 0.837070 0.617680
vt 0.857419 0.579382
vt 0.838875 0.597239
vt 0.790178 0.579382
vt 0.808722 0.597239
vt 0.854927 0.656666
vt 0.837070 0.675210
vt 0.790178 0.656666
vt 0.808035 0.675210
vt 0.788109 0.168555
vt 0.797637 0.269990
vt 0.778131 0.168555
vt 0.768602 0.269990
vt 0.759077 0.820694
vt 0.777621 0.802837
vt 0.826319 0.820694
vt 0.807774 0.802837
vt 0.790178 0.655717
vt 0.808035 0.637173
vt 0.854927 0.655717
vt 0.837070 0.637173
vt 0.826319 0.821642
vt 0.807774 0.839499
vt 0.759077 0.821642
vt 0.777621 0.839499
vt 0.854927 0.598187
vt 0.837070 0.616732
vt 0.790178 0.598187
vt 0.808035 0.616732
vt 0.779325 0.374642
vt 0.789229 0.476028
vt 0.759077 0.476031
vt 0.768964 0.374643
vt 0.673753 0.781122
vt 0.692554 0.763264
vt 0.741927 0.781122
vt 0.723125 0.763264
vt 0.756592 0.019276
vt 0.774449 0.000474
vt 0.821341 0.019276
vt 0.803484 0.000474
vt 0.755645 0.688856
vt 0.736843 0.706713
vt 0.687470 0.688856
vt 0.706272 0.706713
vt 0.821341 0.039974
vt 0.803484 0.058776
vt 0.756592 0.039974
vt 0.774449 0.058776
vt 0.747050 0.350524
vt 0.747050 0.360501
vt 0.736544 0.360501
vt 0.736544 0.350524
vt 0.746906 0.361449
vt 0.746906 0.371427
vt 0.736544 0.371427
vt 0.736544 0.361449
vt 0.753237 0.744686
vt 0.753237 0.754664
vt 0.742875 0.754664
vt 0.742875 0.744686
vt 0.743638 0.622995
vt 0.743638 0.632972
vt 0.733133 0.632972
vt 0.733133 0.622995
vt 0.722152 0.476979
vt 0.732185 0.578366
vt 0.701614 0.578366
vt 0.711647 0.476979
vt 0.722152 0.579314
vt 0.732185 0.680701
vt 0.701614 0.680701
vt 0.711647 0.579314
vt 0.809684 0.477012
vt 0.819212 0.578434
vt 0.790178 0.578434
vt 0.799706 0.477012
vt 0.779334 0.476979
vt 0.789229 0.578365
vt 0.768972 0.476979
vt 0.759077 0.578365
vt 0.778583 0.681648
vt 0.788112 0.783083
vt 0.759077 0.783083
vt 0.768606 0.681648
vt 0.788109 0.066172
vt 0.797637 0.167607
vt 0.778131 0.066172
vt 0.768602 0.167607
vt 0.779334 0.579313
vt 0.789229 0.680700
vt 0.768972 0.579313
vt 0.759077 0.680700
vt 0.809684 0.374642
vt 0.819213 0.476064
vt 0.799706 0.374642
vt 0.790178 0.476064
vt 0.736297 0.131869
vt 0.746330 0.233256
vt 0.715759 0.233256
vt 0.725792 0.131869
vt 0.808564 0.681648
vt 0.818095 0.783070
vt 0.798587 0.681648
vt 0.789060 0.783070
vt 0.788109 0.270938
vt 0.797637 0.372373
vt 0.778131 0.270938
vt 0.768602 0.372373
vt 0.722143 0.374642
vt 0.732185 0.476028
vt 0.701614 0.476031
vt 0.711638 0.374643
vn 0.000000 1.000000 0.000000
vn 0.000000 1.000000 0.000000
vn 0.000000 1.000000 0.000000
vn 0.000000 1.000000 0.000000
vn 0.780271 0.622739 0.000000
vn 0.780271 0.622739 0.000000
vn 0.780271 0.622739 0.000000
vn 0.780271 0.622739 0.000000
vn 0.000000 0.000000 1.000000
vn 0.000000 0.000000 1.000000
vn 0.000000 0.000000 1.000000
vn 0.000000 0.000000 1.000000
vn 0.000000 0.000000 -1.000000
vn 0.000000 0.000000 -1.000000
vn 0.000000 0.000000 -1.000000
vn 0.000000 0.000000 -1.000000
vn 0.000000 0.000000 -1.000000
vn 0.000000 0.000000 -1.000000
vn 0.000000 0.000000 -1.000000
vn 0.000000 0.000000 -1.000000
vn 0.000000 0.000000 -1.000000
vn 0.000000 0.000000 -1.000000
vn 0.000000 0.000000 -1.000000
vn 0.000000 0.000000 -1.000000
vn 0.000000 0.000000 -1.000000
vn 0.000000 0.000000 -1.000000
vn 0.000000 0.000000 -1.000000
vn 0.000000 0.000000 -1.000000
vn 0.000000 0.000000 -1.000000
vn 0.000000 0.000000 -1.000000
vn 0.000000 0.000000 -1.000000
vn 0.000000 0.000000 -1.000000
vn 0.000000 0.000000 -1.000000
vn 0.000000 0.000000 -1.000000
vn 0.000000 0.000000 -1.000000
vn 0.000000 0.000000 -1.000000
vn 0.000000 0.000000 -1.000000
vn 0.000000 0.000000 -1.000000
vn 0.000000 0.000000 1.000000
vn 0.000000 0.000000 1.000000
vn 0.000000 0.000000 1.000000
vn 0.000000 0.000000 1.000000
vn 0.000000 0.000000 1.000000
vn 0.000000 0.000000 1.000000
vn 0.000000 0.000000 1.000000
vn 0.000000 0.000000 1.000000
vn 0.000000 0.000000 1.000000
vn 0.000000 0.000000 1.000000
vn 0.780271 -0.622739 0.000000
vn 0.780271 -0.622739 0.000000
vn 0.780271 -0.622739 0.000000
vn 0.780271 -0.622739 0.000000
vn 0.780271 -0.622739 0.000000
vn 0.780271 -0.622739 0.000000
vn 1.000000 0.000000 0.000000
vn 1.000000 0.000000 0.000000
vn 1.000000 0.000000 0.000000
vn 1.000000 0.000000 0.000000
vn 0.959304 0.276340 0.000000
vn 0.959304 0.276340 0.000000
vn 0.959304 0.276340 0.000000
vn 0.959304 0.276340 0.000000
vn -0.959304 -0.276340 0.000000
vn -0.959304 -0.276340 0.000000
vn -0.959304 -0.276340 0.000000
vn -0.959304 -0.276340 0.000000
vn -0.821426 0.567351 0.000000
vn -0.821426 0.567351 0.000000
vn -0.821426 0.567351 0.000000
vn -0.821426 0.567351 0.000000
vn 0.000000 0.000000 1.000000
vn 0.000000 0.000000 1.000000
vn 0.000000 0.000000 1.000000
vn 0.000000 0.000000 1.000000
vn 0.000000 0.000000 1.000000
vn 0.000000 0.000000 1.000000
vn 0.000000 0.000000 1.000000
vn 0.000000 0.000000 1.000000
vn 0.000000 0.000000 -1.000000
vn 0.000000 0.000000 -1.000000
vn 0.000000 0.000000 -1.000000
vn 0.000000 0.000000 -1.000000
vn 0.000000 0.000000 -1.000000
vn 0.000000 0.000000 -1.000000
vn 0.000000 0.000000 -1.000000
vn 0.000000 0.000000 -1.000000
vn 0.000000 0.000000 -1.000000
vn 0.000000 0.000000 -1.000000
vn 0.000000 0.000000 -1.000000
vn 0.000000 0.000000 -1.000000
vn 0.000000 0.000000 1.000000
vn 0.000000 0.000000 1.000000
vn 0.000000 0.000000 1.000000
vn 0.000000 0.000000 1.000000
vn 0.605183 0.793966 0.000000
vn 0.605183 0.793966 0.000000
vn 0.605183 0.793966 0.000000
vn 0.605183 0.793966 0.000000
vn 0.000000 0.000000 1.000000
vn 0.000000 0.000000 1.000000
vn 0.000000 0.000000 1.000000
vn 0.000000 0.000000 1.000000
vn 0.000000 0.000000 1.000000
vn 0.000000 0.000000 1.000000
vn 0.000000 0.000000 1.000000
vn 0.000000 0.000000 1.000000
vn 0.040331 0.997497 0.000000
vn 0.040331 0.997497 0.000000
vn 0.040331 0.997497 0.000000
vn 0.040331 0.997497 0.000000
vn -0.445860 0.893217 0.000000
vn -0.445860 0.893217 0.000000
vn -0.445860 0.893217 0.000000
vn -0.445860 0.893217 0.000000
vn 0.000000 0.000000 1.000000
vn 0.000000 0.000000 1.000000
vn 0.000000 0.000000 1.000000
vn 0.000000 0.000000 1.000000
vn -0.718968 -0.692613 -0.000000
vn -0.718968 -0.692613 -0.000000
vn -0.718968 -0.692613 -0.000000
vn -0.718968 -0.692613 -0.000000
vn -0.718968 -0.692613 -0.000000
vn -0.718968 -0.692613 -0.000000
vn 0.000000 -1.000000 0.000000
vn 0.000000 -1.000000 0.000000
vn 0.000000 -1.000000 0.000000
vn 0.000000 -1.000000 0.000000
vn 0.000000 -1.000000 0.000000
vn 0.000000 -1.000000 0.000000
vn 0.000000 -1.000000 0.000000
vn 0.000000 -1.000000 0.000000
vn 0.000000 -1.000000 0.000000
vn 0.000000 -1.000000 0.000000
vn 0.000000 -1.000000 0.000000
vn 0.000000 -1.000000 0.000000
vn 0.000000 -1.000000 0.000000
vn 0.000000 -1.000000 0.000000
vn 0.000000 -1.000000 0.000000
vn 0.000000 -1.000000 0.000000
vn 0.000000 -1.000000 0.000000
vn 0.000000 -1.000000 0.000000
vn 0.000000 -1.000000 0.000000
vn 0.000000 -1.000000 0.000000
vn 0.000000 -0.142454 0.988096
vn 0.000000 -0.142454 0.988096
vn 0.000000 -0.142454 0.988096
vn 0.000000 -0.142454 0.988096
vn 0.000000 -1.000000 0.000000
vn 0.000000 -1.000000 0.000000
vn 0.000000 -1.000000 0.000000
vn 0.000000 -1.000000 0.000000
vn 0.000000 -1.000000 0.000000
vn 0.000000 -1.000000 0.000000
vn 0.000000 -1.000000 0.000000
vn 0.000000 -1.000000 0.000000
vn 0.000000 -1.000000 0.000000
vn 0.000000 -1.000000 0.000000
vn 0.000000 -1.000000 0.000000
vn 0.000000 -1.000000 0.000000
vn 0.000000 -1.000000 0.000000
vn 0.000000 -1.000000 0.000000
vn 0.000000 -1.000000 0.000000
vn 0.000000 -1.000000 0.000000
vn 0.988830 -0.137268 0.000000
vn 0.988830 -0.137268 0.000000
vn 0.988830 -0.137268 0.000000
vn 0.988830 -0.137268 0.000000
vn 0.000000 -1.000000 0.000000
vn 0.000000 -1.000000 0.000000
vn 0.000000 -1.000000 0.000000
vn 0.000000 -1.000000 0.000000
vn 0.000000 -1.000000 0.000000
vn 0.000000 -1.000000 0.000000
vn 0.000000 -1.000000 0.000000
vn 0.000000 -1.000000 0.000000
vn 0.000000 -1.000000 0.000000
vn 0.000000 -1.000000 0.000000
vn 0.000000 -1.000000 0.000000
vn 0.000000 -1.000000 0.000000
vn 0.000000 -1.000000 0.000000
vn 0.000000 -1.000000 0.000000
vn 0.000000 -1.000000 0.000000
vn 0.000000 -1.000000 0.000000
vn 0.000000 -0.144355 0.987820
vn 0.000000 -0.144355 0.987820
vn 0.000000 -0.144355 0.987820
vn 0.000000 -0.144355 0.987820
vn 0.000000 -1.000000 0.000000
vn 0.000000 -1.000000 0.000000
vn 0.000000 -1.000000 0.000000
vn 0.000000 -1.000000 0.000000
vn 0.000000 -1.000000 0.000000
vn 0.000000 -1.000000 0.000000
vn 0.000000 -1.000000 0.000000
vn 0.000000 -1.000000 0.000000
vn 0.000000 -1.000000 0.000000
vn 0.000000 -1.000000 0.000000
vn 0.000000 -1.000000 0.000000
vn 0.000000 -1.000000 0.000000
vn 0.000000 -1.000000 0.000000
vn 0.000000 -1.000000 0.000000
vn 0.000000 -1.000000 0.000000
vn 0.000000 -1.000000 0.000000
vn 0.988830 -0.137268 0.000000
vn 0.988830 -0.137268 0.000000
vn 0.988830 -0.137268 0.000000
vn 0.988830 -0.137268 0.000000
vn 0.000000 -1.000000 0.000000
vn 0.000000 -1.000000 0.000000
vn 0.000000 -1.000000 0.000000
vn 0.000000 -1.000000 0.000000
vn 0.000000 -1.000000 0.000000
vn 0.000000 -1.000000 0.000000
vn 0.000000 -1.000000 0.000000
vn 0.000000 -1.000000 0.000000
vn 0.000000 -1.000000 0.000000
vn 0.000000 -1.000000 0.000000
vn 0.000000 -1.000000 0.000000
vn 0.000000 -1.000000 0.000000
vn 0.000000 -1.000000 0.000000
vn 0.000000 -1.000000 0.000000
vn 0.000000 -1.000000 0.000000
vn 0.000000 -1.000000 0.000000
vn 0.000000 -1.000000 0.000000
vn 0.000000 -1.000000 0.000000
vn 0.000000 -1.000000 0.000000
vn 0.000000 -1.000000 0.000000
vn 0.000000 -1.000000 0.000000
vn 0.000000 -1.000000 0.000000
vn 0.000000 -1.000000 0.000000
vn 0.000000 -1.000000 0.000000
vn 0.000000 -1.000000 0.000000
vn 0.000000 -1.000000 0.000000
vn 0.000000 -1.000000 0.000000
vn 0.000000 -1.000000 0.000000
vn 0.000000 -1.000000 0.000000
vn 0.000000 -1.000000 0.000000
vn 0.000000 -1.000000 0.000000
vn 0.000000 -1.000000 0.000000
vn 0.988830 -0.137268 0.000000
vn 0.988830 -0.137268 0.000000
vn 0.988830 -0.137268 0.000000
vn 0.988830 -0.137268 0.000000
vn -0.988830 -0.137268 -0.000000
vn -0.988830 -0.137268 -0.000000
vn -0.988830 -0.137268 -0.000000
vn -0.988830 -0.137268 -0.000000
vn 0.000000 -0.142454 0.988096
vn 0.000000 -0.142454 0.988096
vn 0.000000 -0.142454 0.988096
vn 0.000000 -0.142454 0.988096
vn -0.988830 -0.137268 -0.000000
vn -0.988830 -0.137268 -0.000000
vn -0.988830 -0.137268 -0.000000
vn -0.988830 -0.137268 -0.000000
vn 0.000000 -0.144355 0.987820
vn 0.000000 -0.144355 0.987820
vn 0.000000 -0.144355 0.987820
vn 0.000000 -0.144355 0.987820
vn 0.000000 -0.144355 -0.987820
vn 0.000000 -0.144355 -0.987820
vn 0.000000 -0.144355 -0.987820
vn 0.000000 -0.144355 -0.987820
vn -0.988830 -0.137268 -0.000000
vn -0.988830 -0.137268 -0.000000
vn -0.988830 -0.137268 -0.000000
vn -0.988830 -0.137268 -0.000000
vn 0.000000 -0.142454 -0.988096
vn 0.000000 -0.142454 -0.988096
vn 0.000000 -0.142454 -0.988096
vn 0.000000 -0.142454 -0.988096
vn -0.988830 -0.137268 -0.000000
vn -0.988830 -0.137268 -0.000000
vn -0.988830 -0.137268 -0.000000
vn -0.988830 -0.137268 -0.000000
vn 0.000000 -0.142454 -0.988096
vn 0.000000 -0.142454 -0.988096
vn 0.000000 -0.142454 -0.988096
vn 0.000000 -0.142454 -0.988096
vn 0.000000 -0.144355 -0.987820
vn 0.000000 -0.144355 -0.987820
vn 0.000000 -0.144355 -0.987820
vn 0.000000 -0.144355 -0.987820
vn 0.988830 -0.137268 0.000000
vn 0.988830 -0.137268 0.000000
vn 0.988830 -0.137268 0.000000
vn 0.988830 -0.137268 0.000000
usemtl Material
f 1/1/1 2/2/2 3/3/3
f 4/4/4 3/3/3 2/2/2
f 5/5/5 6/6/6 2/7/7
f 2/7/7 1/8/8 5/5/5
f 5/9/9 1/10/10 7/11/11
f 3/12/12 7/11/11 1/10/10
f 4/13/13 8/14/14 9/15/15
f 9/15/15 10/16/16 4/13/13
f 11/17/17 12/18/18 13/19/19
f 11/17/17 13/19/19 14/20/20
f 15/21/21 16/22/22 14/20/20
f 15/21/21 14/20/20 13/19/19
f 8/23/23 4/24/24 2/25/25
f 2/25/25 6/26/26 8/23/23
f 8/27/27 6/28/28 11/29/29
f 11/29/29 14/30/30 8/27/27
f 8/31/31 14/32/32 17/33/33
f 17/33/33 9/34/34 8/31/31
f 14/35/35 16/36/36 17/37/37
f 18/38/38 17/37/37 16/36/36
f 19/39/39 20/40/40 21/41/41
f 21/41/41 20/40/40 22/42/42
f 22/42/42 23/43/43 24/44/44
f 22/42/42 24/44/44 21/41/41
f 21/45/45 24/46/46 5/47/47
f 5/47/47 7/48/48 21/45/45
f 25/49/49 12/50/50 11/51/51
f 26/52/52 25/49/49 11/51/51
f 26/52/52 24/53/53 23/54/54
f 24/53/53 26/52/52 11/51/51
f 24/55/55 11/56/56 6/57/57
f 6/57/57 5/58/58 24/55/55
f 10/59/59 27/60/60 28/61/61
f 28/61/61 29/62/62 10/59/59
f 30/63/63 31/64/64 32/65/65
f 18/66/66 32/65/65 31/64/64
f 33/67/67 34/68/68 31/69/69
f 31/69/69 30/70/70 33/67/67
f 33/71/71 30/72/72 35/73/73
f 32/74/74 35/73/73 30/72/72
f 21/75/75 7/76/76 35/77/77
f 36/78/78 35/77/77 7/76/76
f 37/79/79 27/80/80 9/81/81
f 10/82/82 9/81/81 27/80/80
f 17/83/83 18/84/84 31/85/85
f 31/85/85 34/86/86 17/83/83
f 9/87/87 17/88/88 34/89/89
f 34/89/89 37/90/90 9/87/87
f 7/91/91 3/92/92 36/93/93
f 29/94/94 36/93/93 3/92/92
f 3/95/95 4/96/96 10/97/97
f 10/97/97 29/98/98 3/95/95
f 36/99/99 29/100/100 28/101/101
f 28/101/101 38/102/102 36/99/99
f 38/103/103 33/104/104 36/105/105
f 35/106/106 36/105/105 33/104/104
f 28/107/107 27/108/108 38/109/109
f 37/110/110 38/109/109 27/108/108
f 38/111/111 37/112/112 33/113/113
f 34/114/114 33/113/113 37/112/112
f 19/115/115 21/116/116 35/117/117
f 35/117/117 32/118/118 19/115/115
f 39/119/119 19/120/120 32/121/121
f 39/119/119 18/122/122 40/123/123
f 18/122/122 39/119/119 32/121/121
f 40/123/123 18/122/122 16/124/124
f 40/125/125 41/126/126 42/127/127
f 42/127/127 39/128/128 40/125/125
f 15/129/129 13/130/130 43/131/131
f 43/131/131 41/132/132 15/129/129
f 43/133/133 25/134/134 26/135/135
f 26/135/135 44/136/136 43/133/133
f 41/137/137 43/138/138 44/139/139
f 44/139/139 42/140/140 41/137/137
f 42/141/141 44/142/142 22/143/143
f 22/143/143 20/144/144 42/141/141
f 45/145/145 46/146/146 47/147/147
f 47/147/147 48/148/148 45/145/145
f 20/149/149 49/150/150 42/151/151
f 50/152/152 42/151/151 49/150/150
f 19/153/153 51/154/154 20/155/155
f 49/156/156 20/155/155 51/154/154
f 39/157/157 52/158/158 19/159/159
f 51/160/160 19/159/159 52/158/158
f 42/161/161 50/162/162 39/163/163
f 52/164/164 39/163/163 50/162/162
f 53/165/165 54/166/166 55/167/167
f 55/167/167 56/168/168 53/165/165
f 41/169/169 46/170/170 15/171/171
f 57/172/172 15/171/171 46/170/170
f 40/173/173 47/174/174 41/175/175
f 46/176/176 41/175/175 47/174/174
f 16/177/177 58/178/178 40/179/179
f 47/180/180 40/179/179 58/178/178
f 15/181/181 57/182/182 16/183/183
f 58/184/184 16/183/183 57/182/182
f 59/185/185 49/186/186 60/187/187
f 51/188/188 60/187/187 49/186/186
f 25/189/189 55/190/190 12/191/191
f 54/192/192 12/191/191 55/190/190
f 43/193/193 61/194/194 25/195/195
f 55/196/196 25/195/195 61/194/194
f 13/197/197 62/198/198 43/199/199
f 61/200/200 43/199/199 62/198/198
f 12/201/201 54/202/202 13/203/203
f 62/204/204 13/203/203 54/202/202
f 63/205/205 57/206/206 46/207/207
f 46/207/207 45/208/208 63/205/205
f 23/209/209 64/210/210 26/211/211
f 65/212/212 26/211/211 64/210/210
f 22/213/213 66/214/214 23/215/215
f 64/216/216 23/215/215 66/214/214
f 44/217/217 67/218/218 22/219/219
f 66/220/220 22/219/219 67/218/218
f 26/221/221 65/222/222 44/223/223
f 67/224/224 44/223/223 65/222/222
f 68/225/225 69/226/226 59/227/227
f 59/227/227 60/228/228 68/225/225
f 70/229/229 63/230/230 45/231/231
f 45/231/231 48/232/232 70/229/229
f 71/233/233 53/234/234 56/235/235
f 56/235/235 72/236/236 71/233/233
f 73/237/237 74/238/238 75/239/239
f 75/239/239 76/240/240 73/237/237
f 74/241/241 65/242/242 64/243/243
f 64/243/243 75/244/244 74/241/241
f 60/245/245 51/246/246 52/247/247
f 52/247/247 68/248/248 60/245/245
f 56/249/249 55/250/250 61/251/251
f 61/251/251 72/252/252 56/249/249
f 48/253/253 47/254/254 70/255/255
f 58/256/256 70/255/255 47/254/254
f 75/257/257 64/258/258 66/259/259
f 66/259/259 76/260/260 75/257/257
f 68/261/261 52/262/262 69/263/263
f 50/264/264 69/263/263 52/262/262
f 72/265/265 61/266/266 71/267/267
f 62/268/268 71/267/267 61/266/266
f 70/269/269 58/270/270 63/271/271
f 57/272/272 63/271/271 58/270/270
f 76/273/273 66/274/274 67/275/275
f 67/275/275 73/276/276 76/273/273
f 71/277/277 62/278/278 53/279/279
f 54/280/280 53/279/279 62/278/278
f 73/281/281 67/282/282 74/283/283
f 65/284/284 74/283/283 67/282/282
f 69/285/285 50/286/286 49/287/287
f 49/287/287 59/288/288 69/285/285
