mtllib mirrorframe.mtl
g objMesh
v -0.307935 -0.026241 -4.931972
v 0.330783 -0.026241 -4.931972
v 0.330783 -0.026241 4.479121
v -0.307936 -0.026241 4.479121
v 0.330782 6.486330 4.479121
v 0.330783 6.486330 -4.931971
v -0.307936 6.486330 4.479120
v -0.307935 6.486330 -4.931972
v -0.021895 0.341408 -4.564323
v -0.021894 0.341408 4.111472
v -0.021894 6.118681 -4.564322
v -0.021895 6.118681 4.111473
v -0.390828 -0.026241 4.479121
v -0.390828 -0.026241 -4.931972
v 0.247890 -0.026241 -4.931972
v 0.247890 -0.026241 4.479121
v 0.247890 6.486330 -4.931972
v -0.390829 6.486330 -4.931971
v 0.247890 6.486330 4.479120
v -0.390828 6.486330 4.479121
v -0.038151 0.341408 4.111472
v -0.038151 0.341408 -4.564323
v -0.038151 6.118681 -4.564322
v -0.038150 6.118681 4.111473
vt 0.489837 0.637868
vt 0.493033 0.662452
vt 0.162769 0.778103
vt 0.151197 0.756402
vt 0.921605 1.000000
vt 0.713053 0.720272
vt 0.941564 0.984049
vt 0.724718 0.698634
vt 0.151197 0.756402
vt 0.162769 0.778103
vt 0.000000 0.950887
vt 0.019331 0.967775
vt 0.724718 0.698634
vt 0.713053 0.720272
vt 0.493033 0.662452
vt 0.489837 0.637868
vt 0.493033 0.662452
vt 0.491597 0.683989
vt 0.178433 0.793484
vt 0.162769 0.778103
vt 0.713053 0.720272
vt 0.700419 0.737785
vt 0.493033 0.662452
vt 0.491597 0.683989
vt 0.162769 0.778103
vt 0.178433 0.793484
vt 0.045558 0.966908
vt 0.019331 0.967775
vt 0.921605 1.000000
vt 0.894567 0.996490
vt 0.700419 0.737785
vt 0.713053 0.720272
vt 0.165889 0.477491
vt 0.493260 0.594447
vt 0.487968 0.618808
vt 0.151070 0.497182
vt 0.719556 0.550142
vt 0.708687 0.527818
vt 0.950000 0.278428
vt 0.931578 0.260555
vt 0.018563 0.284492
vt 0.165889 0.477491
vt 0.151070 0.497182
vt 0.000000 0.301753
vt 0.493260 0.594447
vt 0.708687 0.527818
vt 0.719556 0.550142
vt 0.487968 0.618808
vt 0.165889 0.477491
vt 0.178659 0.460650
vt 0.489390 0.571869
vt 0.493260 0.594447
vt 0.493260 0.594447
vt 0.489390 0.571869
vt 0.695497 0.512235
vt 0.708687 0.527818
vt 0.018563 0.284492
vt 0.044892 0.285900
vt 0.178659 0.460650
vt 0.165889 0.477491
vt 0.708687 0.527818
vt 0.695497 0.512235
vt 0.904958 0.260929
vt 0.931578 0.260555
vn 0.000000 -1.000000 0.000000
vn 0.000000 -1.000000 0.000000
vn 0.000000 -1.000000 0.000000
vn 0.000000 -1.000000 0.000000
vn 0.000000 1.000000 0.000000
vn 0.000000 1.000000 0.000000
vn 0.000000 1.000000 0.000000
vn 0.000000 1.000000 0.000000
vn 0.000000 0.000000 1.000000
vn 0.000000 0.000000 1.000000
vn 0.000000 0.000000 1.000000
vn 0.000000 0.000000 1.000000
vn 0.000000 0.000000 -1.000000
vn 0.000000 0.000000 -1.000000
vn 0.000000 0.000000 -1.000000
vn 0.000000 0.000000 -1.000000
vn 0.720387 0.691137 0.000000
vn 0.720387 0.691137 0.000000
vn 0.720387 0.691137 0.000000
vn 0.720387 0.691137 0.000000
vn 0.720387 0.000000 0.691137
vn 0.720387 0.000000 0.691137
vn 0.720387 0.000000 0.691137
vn 0.720387 0.000000 0.691137
vn 0.720387 0.000000 -0.691137
vn 0.720387 0.000000 -0.691137
vn 0.720387 0.000000 -0.691137
vn 0.720387 0.000000 -0.691137
vn 0.720387 -0.691137 0.000000
vn 0.720387 -0.691137 0.000000
vn 0.720387 -0.691137 0.000000
vn 0.720387 -0.691137 0.000000
vn 0.000000 -1.000000 0.000000
vn 0.000000 -1.000000 0.000000
vn 0.000000 -1.000000 0.000000
vn 0.000000 -1.000000 0.000000
vn 0.000000 1.000000 0.000000
vn 0.000000 1.000000 0.000000
vn 0.000000 1.000000 0.000000
vn 0.000000 1.000000 0.000000
vn 0.000000 0.000000 1.000000
vn 0.000000 0.000000 1.000000
vn 0.000000 0.000000 1.000000
vn 0.000000 0.000000 1.000000
vn 0.000000 0.000000 -1.000000
vn 0.000000 0.000000 -1.000000
vn 0.000000 0.000000 -1.000000
vn 0.000000 0.000000 -1.000000
vn -0.720387 0.691137 0.000000
vn -0.720387 0.691137 0.000000
vn -0.720387 0.691137 0.000000
vn -0.720387 0.691137 0.000000
vn -0.720387 0.000000 0.691137
vn -0.720387 0.000000 0.691137
vn -0.720387 0.000000 0.691137
vn -0.720387 0.000000 0.691137
vn -0.720387 0.000000 -0.691137
vn -0.720387 0.000000 -0.691137
vn -0.720387 0.000000 -0.691137
vn -0.720387 0.000000 -0.691137
vn -0.720387 -0.691137 0.000000
vn -0.720387 -0.691137 0.000000
vn -0.720387 -0.691137 0.000000
vn -0.720387 -0.691137 0.000000
usemtl Material
f 1/1/1 2/2/2 3/3/3
f 3/3/3 4/4/4 1/1/1
f 5/5/5 6/6/6 7/7/7
f 8/8/8 7/7/7 6/6/6
f 4/9/9 3/10/10 7/11/11
f 5/12/12 7/11/11 3/10/10
f 8/13/13 6/14/14 2/15/15
f 2/15/15 1/16/16 8/13/13
f 2/17/17 9/18/18 10/19/19
f 10/19/19 3/20/20 2/17/17
f 6/21/21 11/22/22 2/23/23
f 9/24/24 2/23/23 11/22/22
f 3/25/25 10/26/26 12/27/27
f 12/27/27 5/28/28 3/25/25
f 5/29/29 12/30/30 11/31/31
f 11/31/31 6/32/32 5/29/29
f 13/33/33 14/34/34 15/35/35
f 15/35/35 16/36/36 13/33/33
f 17/37/37 18/38/38 19/39/39
f 20/40/40 19/39/39 18/38/38
f 20/41/41 13/42/42 16/43/43
f 16/43/43 19/44/44 20/41/41
f 14/45/45 18/46/46 17/47/47
f 17/47/47 15/48/48 14/45/45
f 13/49/49 21/50/50 22/51/51
f 22/51/51 14/52/52 13/49/49
f 14/53/53 22/54/54 23/55/55
f 23/55/55 18/56/56 14/53/53
f 20/57/57 24/58/58 21/59/59
f 21/59/59 13/60/60 20/57/57
f 18/61/61 23/62/62 24/63/63
f 24/63/63 20/64/64 18/61/61
