mtllib phonebase.mtl
g objMesh
v -1.546040 0.877358 -0.840376
v -0.235137 0.877358 -0.840376
v -0.235137 0.029634 -1.000000
v -1.546040 0.029634 -1.000000
v 1.764863 0.289455 -1.000000
v 1.764863 0.029634 -1.000000
v 1.764863 0.289455 0.016397
v 1.764863 0.029634 1.000000
v -0.235137 0.029634 1.000000
v -0.235137 0.877358 0.016397
v -1.546040 0.029634 0.016397
v -1.546040 0.877358 0.016397
v -0.235137 0.877358 0.840376
v -1.546040 0.877358 0.840376
v -1.546040 0.029634 1.000000
v 1.764863 0.289455 1.000000
v 1.764863 0.289455 -0.016397
v -0.235137 0.877358 -0.016397
v -1.546040 0.877358 -0.016397
v -1.546040 0.029634 -0.016397
vt 0.083637 0.090203
vt 0.118193 0.217303
vt 0.034556 0.240042
vt 0.000000 0.112942
vt 0.034556 0.240042
vt 0.118193 0.217303
vt 0.112048 0.427280
vt 0.086842 0.434073
vt 0.516074 0.448901
vt 0.513797 0.474907
vt 0.412063 0.466002
vt 0.315887 0.431378
vt 0.315887 0.431378
vt 0.214058 0.422465
vt 0.333410 0.231192
vt 0.204182 0.213244
vt 0.423209 0.701746
vt 0.222610 0.713828
vt 0.210574 0.513224
vt 0.411160 0.501162
vt 0.204182 0.213244
vt 0.214058 0.422465
vt 0.118193 0.217303
vt 0.112048 0.427280
vt 0.443347 0.108597
vt 0.450775 0.023745
vt 0.536532 0.031252
vt 0.545082 0.117502
vt 0.279437 0.075620
vt 0.333410 0.231192
vt 0.204182 0.213244
vt 0.194491 0.081887
vt 0.545082 0.117502
vt 0.533597 0.248715
vt 0.443347 0.108597
vt 0.333410 0.231192
vt 0.519518 0.861354
vt 0.519518 0.729640
vt 0.605603 0.729640
vt 0.605603 0.861354
vt 0.222610 0.713828
vt 0.227680 0.800378
vt 0.096207 0.808151
vt 0.091097 0.721646
vt 0.424784 0.727770
vt 0.227680 0.800378
vt 0.222610 0.713828
vt 0.423209 0.701746
vt 0.443145 0.598244
vt 0.449268 0.700181
vt 0.423209 0.701746
vt 0.411160 0.501162
vt 0.251197 0.883198
vt 0.452684 0.825995
vt 0.309339 1.000000
vt 0.493542 0.919691
vt 0.516074 0.448901
vt 0.315887 0.431378
vt 0.424784 0.727770
vt 0.452684 0.825995
vt 0.227680 0.800378
vt 0.251197 0.883198
vt 0.005113 0.710699
vt 0.000000 0.624772
vt 0.085022 0.619725
vt 0.091097 0.721646
vt 0.251197 0.883198
vt 0.309339 1.000000
vt 0.144677 0.998341
vt 0.123584 0.915817
vt 0.085022 0.619725
vt 0.091097 0.721646
vt 0.519518 0.868286
vt 0.605609 0.868291
vt 0.605603 1.000000
vt 0.519519 0.999998
vn 0.000000 0.184695 -0.981079
vn 0.000000 0.184695 -0.981079
vn 0.000000 0.184695 -0.981079
vn 0.000000 0.184695 -0.981079
vn -0.018469 0.142360 -0.987937
vn -0.018469 0.142360 -0.987937
vn -0.018469 0.142360 -0.987937
vn -0.018469 0.142360 -0.987937
vn 1.000000 0.000000 0.000000
vn 1.000000 0.000000 0.000000
vn 1.000000 0.000000 0.000000
vn 1.000000 0.000000 0.000000
vn 0.126791 0.862875 0.485797
vn 0.126791 0.862875 0.485797
vn 0.126791 0.862875 0.485797
vn 0.126791 0.862875 0.485797
vn 0.000000 -1.000000 0.000000
vn 0.000000 -1.000000 0.000000
vn 0.000000 -1.000000 0.000000
vn 0.000000 -1.000000 0.000000
vn 0.281528 0.957794 0.000000
vn 0.281528 0.957794 0.000000
vn 0.281528 0.957794 0.000000
vn 0.281528 0.957794 0.000000
vn -1.000000 0.000000 0.000000
vn -1.000000 0.000000 0.000000
vn -1.000000 0.000000 0.000000
vn -1.000000 0.000000 0.000000
vn -0.308187 0.476507 0.821334
vn -0.308187 0.476507 0.821334
vn -0.308187 0.476507 0.821334
vn -0.308187 0.476507 0.821334
vn 0.000000 -1.000000 0.000000
vn 0.000000 -1.000000 0.000000
vn 0.000000 -1.000000 0.000000
vn 0.000000 -1.000000 0.000000
vn 0.000000 1.000000 0.000000
vn 0.000000 1.000000 0.000000
vn 0.000000 1.000000 0.000000
vn 0.000000 1.000000 0.000000
vn 0.000000 0.184695 0.981079
vn 0.000000 0.184695 0.981079
vn 0.000000 0.184695 0.981079
vn 0.000000 0.184695 0.981079
vn -0.018469 0.142360 0.987937
vn -0.018469 0.142360 0.987937
vn -0.018469 0.142360 0.987937
vn -0.018469 0.142360 0.987937
vn 1.000000 0.000000 0.000000
vn 1.000000 0.000000 0.000000
vn 1.000000 0.000000 0.000000
vn 1.000000 0.000000 0.000000
vn 0.126791 0.862875 -0.485797
vn 0.126791 0.862875 -0.485797
vn 0.126791 0.862875 -0.485797
vn 0.126791 0.862875 -0.485797
vn 0.000000 -1.000000 0.000000
vn 0.000000 -1.000000 0.000000
vn 0.281528 0.957794 0.000000
vn 0.281528 0.957794 0.000000
vn 0.281528 0.957794 0.000000
vn 0.281528 0.957794 0.000000
vn -1.000000 0.000000 0.000000
vn -1.000000 0.000000 0.000000
vn -1.000000 0.000000 0.000000
vn -1.000000 0.000000 0.000000
vn -0.308187 0.476507 -0.821334
vn -0.308187 0.476507 -0.821334
vn -0.308187 0.476507 -0.821334
vn -0.308187 0.476507 -0.821334
vn 0.000000 -1.000000 0.000000
vn 0.000000 -1.000000 0.000000
vn 0.000000 1.000000 0.000000
vn 0.000000 1.000000 0.000000
vn 0.000000 1.000000 0.000000
vn 0.000000 1.000000 0.000000
usemtl None
f 1/1/1 2/2/2 3/3/3
f 3/3/3 4/4/4 1/1/1
f 3/5/5 2/6/6 5/7/7
f 5/7/7 6/8/8 3/5/5
f 6/9/9 5/10/10 7/11/11
f 7/11/11 8/12/12 6/9/9
f 8/13/13 7/14/14 9/15/15
f 10/16/16 9/15/15 7/14/14
f 8/17/17 9/18/18 3/19/19
f 3/19/19 6/20/20 8/17/17
f 10/21/21 7/22/22 2/23/23
f 5/24/24 2/23/23 7/22/22
f 11/25/25 12/26/26 1/27/27
f 1/27/27 4/28/28 11/25/25
f 11/29/29 9/30/30 10/31/31
f 10/31/31 12/32/32 11/29/29
f 4/33/33 3/34/34 11/35/35
f 9/36/36 11/35/35 3/34/34
f 12/37/37 10/38/38 2/39/39
f 2/39/39 1/40/40 12/37/37
f 9/41/41 13/42/42 14/43/43
f 14/43/43 15/44/44 9/41/41
f 16/45/45 13/46/46 9/47/47
f 9/47/47 8/48/48 16/45/45
f 17/49/49 16/50/50 8/51/51
f 8/51/51 6/52/52 17/49/49
f 18/53/53 17/54/54 3/55/55
f 6/56/56 3/55/55 17/54/54
f 9/36/36 3/34/34 6/57/57
f 6/57/57 8/58/58 9/36/36
f 16/59/59 17/60/60 13/61/61
f 18/62/62 13/61/61 17/60/60
f 14/63/63 19/64/64 20/65/65
f 20/65/65 15/66/66 14/63/63
f 18/67/67 3/68/68 20/69/69
f 20/69/69 19/70/70 18/67/67
f 3/19/19 9/18/18 20/71/71
f 15/72/72 20/71/71 9/18/18
f 13/73/73 18/74/74 19/75/75
f 19/75/75 14/76/76 13/73/73
