# This file was created with Minddesk Qubicle 3.0
# Get Qubicle at www.getqubicle.com

mtllib Red_Cassette.mtl

vn 0.0 0.0 1.0
vn 0.0 0.0 -1.0
vn -1.0 0.0 0.0
vn 1.0 0.0 0.0
vn 0.0 1.0 0.0
vn 0.0 -1.0 0.0

v 14.00000 9.00000 -4.00000
v 14.00000 2.00000 -4.00000
v -14.00000 2.00000 -4.00000
v -14.00000 9.00000 -4.00000
v 9.00000 -5.00000 -5.00000
v 9.00000 -9.00000 -5.00000
v -9.00000 -9.00000 -5.00000
v -9.00000 -5.00000 -5.00000
v 14.00000 -2.00000 -4.00000
v 14.00000 -5.00000 -4.00000
v -14.00000 -5.00000 -4.00000
v -14.00000 -2.00000 -4.00000
v -9.00000 -5.00000 -4.00000
v -9.00000 -9.00000 -4.00000
v -14.00000 -9.00000 -4.00000
v -8.00000 2.00000 -4.00000
v -8.00000 -2.00000 -4.00000
v 8.00000 -2.00000 -4.00000
v 8.00000 2.00000 -4.00000
v 14.00000 -9.00000 -4.00000
v 9.00000 -9.00000 -4.00000
v 9.00000 -5.00000 -4.00000
v 3.00000 2.00000 -3.00000
v 3.00000 -1.00000 -3.00000
v -3.00000 -1.00000 -3.00000
v -3.00000 2.00000 -3.00000
v -3.00000 2.00000 -4.00000
v -3.00000 -1.00000 -4.00000
v -4.00000 -1.00000 -4.00000
v -4.00000 2.00000 -4.00000
v 4.00000 2.00000 -4.00000
v 4.00000 -1.00000 -4.00000
v 3.00000 -1.00000 -4.00000
v 3.00000 2.00000 -4.00000
v -7.00000 1.00000 -3.00000
v -7.00000 -1.00000 -3.00000
v -8.00000 -1.00000 -3.00000
v -8.00000 1.00000 -3.00000
v -4.00000 1.00000 -3.00000
v -4.00000 -1.00000 -3.00000
v -5.00000 -1.00000 -3.00000
v -5.00000 1.00000 -3.00000
v 5.00000 1.00000 -3.00000
v 5.00000 -1.00000 -3.00000
v 4.00000 -1.00000 -3.00000
v 4.00000 1.00000 -3.00000
v 8.00000 1.00000 -3.00000
v 8.00000 -1.00000 -3.00000
v 7.00000 -1.00000 -3.00000
v 7.00000 1.00000 -3.00000
v 4.00000 -2.00000 -4.00000
v -4.00000 -2.00000 -4.00000
v -4.00000 -2.00000 -3.00000
v -8.00000 -2.00000 -3.00000
v -4.00000 2.00000 -3.00000
v -8.00000 2.00000 -3.00000
v 8.00000 -2.00000 -3.00000
v 4.00000 -2.00000 -3.00000
v 8.00000 2.00000 -3.00000
v 4.00000 2.00000 -3.00000
v -14.00000 9.00000 -1.00000
v -14.00000 2.00000 -1.00000
v 14.00000 2.00000 -1.00000
v 14.00000 9.00000 -1.00000
v -14.00000 -2.00000 -1.00000
v -14.00000 -5.00000 -1.00000
v 14.00000 -5.00000 -1.00000
v 14.00000 -2.00000 -1.00000
v -9.00000 -5.00000 0.00000
v -9.00000 -9.00000 0.00000
v 9.00000 -9.00000 0.00000
v 9.00000 -5.00000 0.00000
v -3.00000 2.00000 -2.00000
v -3.00000 -1.00000 -2.00000
v 3.00000 -1.00000 -2.00000
v 3.00000 2.00000 -2.00000
v -14.00000 -9.00000 -1.00000
v -9.00000 -9.00000 -1.00000
v -9.00000 -5.00000 -1.00000
v -8.00000 -2.00000 -1.00000
v -8.00000 2.00000 -1.00000
v 8.00000 2.00000 -1.00000
v 8.00000 -2.00000 -1.00000
v 9.00000 -5.00000 -1.00000
v 9.00000 -9.00000 -1.00000
v 14.00000 -9.00000 -1.00000
v -4.00000 2.00000 -1.00000
v -4.00000 -1.00000 -1.00000
v -3.00000 -1.00000 -1.00000
v -3.00000 2.00000 -1.00000
v 3.00000 2.00000 -1.00000
v 3.00000 -1.00000 -1.00000
v 4.00000 -1.00000 -1.00000
v 4.00000 2.00000 -1.00000
v -8.00000 1.00000 -2.00000
v -8.00000 -1.00000 -2.00000
v -7.00000 -1.00000 -2.00000
v -7.00000 1.00000 -2.00000
v -5.00000 1.00000 -2.00000
v -5.00000 -1.00000 -2.00000
v -4.00000 -1.00000 -2.00000
v -4.00000 1.00000 -2.00000
v 4.00000 1.00000 -2.00000
v 4.00000 -1.00000 -2.00000
v 5.00000 -1.00000 -2.00000
v 5.00000 1.00000 -2.00000
v 7.00000 1.00000 -2.00000
v 7.00000 -1.00000 -2.00000
v 8.00000 -1.00000 -2.00000
v 8.00000 1.00000 -2.00000
v -4.00000 -2.00000 -1.00000
v 4.00000 -2.00000 -1.00000
v -8.00000 -2.00000 -2.00000
v -4.00000 -2.00000 -2.00000
v -8.00000 2.00000 -2.00000
v -4.00000 2.00000 -2.00000
v 4.00000 -2.00000 -2.00000
v 8.00000 -2.00000 -2.00000
v 4.00000 2.00000 -2.00000
v 8.00000 2.00000 -2.00000

vt 0.01563 0.29688
vt 0.01563 0.01563
vt 0.06250 0.01563
vt 0.06250 0.29688
vt 0.09375 0.29688
vt 0.09375 0.01563
vt 0.14063 0.01563
vt 0.14063 0.29688
vt 0.17188 0.12500
vt 0.17188 0.01563
vt 0.60938 0.01563
vt 0.60938 0.12500
vt 0.17188 0.26563
vt 0.17188 0.15625
vt 0.60938 0.15625
vt 0.60938 0.26563
vt 0.64063 0.07813
vt 0.64063 0.01563
vt 0.92188 0.01563
vt 0.92188 0.07813
vt 0.64063 0.21875
vt 0.64063 0.15625
vt 0.92188 0.15625
vt 0.92188 0.21875
vt 0.01563 0.39063
vt 0.01563 0.32813
vt 0.10938 0.32813
vt 0.10938 0.39063
vt 0.14063 0.39063
vt 0.14063 0.32813
vt 0.23438 0.32813
vt 0.23438 0.39063
vt 0.26563 0.39063
vt 0.26563 0.32813
vt 0.35938 0.32813
vt 0.35938 0.39063
vt 0.39063 0.39063
vt 0.39063 0.32813
vt 0.48438 0.32813
vt 0.48438 0.39063
vt 0.51563 0.39063
vt 0.51563 0.32813
vt 0.59375 0.32813
vt 0.59375 0.39063
vt 0.62500 0.39063
vt 0.62500 0.32813
vt 0.70313 0.32813
vt 0.70313 0.39063
vt 0.73438 0.39063
vt 0.73438 0.32813
vt 0.81250 0.32813
vt 0.81250 0.39063
vt 0.84375 0.39063
vt 0.84375 0.32813
vt 0.92188 0.32813
vt 0.92188 0.39063
vt 0.95313 0.07813
vt 0.95313 0.01563
vt 0.96875 0.01563
vt 0.96875 0.07813
vt 0.95313 0.21875
vt 0.95313 0.15625
vt 0.96875 0.15625
vt 0.96875 0.21875
vt 0.95313 0.39063
vt 0.95313 0.32813
vt 0.96875 0.32813
vt 0.96875 0.39063
vt 0.01563 0.48438
vt 0.01563 0.42188
vt 0.03125 0.42188
vt 0.03125 0.48438
vt 0.06250 0.48438
vt 0.06250 0.42188
vt 0.07813 0.42188
vt 0.07813 0.48438
vt 0.10938 0.48438
vt 0.10938 0.42188
vt 0.12500 0.42188
vt 0.12500 0.48438
vt 0.15625 0.48438
vt 0.15625 0.42188
vt 0.17188 0.42188
vt 0.17188 0.48438
vt 0.20313 0.48438
vt 0.20313 0.42188
vt 0.21875 0.42188
vt 0.21875 0.48438
vt 0.25000 0.48438
vt 0.25000 0.42188
vt 0.26563 0.42188
vt 0.26563 0.48438
vt 0.29688 0.48438
vt 0.29688 0.42188
vt 0.31250 0.42188
vt 0.31250 0.48438
vt 0.34375 0.48438
vt 0.34375 0.42188
vt 0.35938 0.42188
vt 0.35938 0.48438
vt 0.39063 0.48438
vt 0.39063 0.42188
vt 0.40625 0.42188
vt 0.40625 0.48438
vt 0.43750 0.46875
vt 0.43750 0.42188
vt 0.87500 0.42188
vt 0.87500 0.46875
vt 0.01563 0.56250
vt 0.01563 0.51563
vt 0.45313 0.51563
vt 0.45313 0.56250
vt 0.48438 0.56250
vt 0.48438 0.51563
vt 0.92188 0.51563
vt 0.92188 0.56250
vt 0.01563 0.64063
vt 0.01563 0.59375
vt 0.45313 0.59375
vt 0.45313 0.64063
vt 0.48438 0.64063
vt 0.48438 0.59375
vt 0.57813 0.59375
vt 0.57813 0.64063
vt 0.60938 0.64063
vt 0.60938 0.59375
vt 0.70313 0.59375
vt 0.70313 0.64063
vt 0.90625 0.46875
vt 0.90625 0.42188
vt 0.92188 0.42188
vt 0.92188 0.46875
vt 0.95313 0.46875
vt 0.95313 0.42188
vt 0.96875 0.42188
vt 0.96875 0.46875
vt 0.95313 0.56250
vt 0.95313 0.51563
vt 0.96875 0.51563
vt 0.96875 0.56250
vt 0.73438 0.64063
vt 0.73438 0.59375
vt 0.75000 0.59375
vt 0.75000 0.64063
vt 0.78125 0.64063
vt 0.78125 0.59375
vt 0.79688 0.59375
vt 0.79688 0.64063
vt 0.82813 0.64063
vt 0.82813 0.59375
vt 0.84375 0.59375
vt 0.84375 0.64063
vt 0.87500 0.64063
vt 0.87500 0.59375
vt 0.89063 0.59375
vt 0.89063 0.64063
vt 0.92188 0.64063
vt 0.92188 0.59375
vt 0.93750 0.59375
vt 0.93750 0.64063
vt 0.96875 0.62500
vt 0.96875 0.59375
vt 0.98438 0.59375
vt 0.98438 0.62500
vt 0.01563 0.70313
vt 0.01563 0.67188
vt 0.03125 0.67188
vt 0.03125 0.70313
vt 0.06250 0.70313
vt 0.06250 0.67188
vt 0.07813 0.67188
vt 0.07813 0.70313
vt 0.10938 0.70313
vt 0.10938 0.67188
vt 0.12500 0.67188
vt 0.12500 0.70313
vt 0.15625 0.70313
vt 0.15625 0.67188
vt 0.17188 0.67188
vt 0.17188 0.70313
vt 0.20313 0.70313
vt 0.20313 0.67188
vt 0.21875 0.67188
vt 0.21875 0.70313
vt 0.25000 0.70313
vt 0.25000 0.67188
vt 0.26563 0.67188
vt 0.26563 0.70313
vt 0.29688 0.70313
vt 0.29688 0.67188
vt 0.31250 0.67188
vt 0.31250 0.70313
vt 0.34375 0.70313
vt 0.34375 0.67188
vt 0.35938 0.67188
vt 0.35938 0.70313
vt 0.39063 0.70313
vt 0.39063 0.67188
vt 0.40625 0.67188
vt 0.40625 0.70313
vt 0.43750 0.70313
vt 0.43750 0.67188
vt 0.45313 0.67188
vt 0.45313 0.70313
vt 0.48438 0.70313
vt 0.48438 0.67188
vt 0.50000 0.67188
vt 0.50000 0.70313
vt 0.64063 0.12500
vt 0.64063 0.10938
vt 0.92188 0.10938
vt 0.92188 0.12500
vt 0.64063 0.26563
vt 0.64063 0.25000
vt 0.92188 0.25000
vt 0.92188 0.26563
vt 0.53125 0.68750
vt 0.53125 0.67188
vt 0.81250 0.67188
vt 0.81250 0.68750
vt 0.01563 0.75000
vt 0.01563 0.73438
vt 0.29688 0.73438
vt 0.29688 0.75000
vt 0.84375 0.68750
vt 0.84375 0.67188
vt 0.96875 0.67188
vt 0.96875 0.68750
vt 0.32813 0.75000
vt 0.32813 0.73438
vt 0.45313 0.73438
vt 0.45313 0.75000
vt 0.48438 0.75000
vt 0.48438 0.73438
vt 0.57813 0.73438
vt 0.57813 0.75000
vt 0.60938 0.75000
vt 0.60938 0.73438
vt 0.70313 0.73438
vt 0.70313 0.75000
vt 0.73438 0.75000
vt 0.73438 0.73438
vt 0.82813 0.73438
vt 0.82813 0.75000
vt 0.85938 0.75000
vt 0.85938 0.73438
vt 0.95313 0.73438
vt 0.95313 0.75000
vt 0.01563 0.79688
vt 0.01563 0.78125
vt 0.07813 0.78125
vt 0.07813 0.79688
vt 0.10938 0.79688
vt 0.10938 0.78125
vt 0.17188 0.78125
vt 0.17188 0.79688
vt 0.20313 0.79688
vt 0.20313 0.78125
vt 0.26563 0.78125
vt 0.26563 0.79688
vt 0.29688 0.79688
vt 0.29688 0.78125
vt 0.35938 0.78125
vt 0.35938 0.79688
vt 0.39063 0.79688
vt 0.39063 0.78125
vt 0.45313 0.78125
vt 0.45313 0.79688
vt 0.48438 0.79688
vt 0.48438 0.78125
vt 0.54688 0.78125
vt 0.54688 0.79688
vt 0.57813 0.79688
vt 0.57813 0.78125
vt 0.64063 0.78125
vt 0.64063 0.79688
vt 0.67188 0.79688
vt 0.67188 0.78125
vt 0.73438 0.78125
vt 0.73438 0.79688
vt 0.76563 0.79688
vt 0.76563 0.78125
vt 0.82813 0.78125
vt 0.82813 0.79688
vt 0.85938 0.79688
vt 0.85938 0.78125
vt 0.92188 0.78125
vt 0.92188 0.79688
vt 0.01563 0.84375
vt 0.01563 0.82813
vt 0.07813 0.82813
vt 0.07813 0.84375
vt 0.10938 0.84375
vt 0.10938 0.82813
vt 0.17188 0.82813
vt 0.17188 0.84375
vt 0.20313 0.84375
vt 0.20313 0.82813
vt 0.26563 0.82813
vt 0.26563 0.84375
vt 0.29688 0.84375
vt 0.29688 0.82813
vt 0.35938 0.82813
vt 0.35938 0.84375
vt 0.39063 0.84375
vt 0.39063 0.82813
vt 0.45313 0.82813
vt 0.45313 0.84375
vt 0.48438 0.84375
vt 0.48438 0.82813
vt 0.54688 0.82813
vt 0.54688 0.84375
vt 0.95313 0.12500
vt 0.95313 0.10938
vt 0.98438 0.10938
vt 0.98438 0.12500
vt 0.95313 0.26563
vt 0.95313 0.25000
vt 0.98438 0.25000
vt 0.98438 0.26563
vt 0.95313 0.79688
vt 0.95313 0.78125
vt 0.98438 0.78125
vt 0.98438 0.79688
vt 0.57813 0.84375
vt 0.57813 0.82813
vt 0.60938 0.82813
vt 0.60938 0.84375

g Red_Cassette
usemtl Red_Cassette_Material
f 4/1/3 15/2/3 77/3/3 61/4/3
f 64/5/4 86/6/4 20/7/4 1/8/4
f 61/9/1 62/10/1 63/11/1 64/12/1
f 1/13/2 2/14/2 3/15/2 4/16/2
f 69/17/1 70/18/1 71/19/1 72/20/1
f 5/21/2 6/22/2 7/23/2 8/24/2
f 82/25/1 83/26/1 68/27/1 63/28/1
f 62/29/1 65/30/1 80/31/1 81/32/1
f 2/33/2 9/34/2 18/35/2 19/36/2
f 16/37/2 17/38/2 12/39/2 3/40/2
f 66/41/1 77/42/1 78/43/1 79/44/1
f 13/45/2 14/46/2 15/47/2 11/48/2
f 10/49/2 20/50/2 21/51/2 22/52/2
f 84/53/1 85/54/1 86/55/1 67/56/1
f 56/57/4 54/58/4 17/59/4 16/60/4
f 22/61/4 21/62/4 6/63/4 5/64/4
f 94/65/4 112/66/4 117/67/4 119/68/4
f 81/69/4 80/70/4 113/71/4 115/72/4
f 60/73/4 58/74/4 51/75/4 31/76/4
f 19/77/3 18/78/3 57/79/3 59/80/3
f 30/81/3 52/82/3 53/83/3 55/84/3
f 8/85/3 7/86/3 14/87/3 13/88/3
f 79/89/3 78/90/3 70/91/3 69/92/3
f 120/93/3 118/94/3 83/95/3 82/96/3
f 116/97/3 114/98/3 111/99/3 87/100/3
f 72/101/4 71/102/4 85/103/4 84/104/4
f 4/105/5 61/106/5 64/107/5 1/108/5
f 65/109/1 66/110/1 67/111/1 68/112/1
f 77/113/6 15/114/6 20/115/6 86/116/6
f 9/117/2 10/118/2 11/119/2 12/120/2
f 73/121/1 74/122/1 75/123/1 76/124/1
f 23/125/2 24/126/2 25/127/2 26/128/2
f 91/129/1 92/130/1 93/131/1 94/132/1
f 34/133/3 33/134/3 24/135/3 23/136/3
f 87/137/1 88/138/1 89/139/1 90/140/1
f 27/141/2 28/142/2 29/143/2 30/144/2
f 31/145/2 32/146/2 33/147/2 34/148/2
f 76/149/3 75/150/3 92/151/3 91/152/3
f 26/153/4 25/154/4 28/155/4 27/156/4
f 90/157/4 89/158/4 74/159/4 73/160/4
f 99/161/1 100/162/1 101/163/1 102/164/1
f 107/165/1 108/166/1 109/167/1 110/168/1
f 103/169/1 104/170/1 105/171/1 106/172/1
f 50/173/3 49/174/3 108/175/3 107/176/3
f 42/177/3 41/178/3 100/179/3 99/180/3
f 95/181/1 96/182/1 97/183/1 98/184/1
f 35/185/2 36/186/2 37/187/2 38/188/2
f 39/189/2 40/190/2 41/191/2 42/192/2
f 106/193/4 105/194/4 44/195/4 43/196/4
f 98/197/4 97/198/4 36/199/4 35/200/4
f 43/201/2 44/202/2 45/203/2 46/204/2
f 47/205/2 48/206/2 49/207/2 50/208/2
f 79/209/5 69/210/5 72/211/5 84/212/5
f 70/213/6 78/214/6 85/215/6 71/216/6
f 14/217/6 7/218/6 6/219/6 21/220/6
f 8/221/5 13/222/5 22/223/5 5/224/5
f 32/225/2 51/226/2 52/227/2 29/228/2
f 88/229/1 111/230/1 112/231/1 93/232/1
f 26/233/6 27/234/6 34/235/6 23/236/6
f 90/237/6 73/238/6 76/239/6 91/240/6
f 74/241/5 89/242/5 92/243/5 75/244/5
f 28/245/5 25/246/5 24/247/5 33/248/5
f 51/249/5 58/250/5 57/251/5 18/252/5
f 117/253/5 112/254/5 83/255/5 118/256/5
f 113/257/5 80/258/5 111/259/5 114/260/5
f 56/261/6 16/262/6 30/263/6 55/264/6
f 94/265/6 119/266/6 120/267/6 82/268/6
f 17/269/5 54/270/5 53/271/5 52/272/5
f 60/273/6 31/274/6 19/275/6 59/276/6
f 81/277/6 115/278/6 116/279/6 87/280/6
f 48/281/2 57/282/2 58/283/2 45/284/2
f 55/285/2 39/286/2 38/287/2 56/288/2
f 96/289/1 113/290/1 114/291/1 101/292/1
f 59/293/2 47/294/2 46/295/2 60/296/2
f 40/297/2 53/298/2 54/299/2 37/300/2
f 119/301/1 103/302/1 110/303/1 120/304/1
f 104/305/1 117/306/1 118/307/1 109/308/1
f 115/309/1 95/310/1 102/311/1 116/312/1
f 98/313/6 35/314/6 42/315/6 99/316/6
f 106/317/6 43/318/6 50/319/6 107/320/6
f 36/321/5 97/322/5 100/323/5 41/324/5
f 44/325/5 105/326/5 108/327/5 49/328/5
