mtllib rope.mtl
g objMesh
v 0.017634 2.351968 4.592746
v 0.000000 2.357697 4.592746
v 0.017634 2.716476 6.898258
v 0.000000 2.722205 6.898258
v 0.028532 2.336968 4.592746
v 0.028532 2.701476 6.898258
v 0.028532 2.318427 4.592746
v 0.028532 2.682935 6.898258
v 0.017634 2.303427 4.592746
v 0.017634 2.667935 6.898258
v 0.000000 2.297698 4.592746
v 0.000000 2.662206 6.898258
v -0.017634 2.303427 4.592746
v -0.017634 2.667935 6.898258
v -0.028532 2.318427 4.592746
v -0.028532 2.682935 6.898258
v -0.028532 2.336968 4.592746
v -0.028532 2.701476 6.898258
v -0.017634 2.716476 6.898258
v -0.017634 2.351968 4.592746
v -0.017634 2.026171 -0.018278
v 0.000000 2.031901 -0.018278
v -0.017634 1.977631 -0.018278
v -0.028532 1.992630 -0.018278
v -0.028532 2.011172 -0.018278
v 0.017634 2.026171 -0.018278
v 0.028532 2.011172 -0.018278
v 0.017634 1.977631 -0.018278
v 0.000000 1.971901 -0.018278
v 0.028532 1.992630 -0.018278
v -0.028532 2.122200 2.287234
v -0.017634 2.137200 2.287234
v 0.000000 2.142930 2.287234
v -0.028532 2.103659 2.287234
v -0.017634 2.088659 2.287234
v 0.000000 2.082930 2.287234
v 0.017634 2.088659 2.287234
v 0.028532 2.103659 2.287234
v 0.028532 2.122200 2.287234
v 0.017634 2.137200 2.287234
v 0.017634 2.716476 -6.898258
v 0.000000 2.722205 -6.898258
v 0.000000 2.357697 -4.592746
v 0.017634 2.351968 -4.592746
v 0.028532 2.701476 -6.898258
v 0.028532 2.336968 -4.592746
v 0.028532 2.682935 -6.898258
v 0.028532 2.318427 -4.592746
v 0.017634 2.667935 -6.898258
v 0.017634 2.303427 -4.592746
v 0.000000 2.662206 -6.898258
v 0.000000 2.297698 -4.592746
v -0.017634 2.303427 -4.592746
v -0.017634 2.667935 -6.898258
v -0.028532 2.318427 -4.592746
v -0.028532 2.682935 -6.898258
v -0.028532 2.336968 -4.592746
v -0.028532 2.701476 -6.898258
v -0.017634 2.716476 -6.898258
v -0.017634 2.351968 -4.592746
v 0.017634 2.026171 0.018278
v 0.000000 2.031901 0.018278
v 0.017634 1.977631 0.018278
v 0.028532 1.992630 0.018278
v 0.028532 2.011172 0.018278
v -0.017634 2.026171 0.018278
v -0.028532 2.011172 0.018278
v -0.017634 1.977631 0.018278
v 0.000000 1.971901 0.018278
v -0.028532 1.992630 0.018278
v -0.028532 2.122200 -2.287234
v -0.017634 2.137200 -2.287234
v 0.000000 2.142930 -2.287234
v -0.028532 2.103659 -2.287234
v -0.017634 2.088659 -2.287234
v 0.000000 2.082930 -2.287234
v 0.017634 2.088659 -2.287234
v 0.028532 2.103659 -2.287234
v 0.028532 2.122200 -2.287234
v 0.017634 2.137200 -2.287234
vt 0.308781 0.993679
vt 0.306497 0.995374
vt 0.002380 0.973020
vt 0.000000 0.974590
vt 0.310922 0.991674
vt 0.308781 0.993679
vt 0.005087 0.971784
vt 0.002380 0.973020
vt 0.312325 0.989152
vt 0.310922 0.991674
vt 0.007109 0.969714
vt 0.005087 0.971784
vt 0.312723 0.986398
vt 0.312325 0.989152
vt 0.007931 0.967124
vt 0.007109 0.969714
vt 0.312252 0.983678
vt 0.312723 0.986398
vt 0.007582 0.964480
vt 0.007931 0.967124
vt 0.311305 0.981027
vt 0.312252 0.983678
vt 0.007582 0.964480
vt 0.006835 0.961841
vt 0.310328 0.978341
vt 0.311305 0.981027
vt 0.006835 0.961841
vt 0.005823 0.959218
vt 0.309466 0.975618
vt 0.310328 0.978341
vt 0.005823 0.959218
vt 0.004773 0.956582
vt 0.005087 0.971784
vt 0.002380 0.973020
vt 0.007582 0.964480
vt 0.007931 0.967124
vt 0.007109 0.969714
vt 0.000642 0.965656
vt 0.003096 0.954207
vt 0.005823 0.959218
vt 0.006835 0.961841
vt 0.004773 0.956582
vt 0.307599 0.970285
vt 0.308554 0.972922
vt 0.003096 0.954207
vt 0.001956 0.951631
vt 0.308554 0.972922
vt 0.309466 0.975618
vt 0.004773 0.956582
vt 0.003096 0.954207
vt 0.939851 0.957076
vt 0.940666 0.954440
vt 0.942898 0.964515
vt 0.941035 0.962386
vt 0.939901 0.959829
vt 0.944315 0.955527
vt 0.946719 0.958869
vt 0.946588 0.965321
vt 0.944852 0.966544
vt 0.947420 0.962481
vt 0.939851 0.957076
vt 0.939901 0.959829
vt 0.627899 0.979808
vt 0.627716 0.977034
vt 0.627716 0.977034
vt 0.627899 0.979808
vt 0.309466 0.975618
vt 0.308554 0.972922
vt 0.940666 0.954440
vt 0.939851 0.957076
vt 0.627716 0.977034
vt 0.627636 0.974269
vt 0.627636 0.974269
vt 0.627716 0.977034
vt 0.308554 0.972922
vt 0.307599 0.970285
vt 0.939901 0.959829
vt 0.941035 0.962386
vt 0.628664 0.982528
vt 0.627899 0.979808
vt 0.941035 0.962386
vt 0.942898 0.964515
vt 0.629969 0.985051
vt 0.628664 0.982528
vt 0.628664 0.982528
vt 0.629969 0.985051
vt 0.311305 0.981027
vt 0.310328 0.978341
vt 0.942898 0.964515
vt 0.944852 0.966544
vt 0.631443 0.987428
vt 0.629969 0.985051
vt 0.629969 0.985051
vt 0.631443 0.987428
vt 0.312252 0.983678
vt 0.311305 0.981027
vt 0.944852 0.966544
vt 0.946301 0.968945
vt 0.631443 0.987428
vt 0.632341 0.990040
vt 0.631443 0.987428
vt 0.632341 0.990040
vt 0.312252 0.983678
vt 0.312723 0.986398
vt 0.946301 0.968945
vt 0.946760 0.971732
vt 0.632341 0.990040
vt 0.632335 0.992814
vt 0.632341 0.990040
vt 0.632335 0.992814
vt 0.312723 0.986398
vt 0.312325 0.989152
vt 0.946760 0.971732
vt 0.946329 0.974555
vt 0.632335 0.992814
vt 0.631468 0.995503
vt 0.946329 0.974555
vt 0.945167 0.977168
vt 0.631468 0.995503
vt 0.629921 0.997901
vt 0.631468 0.995503
vt 0.629921 0.997901
vt 0.310922 0.991674
vt 0.308781 0.993679
vt 0.945167 0.977168
vt 0.943557 0.979476
vt 0.629921 0.997901
vt 0.628049 1.000000
vt 0.629921 0.997901
vt 0.628049 1.000000
vt 0.308781 0.993679
vt 0.306497 0.995374
vt 0.945061 0.938901
vt 0.944568 0.941489
vt 0.620959 0.925968
vt 0.621488 0.923407
vt 0.945225 0.936287
vt 0.945061 0.938901
vt 0.621488 0.923407
vt 0.621635 0.920807
vt 0.944895 0.933634
vt 0.945225 0.936287
vt 0.621635 0.920807
vt 0.621145 0.918187
vt 0.943744 0.931118
vt 0.944895 0.933634
vt 0.621145 0.918187
vt 0.620280 0.915625
vt 0.943128 0.928516
vt 0.943744 0.931118
vt 0.620280 0.915625
vt 0.619431 0.913099
vt 0.619431 0.913099
vt 0.618899 0.910547
vt 0.943128 0.928516
vt 0.942998 0.925903
vt 0.618899 0.910547
vt 0.618911 0.907950
vt 0.942998 0.925903
vt 0.943547 0.923320
vt 0.618199 0.933524
vt 0.619220 0.931022
vt 0.941818 0.949085
vt 0.942849 0.946580
vt 0.949562 0.925698
vt 0.950000 0.928846
vt 0.943547 0.923320
vt 0.945456 0.922564
vt 0.947796 0.923371
vt 0.942998 0.925903
vt 0.948486 0.931690
vt 0.944895 0.933634
vt 0.943128 0.928516
vt 0.943744 0.931118
vt 0.620185 0.928510
vt 0.620959 0.925968
vt 0.943812 0.944054
vt 0.944568 0.941489
vt 0.619220 0.931022
vt 0.620185 0.928510
vt 0.942849 0.946580
vt 0.943812 0.944054
vt 0.006811 0.936834
vt 0.005552 0.939067
vt 0.004715 0.929807
vt 0.006329 0.931873
vt 0.007141 0.934319
vt 0.002288 0.937845
vt 0.000332 0.934686
vt 0.001075 0.928859
vt 0.002902 0.927918
vt 0.000000 0.931365
vt 0.003654 0.943963
vt 0.004633 0.941507
vt 0.302748 0.929190
vt 0.303720 0.926695
vt 0.302748 0.929190
vt 0.303720 0.926695
vt 0.619220 0.931022
vt 0.620185 0.928510
vt 0.004633 0.941507
vt 0.005552 0.939067
vt 0.303720 0.926695
vt 0.304602 0.924195
vt 0.303720 0.926695
vt 0.304602 0.924195
vt 0.620185 0.928510
vt 0.620959 0.925968
vt 0.002649 0.946433
vt 0.003654 0.943963
vt 0.301740 0.931680
vt 0.302748 0.929190
vt 0.001461 0.925759
vt 0.000614 0.923304
vt 0.301838 0.909357
vt 0.301299 0.906819
vt 0.301838 0.909357
vt 0.301299 0.906819
vt 0.618899 0.910547
vt 0.618911 0.907950
vt 0.002902 0.927918
vt 0.001461 0.925759
vt 0.302854 0.911762
vt 0.301838 0.909357
vt 0.302854 0.911762
vt 0.301838 0.909357
vt 0.619431 0.913099
vt 0.618899 0.910547
vt 0.302854 0.911762
vt 0.304222 0.914036
vt 0.004715 0.929807
vt 0.002902 0.927918
vt 0.619431 0.913099
vt 0.620280 0.915625
vt 0.304222 0.914036
vt 0.302854 0.911762
vt 0.304222 0.914036
vt 0.305308 0.916492
vt 0.006329 0.931873
vt 0.004715 0.929807
vt 0.620280 0.915625
vt 0.621145 0.918187
vt 0.305308 0.916492
vt 0.304222 0.914036
vt 0.305308 0.916492
vt 0.305741 0.919114
vt 0.007141 0.934319
vt 0.006329 0.931873
vt 0.305741 0.919114
vt 0.305365 0.921693
vt 0.006811 0.936834
vt 0.007141 0.934319
vt 0.621635 0.920807
vt 0.621488 0.923407
vt 0.305365 0.921693
vt 0.305741 0.919114
vt 0.305365 0.921693
vt 0.304602 0.924195
vt 0.005552 0.939067
vt 0.006811 0.936834
vt 0.621488 0.923407
vt 0.620959 0.925968
vt 0.304602 0.924195
vt 0.305365 0.921693
vn 0.305078 0.938893 -0.148446
vn 0.305078 0.938893 -0.148446
vn 0.305078 0.938893 -0.148446
vn 0.305078 0.938893 -0.148446
vn 0.804156 0.584323 -0.092346
vn 0.804156 0.584323 -0.092346
vn 0.804156 0.584323 -0.092346
vn 0.804156 0.584323 -0.092346
vn 1.000000 0.000000 0.000000
vn 1.000000 0.000000 0.000000
vn 1.000000 0.000000 0.000000
vn 1.000000 0.000000 0.000000
vn 0.804156 -0.584323 0.092346
vn 0.804156 -0.584323 0.092346
vn 0.804156 -0.584323 0.092346
vn 0.804156 -0.584323 0.092346
vn 0.305078 -0.938893 0.148446
vn 0.305078 -0.938893 0.148446
vn 0.305078 -0.938893 0.148446
vn 0.305078 -0.938893 0.148446
vn -0.305078 -0.938893 0.148446
vn -0.305078 -0.938893 0.148446
vn -0.305078 -0.938893 0.148446
vn -0.305078 -0.938893 0.148446
vn -0.804156 -0.584323 0.092346
vn -0.804156 -0.584323 0.092346
vn -0.804156 -0.584323 0.092346
vn -0.804156 -0.584323 0.092346
vn -1.000000 0.000000 0.000000
vn -1.000000 0.000000 0.000000
vn -1.000000 0.000000 0.000000
vn -1.000000 0.000000 0.000000
vn 0.000000 0.000000 1.000000
vn 0.000000 0.000000 1.000000
vn 0.000000 0.000000 1.000000
vn 0.000000 0.000000 1.000000
vn 0.000000 0.000000 1.000000
vn 0.000000 0.000000 1.000000
vn 0.000000 0.000000 1.000000
vn 0.000000 0.000000 1.000000
vn 0.000000 0.000000 1.000000
vn 0.000000 0.000000 1.000000
vn -0.305078 0.938893 -0.148446
vn -0.305078 0.938893 -0.148446
vn -0.305078 0.938893 -0.148446
vn -0.305078 0.938893 -0.148446
vn -0.804156 0.584323 -0.092346
vn -0.804156 0.584323 -0.092346
vn -0.804156 0.584323 -0.092346
vn -0.804156 0.584323 -0.092346
vn 0.000000 0.000000 -1.000000
vn 0.000000 0.000000 -1.000000
vn 0.000000 0.000000 -1.000000
vn 0.000000 0.000000 -1.000000
vn 0.000000 0.000000 -1.000000
vn 0.000000 0.000000 -1.000000
vn 0.000000 0.000000 -1.000000
vn 0.000000 0.000000 -1.000000
vn 0.000000 0.000000 -1.000000
vn 0.000000 0.000000 -1.000000
vn -0.807307 0.586588 -0.028251
vn -0.807307 0.586588 -0.028251
vn -0.807307 0.586588 -0.028251
vn -0.807307 0.586588 -0.028251
vn -0.806443 0.585914 -0.054608
vn -0.806443 0.585914 -0.054608
vn -0.806443 0.585914 -0.054608
vn -0.806443 0.585914 -0.054608
vn -0.308166 0.948457 -0.045721
vn -0.308166 0.948457 -0.045721
vn -0.308166 0.948457 -0.045721
vn -0.308166 0.948457 -0.045721
vn -0.307267 0.945760 -0.088047
vn -0.307267 0.945760 -0.088047
vn -0.307267 0.945760 -0.088047
vn -0.307267 0.945760 -0.088047
vn -1.000000 0.000000 0.000000
vn -1.000000 0.000000 0.000000
vn -1.000000 0.000000 0.000000
vn -1.000000 0.000000 0.000000
vn -0.807307 -0.586588 0.028251
vn -0.807307 -0.586588 0.028251
vn -0.807307 -0.586588 0.028251
vn -0.807307 -0.586588 0.028251
vn -0.806443 -0.585914 0.054608
vn -0.806443 -0.585914 0.054608
vn -0.806443 -0.585914 0.054608
vn -0.806443 -0.585914 0.054608
vn -0.308166 -0.948457 0.045721
vn -0.308166 -0.948457 0.045721
vn -0.308166 -0.948457 0.045721
vn -0.308166 -0.948457 0.045721
vn -0.307267 -0.945760 0.088047
vn -0.307267 -0.945760 0.088047
vn -0.307267 -0.945760 0.088047
vn -0.307267 -0.945760 0.088047
vn 0.308166 -0.948457 0.045721
vn 0.308166 -0.948457 0.045721
vn 0.308166 -0.948457 0.045721
vn 0.308166 -0.948457 0.045721
vn 0.307267 -0.945760 0.088047
vn 0.307267 -0.945760 0.088047
vn 0.307267 -0.945760 0.088047
vn 0.307267 -0.945760 0.088047
vn 0.807307 -0.586588 0.028251
vn 0.807307 -0.586588 0.028251
vn 0.807307 -0.586588 0.028251
vn 0.807307 -0.586588 0.028251
vn 0.806443 -0.585914 0.054608
vn 0.806443 -0.585914 0.054608
vn 0.806443 -0.585914 0.054608
vn 0.806443 -0.585914 0.054608
vn 1.000000 0.000000 0.000000
vn 1.000000 0.000000 0.000000
vn 1.000000 0.000000 0.000000
vn 1.000000 0.000000 0.000000
vn 0.807307 0.586588 -0.028251
vn 0.807307 0.586588 -0.028251
vn 0.807307 0.586588 -0.028251
vn 0.807307 0.586588 -0.028251
vn 0.806443 0.585914 -0.054608
vn 0.806443 0.585914 -0.054608
vn 0.806443 0.585914 -0.054608
vn 0.806443 0.585914 -0.054608
vn 0.308166 0.948457 -0.045721
vn 0.308166 0.948457 -0.045721
vn 0.308166 0.948457 -0.045721
vn 0.308166 0.948457 -0.045721
vn 0.307267 0.945760 -0.088047
vn 0.307267 0.945760 -0.088047
vn 0.307267 0.945760 -0.088047
vn 0.307267 0.945760 -0.088047
vn 0.305078 0.938893 0.148446
vn 0.305078 0.938893 0.148446
vn 0.305078 0.938893 0.148446
vn 0.305078 0.938893 0.148446
vn 0.804156 0.584323 0.092346
vn 0.804156 0.584323 0.092346
vn 0.804156 0.584323 0.092346
vn 0.804156 0.584323 0.092346
vn 1.000000 0.000000 0.000000
vn 1.000000 0.000000 0.000000
vn 1.000000 0.000000 0.000000
vn 1.000000 0.000000 0.000000
vn 0.804156 -0.584323 -0.092346
vn 0.804156 -0.584323 -0.092346
vn 0.804156 -0.584323 -0.092346
vn 0.804156 -0.584323 -0.092346
vn 0.305078 -0.938893 -0.148446
vn 0.305078 -0.938893 -0.148446
vn 0.305078 -0.938893 -0.148446
vn 0.305078 -0.938893 -0.148446
vn -0.305078 -0.938893 -0.148446
vn -0.305078 -0.938893 -0.148446
vn -0.305078 -0.938893 -0.148446
vn -0.305078 -0.938893 -0.148446
vn -0.804156 -0.584323 -0.092346
vn -0.804156 -0.584323 -0.092346
vn -0.804156 -0.584323 -0.092346
vn -0.804156 -0.584323 -0.092346
vn -1.000000 0.000000 0.000000
vn -1.000000 0.000000 0.000000
vn -1.000000 0.000000 0.000000
vn -1.000000 0.000000 0.000000
vn 0.000000 0.000000 -1.000000
vn 0.000000 0.000000 -1.000000
vn 0.000000 0.000000 -1.000000
vn 0.000000 0.000000 -1.000000
vn 0.000000 0.000000 -1.000000
vn 0.000000 0.000000 -1.000000
vn 0.000000 0.000000 -1.000000
vn 0.000000 0.000000 -1.000000
vn 0.000000 0.000000 -1.000000
vn 0.000000 0.000000 -1.000000
vn -0.305078 0.938893 0.148446
vn -0.305078 0.938893 0.148446
vn -0.305078 0.938893 0.148446
vn -0.305078 0.938893 0.148446
vn -0.804156 0.584323 0.092346
vn -0.804156 0.584323 0.092346
vn -0.804156 0.584323 0.092346
vn -0.804156 0.584323 0.092346
vn 0.000000 0.000000 1.000000
vn 0.000000 0.000000 1.000000
vn 0.000000 0.000000 1.000000
vn 0.000000 0.000000 1.000000
vn 0.000000 0.000000 1.000000
vn 0.000000 0.000000 1.000000
vn 0.000000 0.000000 1.000000
vn 0.000000 0.000000 1.000000
vn 0.000000 0.000000 1.000000
vn 0.000000 0.000000 1.000000
vn -0.807307 0.586588 0.028251
vn -0.807307 0.586588 0.028251
vn -0.807307 0.586588 0.028251
vn -0.807307 0.586588 0.028251
vn -0.806443 0.585914 0.054608
vn -0.806443 0.585914 0.054608
vn -0.806443 0.585914 0.054608
vn -0.806443 0.585914 0.054608
vn -0.308166 0.948457 0.045721
vn -0.308166 0.948457 0.045721
vn -0.308166 0.948457 0.045721
vn -0.308166 0.948457 0.045721
vn -0.307267 0.945760 0.088047
vn -0.307267 0.945760 0.088047
vn -0.307267 0.945760 0.088047
vn -0.307267 0.945760 0.088047
vn -1.000000 0.000000 0.000000
vn -1.000000 0.000000 0.000000
vn -1.000000 0.000000 0.000000
vn -1.000000 0.000000 0.000000
vn -0.807307 -0.586588 -0.028251
vn -0.807307 -0.586588 -0.028251
vn -0.807307 -0.586588 -0.028251
vn -0.807307 -0.586588 -0.028251
vn -0.806443 -0.585914 -0.054608
vn -0.806443 -0.585914 -0.054608
vn -0.806443 -0.585914 -0.054608
vn -0.806443 -0.585914 -0.054608
vn -0.308166 -0.948457 -0.045721
vn -0.308166 -0.948457 -0.045721
vn -0.308166 -0.948457 -0.045721
vn -0.308166 -0.948457 -0.045721
vn -0.307267 -0.945760 -0.088047
vn -0.307267 -0.945760 -0.088047
vn -0.307267 -0.945760 -0.088047
vn -0.307267 -0.945760 -0.088047
vn 0.308166 -0.948457 -0.045721
vn 0.308166 -0.948457 -0.045721
vn 0.308166 -0.948457 -0.045721
vn 0.308166 -0.948457 -0.045721
vn 0.307267 -0.945760 -0.088047
vn 0.307267 -0.945760 -0.088047
vn 0.307267 -0.945760 -0.088047
vn 0.307267 -0.945760 -0.088047
vn 0.807307 -0.586588 -0.028251
vn 0.807307 -0.586588 -0.028251
vn 0.807307 -0.586588 -0.028251
vn 0.807307 -0.586588 -0.028251
vn 0.806443 -0.585914 -0.054608
vn 0.806443 -0.585914 -0.054608
vn 0.806443 -0.585914 -0.054608
vn 0.806443 -0.585914 -0.054608
vn 1.000000 0.000000 0.000000
vn 1.000000 0.000000 0.000000
vn 1.000000 0.000000 0.000000
vn 1.000000 0.000000 0.000000
vn 0.807307 0.586588 0.028251
vn 0.807307 0.586588 0.028251
vn 0.807307 0.586588 0.028251
vn 0.807307 0.586588 0.028251
vn 0.806443 0.585914 0.054608
vn 0.806443 0.585914 0.054608
vn 0.806443 0.585914 0.054608
vn 0.806443 0.585914 0.054608
vn 0.308166 0.948457 0.045721
vn 0.308166 0.948457 0.045721
vn 0.308166 0.948457 0.045721
vn 0.308166 0.948457 0.045721
vn 0.307267 0.945760 0.088047
vn 0.307267 0.945760 0.088047
vn 0.307267 0.945760 0.088047
vn 0.307267 0.945760 0.088047
usemtl None
f 1/1/1 2/2/2 3/3/3
f 4/4/4 3/3/3 2/2/2
f 5/5/5 1/6/6 6/7/7
f 3/8/8 6/7/7 1/6/6
f 7/9/9 5/10/10 8/11/11
f 6/12/12 8/11/11 5/10/10
f 9/13/13 7/14/14 10/15/15
f 8/16/16 10/15/15 7/14/14
f 11/17/17 9/18/18 12/19/19
f 10/20/20 12/19/19 9/18/18
f 13/21/21 11/22/22 12/23/23
f 12/23/23 14/24/24 13/21/21
f 15/25/25 13/26/26 14/27/27
f 14/27/27 16/28/28 15/25/25
f 17/29/29 15/30/30 16/31/31
f 16/31/31 18/32/32 17/29/29
f 6/33/33 3/34/34 12/35/35
f 6/33/33 10/36/36 8/37/37
f 10/36/36 6/33/33 12/35/35
f 3/34/34 4/38/38 12/35/35
f 4/38/38 19/39/39 16/40/40
f 4/38/38 16/40/40 14/41/41
f 16/40/40 19/39/39 18/42/42
f 4/38/38 14/41/41 12/35/35
f 2/43/43 20/44/44 19/45/45
f 19/45/45 4/46/46 2/43/43
f 20/47/47 17/48/48 18/49/49
f 18/49/49 19/50/50 20/47/47
f 21/51/51 22/52/52 23/53/53
f 21/51/51 24/54/54 25/55/55
f 24/54/54 21/51/51 23/53/53
f 22/52/52 26/56/56 23/53/53
f 26/56/56 27/57/57 28/58/58
f 26/56/56 28/58/58 29/59/59
f 28/58/58 27/57/57 30/60/60
f 26/56/56 29/59/59 23/53/53
f 21/61/61 25/62/62 31/63/63
f 31/63/63 32/64/64 21/61/61
f 32/65/65 31/66/66 17/67/67
f 17/67/67 20/68/68 32/65/65
f 22/69/69 21/70/70 32/71/71
f 32/71/71 33/72/72 22/69/69
f 33/73/73 32/74/74 20/75/75
f 20/75/75 2/76/76 33/73/73
f 25/77/77 24/78/78 34/79/79
f 34/79/79 31/80/80 25/77/77
f 31/80/80 34/79/79 15/30/30
f 15/30/30 17/29/29 31/80/80
f 24/81/81 23/82/82 35/83/83
f 35/83/83 34/84/84 24/81/81
f 34/85/85 35/86/86 13/87/87
f 13/87/87 15/88/88 34/85/85
f 23/89/89 29/90/90 36/91/91
f 36/91/91 35/92/92 23/89/89
f 35/93/93 36/94/94 11/95/95
f 11/95/95 13/96/96 35/93/93
f 29/97/97 28/98/98 36/99/99
f 37/100/100 36/99/99 28/98/98
f 36/101/101 37/102/102 11/103/103
f 9/104/104 11/103/103 37/102/102
f 28/105/105 30/106/106 37/107/107
f 38/108/108 37/107/107 30/106/106
f 37/109/109 38/110/110 9/111/111
f 7/112/112 9/111/111 38/110/110
f 30/113/113 27/114/114 38/115/115
f 39/116/116 38/115/115 27/114/114
f 38/115/115 39/116/116 7/9/9
f 5/10/10 7/9/9 39/116/116
f 27/117/117 26/118/118 39/119/119
f 40/120/120 39/119/119 26/118/118
f 39/121/121 40/122/122 5/123/123
f 1/124/124 5/123/123 40/122/122
f 26/125/125 22/126/126 40/127/127
f 33/128/128 40/127/127 22/126/126
f 40/129/129 33/130/130 1/131/131
f 2/132/132 1/131/131 33/130/130
f 41/133/133 42/134/134 43/135/135
f 43/135/135 44/136/136 41/133/133
f 45/137/137 41/138/138 44/139/139
f 44/139/139 46/140/140 45/137/137
f 47/141/141 45/142/142 46/143/143
f 46/143/143 48/144/144 47/141/141
f 49/145/145 47/146/146 48/147/147
f 48/147/147 50/148/148 49/145/145
f 51/149/149 49/150/150 50/151/151
f 50/151/151 52/152/152 51/149/149
f 52/153/153 53/154/154 51/155/155
f 54/156/156 51/155/155 53/154/154
f 53/157/157 55/158/158 54/159/159
f 56/160/160 54/159/159 55/158/158
f 55/161/161 57/162/162 56/163/163
f 58/164/164 56/163/163 57/162/162
f 42/165/165 41/166/166 56/167/167
f 42/165/165 58/168/168 59/169/169
f 58/168/168 42/165/165 56/167/167
f 41/166/166 54/170/170 56/167/167
f 45/171/171 47/172/172 51/173/173
f 45/171/171 51/173/173 54/170/170
f 51/173/173 47/172/172 49/174/174
f 45/171/171 54/170/170 41/166/166
f 60/175/175 43/176/176 59/177/177
f 42/178/178 59/177/177 43/176/176
f 57/179/179 60/180/180 58/181/181
f 59/182/182 58/181/181 60/180/180
f 61/183/183 62/184/184 63/185/185
f 61/183/183 64/186/186 65/187/187
f 64/186/186 61/183/183 63/185/185
f 62/184/184 66/188/188 63/185/185
f 66/188/188 67/189/189 68/190/190
f 66/188/188 68/190/190 69/191/191
f 68/190/190 67/189/189 70/192/192
f 66/188/188 69/191/191 63/185/185
f 67/193/193 66/194/194 71/195/195
f 72/196/196 71/195/195 66/194/194
f 71/197/197 72/198/198 57/199/199
f 60/200/200 57/199/199 72/198/198
f 66/201/201 62/202/202 72/203/203
f 73/204/204 72/203/203 62/202/202
f 72/205/205 73/206/206 60/207/207
f 43/208/208 60/207/207 73/206/206
f 70/209/209 67/210/210 74/211/211
f 71/212/212 74/211/211 67/210/210
f 74/211/211 71/212/212 55/161/161
f 57/162/162 55/161/161 71/212/212
f 68/213/213 70/214/214 75/215/215
f 74/216/216 75/215/215 70/214/214
f 75/217/217 74/218/218 53/219/219
f 55/220/220 53/219/219 74/218/218
f 69/221/221 68/222/222 76/223/223
f 75/224/224 76/223/223 68/222/222
f 76/225/225 75/226/226 52/227/227
f 53/228/228 52/227/227 75/226/226
f 76/229/229 77/230/230 63/231/231
f 63/231/231 69/232/232 76/229/229
f 52/233/233 50/234/234 77/235/235
f 77/235/235 76/236/236 52/233/233
f 77/237/237 78/238/238 64/239/239
f 64/239/239 63/240/240 77/237/237
f 50/241/241 48/242/242 78/243/243
f 78/243/243 77/244/244 50/241/241
f 78/245/245 79/246/246 65/247/247
f 65/247/247 64/248/248 78/245/245
f 48/144/144 46/143/143 79/246/246
f 79/246/246 78/245/245 48/144/144
f 79/249/249 80/250/250 61/251/251
f 61/251/251 65/252/252 79/249/249
f 46/253/253 44/254/254 80/255/255
f 80/255/255 79/256/256 46/253/253
f 80/257/257 73/258/258 62/259/259
f 62/259/259 61/260/260 80/257/257
f 44/261/261 43/262/262 73/263/263
f 73/263/263 80/264/264 44/261/261
