mtllib cube.mtl
g objMesh
v -1.000000 0.017774 -1.000000
v 1.000000 0.017774 -1.000000
v 1.000000 0.017774 1.000000
v -1.000000 0.017774 1.000000
v 0.999999 2.017774 1.000001
v 1.000000 2.017774 -0.999999
v -1.000000 2.017774 1.000000
v -1.000000 2.017774 -1.000000
vt 0.666467 0.000200
vt 0.666467 0.333134
vt 0.333533 0.333134
vt 0.333533 0.000200
vt 0.333133 0.000200
vt 0.333134 0.333133
vt 0.000200 0.000200
vt 0.000200 0.333134
vt 0.000200 0.333533
vt 0.333134 0.333533
vt 0.333133 0.666467
vt 0.000200 0.666467
vt 0.000200 0.666866
vt 0.333134 0.666866
vt 0.333133 0.999800
vt 0.000200 0.999800
vt 0.999800 0.333134
vt 0.666867 0.333134
vt 0.666867 0.000200
vt 0.999800 0.000200
vt 0.333533 0.333533
vt 0.666467 0.333533
vt 0.666467 0.666467
vt 0.333533 0.666467
vn 0.000000 -1.000000 0.000000
vn 0.000000 -1.000000 0.000000
vn 0.000000 -1.000000 0.000000
vn 0.000000 -1.000000 0.000000
vn 0.000000 1.000000 0.000000
vn 0.000000 1.000000 0.000000
vn 0.000000 1.000000 0.000000
vn 0.000000 1.000000 0.000000
vn 1.000000 0.000000 0.000000
vn 1.000000 0.000000 0.000000
vn 1.000000 0.000000 0.000000
vn 1.000000 0.000000 0.000000
vn 0.000000 0.000000 1.000000
vn 0.000000 0.000000 1.000000
vn 0.000000 0.000000 1.000000
vn 0.000000 0.000000 1.000000
vn -1.000000 -0.000000 -0.000000
vn -1.000000 -0.000000 -0.000000
vn -1.000000 -0.000000 -0.000000
vn -1.000000 -0.000000 -0.000000
vn 0.000000 0.000000 -1.000000
vn 0.000000 0.000000 -1.000000
vn 0.000000 0.000000 -1.000000
vn 0.000000 0.000000 -1.000000
usemtl Material
f 1/1/1 2/2/2 3/3/3
f 3/3/3 4/4/4 1/1/1
f 5/5/5 6/6/6 7/7/7
f 8/8/8 7/7/7 6/6/6
f 3/9/9 2/10/10 6/11/11
f 6/11/11 5/12/12 3/9/9
f 4/13/13 3/14/14 5/15/15
f 5/15/15 7/16/16 4/13/13
f 1/17/17 4/18/18 7/19/19
f 7/19/19 8/20/20 1/17/17
f 8/21/21 6/22/22 2/23/23
f 2/23/23 1/24/24 8/21/21
