# This file was created with Minddesk Qubicle 3.0
# Get Qubicle at www.getqubicle.com

mtllib 3.mtl

vn 0.0 0.0 1.0
vn 0.0 0.0 -1.0
vn -1.0 0.0 0.0
vn 1.0 0.0 0.0
vn 0.0 1.0 0.0
vn 0.0 -1.0 0.0

v 3.00000 -2.00000 -4.00000
v 3.00000 -5.00000 -4.00000
v -3.00000 -5.00000 -4.00000
v -3.00000 -2.00000 -4.00000
v 3.00000 5.00000 -4.00000
v 3.00000 2.00000 -4.00000
v -3.00000 2.00000 -4.00000
v -3.00000 5.00000 -4.00000
v 3.00000 1.00000 -4.00000
v 3.00000 -1.00000 -4.00000
v -3.00000 -1.00000 -4.00000
v -3.00000 1.00000 -4.00000
v 0.00000 -2.00000 -4.00000
v 0.00000 -1.00000 -4.00000
v 0.00000 1.00000 -4.00000
v 0.00000 2.00000 -4.00000
v -3.00000 -2.00000 0.00000
v -3.00000 -5.00000 0.00000
v 3.00000 -5.00000 0.00000
v 3.00000 -2.00000 0.00000
v -3.00000 5.00000 0.00000
v -3.00000 2.00000 0.00000
v 3.00000 2.00000 0.00000
v 3.00000 5.00000 0.00000
v -3.00000 1.00000 0.00000
v -3.00000 -1.00000 0.00000
v 3.00000 -1.00000 0.00000
v 3.00000 1.00000 0.00000
v 0.00000 -1.00000 0.00000
v 0.00000 -2.00000 0.00000
v 0.00000 2.00000 0.00000
v 0.00000 1.00000 0.00000

vt 0.03125 0.34375
vt 0.03125 0.03125
vt 0.15625 0.03125
vt 0.15625 0.34375
vt 0.21875 0.15625
vt 0.21875 0.03125
vt 0.40625 0.03125
vt 0.40625 0.15625
vt 0.46875 0.15625
vt 0.46875 0.03125
vt 0.65625 0.03125
vt 0.65625 0.15625
vt 0.71875 0.15625
vt 0.71875 0.03125
vt 0.81250 0.03125
vt 0.81250 0.15625
vt 0.87500 0.15625
vt 0.87500 0.03125
vt 0.96875 0.03125
vt 0.96875 0.15625
vt 0.21875 0.34375
vt 0.21875 0.21875
vt 0.31250 0.21875
vt 0.31250 0.34375
vt 0.37500 0.34375
vt 0.37500 0.21875
vt 0.46875 0.21875
vt 0.46875 0.34375
vt 0.53125 0.31250
vt 0.53125 0.21875
vt 0.71875 0.21875
vt 0.71875 0.31250
vt 0.78125 0.31250
vt 0.78125 0.21875
vt 0.96875 0.21875
vt 0.96875 0.31250
vt 0.03125 0.50000
vt 0.03125 0.40625
vt 0.21875 0.40625
vt 0.21875 0.50000
vt 0.28125 0.50000
vt 0.28125 0.40625
vt 0.46875 0.40625
vt 0.46875 0.50000
vt 0.53125 0.50000
vt 0.53125 0.40625
vt 0.65625 0.40625
vt 0.65625 0.50000
vt 0.71875 0.50000
vt 0.71875 0.40625
vt 0.84375 0.40625
vt 0.84375 0.50000
vt 0.03125 0.62500
vt 0.03125 0.56250
vt 0.21875 0.56250
vt 0.21875 0.62500
vt 0.28125 0.62500
vt 0.28125 0.56250
vt 0.46875 0.56250
vt 0.46875 0.62500
vt 0.53125 0.62500
vt 0.53125 0.56250
vt 0.65625 0.56250
vt 0.65625 0.62500
vt 0.71875 0.59375
vt 0.71875 0.56250
vt 0.84375 0.56250
vt 0.84375 0.59375
vt 0.03125 0.71875
vt 0.03125 0.68750
vt 0.15625 0.68750
vt 0.15625 0.71875
vt 0.21875 0.71875
vt 0.21875 0.68750
vt 0.31250 0.68750
vt 0.31250 0.71875
vt 0.37500 0.71875
vt 0.37500 0.68750
vt 0.46875 0.68750
vt 0.46875 0.71875
vt 0.53125 0.71875
vt 0.53125 0.68750
vt 0.62500 0.68750
vt 0.62500 0.71875
vt 0.68750 0.71875
vt 0.68750 0.68750
vt 0.78125 0.68750
vt 0.78125 0.71875

g 3
usemtl 3_Material
f 24/1/4 19/2/4 2/3/4 5/4/4
f 8/5/5 21/6/5 24/7/5 5/8/5
f 18/9/6 3/10/6 2/11/6 19/12/6
f 26/13/6 11/14/6 14/15/6 29/16/6
f 22/17/6 7/18/6 16/19/6 31/20/6
f 12/21/5 25/22/5 32/23/5 15/24/5
f 4/25/5 17/26/5 30/27/5 13/28/5
f 17/29/1 18/30/1 19/31/1 20/32/1
f 21/33/1 22/34/1 23/35/1 24/36/1
f 1/37/2 2/38/2 3/39/2 4/40/2
f 5/41/2 6/42/2 7/43/2 8/44/2
f 4/45/3 3/46/3 18/47/3 17/48/3
f 8/49/3 7/50/3 22/51/3 21/52/3
f 25/53/1 26/54/1 27/55/1 28/56/1
f 9/57/2 10/58/2 11/59/2 12/60/2
f 12/61/3 11/62/3 26/63/3 25/64/3
f 14/65/3 13/66/3 30/67/3 29/68/3
f 16/69/3 15/70/3 32/71/3 31/72/3
f 10/73/2 1/74/2 13/75/2 14/76/2
f 31/77/1 32/78/1 28/79/1 23/80/1
f 29/81/1 30/82/1 20/83/1 27/84/1
f 6/85/2 9/86/2 15/87/2 16/88/2
