# This file was created with Minddesk Qubicle 3.0
# Get Qubicle at www.getqubicle.com

mtllib 5.mtl

vn 0.0 0.0 1.0
vn 0.0 0.0 -1.0
vn -1.0 0.0 0.0
vn 1.0 0.0 0.0
vn 0.0 1.0 0.0
vn 0.0 -1.0 0.0

v 3.00000 -2.00000 -4.00000
v 3.00000 -5.00000 -4.00000
v -3.00000 -5.00000 -4.00000
v -3.00000 -2.00000 -4.00000
v 3.00000 5.00000 -4.00000
v 3.00000 2.00000 -4.00000
v -3.00000 2.00000 -4.00000
v -3.00000 5.00000 -4.00000
v 3.00000 1.00000 -4.00000
v 3.00000 -1.00000 -4.00000
v -3.00000 -1.00000 -4.00000
v -3.00000 1.00000 -4.00000
v 0.00000 2.00000 -4.00000
v 0.00000 1.00000 -4.00000
v 0.00000 -2.00000 -4.00000
v 0.00000 -1.00000 -4.00000
v -3.00000 -2.00000 0.00000
v -3.00000 -5.00000 0.00000
v 3.00000 -5.00000 0.00000
v 3.00000 -2.00000 0.00000
v -3.00000 5.00000 0.00000
v -3.00000 2.00000 0.00000
v 3.00000 2.00000 0.00000
v 3.00000 5.00000 0.00000
v -3.00000 1.00000 0.00000
v -3.00000 -1.00000 0.00000
v 3.00000 -1.00000 0.00000
v 3.00000 1.00000 0.00000
v 0.00000 1.00000 0.00000
v 0.00000 2.00000 0.00000
v 0.00000 -1.00000 0.00000
v 0.00000 -2.00000 0.00000

vt 0.03125 0.21875
vt 0.03125 0.03125
vt 0.15625 0.03125
vt 0.15625 0.21875
vt 0.21875 0.21875
vt 0.21875 0.03125
vt 0.34375 0.03125
vt 0.34375 0.21875
vt 0.40625 0.15625
vt 0.40625 0.03125
vt 0.59375 0.03125
vt 0.59375 0.15625
vt 0.65625 0.15625
vt 0.65625 0.03125
vt 0.84375 0.03125
vt 0.84375 0.15625
vt 0.03125 0.40625
vt 0.03125 0.28125
vt 0.12500 0.28125
vt 0.12500 0.40625
vt 0.18750 0.40625
vt 0.18750 0.28125
vt 0.28125 0.28125
vt 0.28125 0.40625
vt 0.34375 0.40625
vt 0.34375 0.28125
vt 0.43750 0.28125
vt 0.43750 0.40625
vt 0.50000 0.40625
vt 0.50000 0.28125
vt 0.59375 0.28125
vt 0.59375 0.40625
vt 0.65625 0.37500
vt 0.65625 0.28125
vt 0.84375 0.28125
vt 0.84375 0.37500
vt 0.03125 0.56250
vt 0.03125 0.46875
vt 0.21875 0.46875
vt 0.21875 0.56250
vt 0.28125 0.56250
vt 0.28125 0.46875
vt 0.46875 0.46875
vt 0.46875 0.56250
vt 0.53125 0.56250
vt 0.53125 0.46875
vt 0.71875 0.46875
vt 0.71875 0.56250
vt 0.78125 0.56250
vt 0.78125 0.46875
vt 0.90625 0.46875
vt 0.90625 0.56250
vt 0.03125 0.71875
vt 0.03125 0.62500
vt 0.15625 0.62500
vt 0.15625 0.71875
vt 0.21875 0.68750
vt 0.21875 0.62500
vt 0.40625 0.62500
vt 0.40625 0.68750
vt 0.46875 0.68750
vt 0.46875 0.62500
vt 0.65625 0.62500
vt 0.65625 0.68750
vt 0.71875 0.65625
vt 0.71875 0.62500
vt 0.84375 0.62500
vt 0.84375 0.65625
vt 0.03125 0.81250
vt 0.03125 0.78125
vt 0.15625 0.78125
vt 0.15625 0.81250
vt 0.21875 0.81250
vt 0.21875 0.78125
vt 0.31250 0.78125
vt 0.31250 0.81250
vt 0.37500 0.81250
vt 0.37500 0.78125
vt 0.46875 0.78125
vt 0.46875 0.81250
vt 0.53125 0.81250
vt 0.53125 0.78125
vt 0.62500 0.78125
vt 0.62500 0.81250
vt 0.68750 0.81250
vt 0.68750 0.78125
vt 0.78125 0.78125
vt 0.78125 0.81250

g 5
usemtl 5_Material
f 28/1/4 19/2/4 2/3/4 9/4/4
f 8/5/3 11/6/3 26/7/3 21/8/3
f 8/9/5 21/10/5 24/11/5 5/12/5
f 18/13/6 3/14/6 2/15/6 19/16/6
f 30/17/6 13/18/6 6/19/6 23/20/6
f 26/21/6 11/22/6 16/23/6 31/24/6
f 14/25/5 29/26/5 28/27/5 9/28/5
f 4/29/5 17/30/5 32/31/5 15/32/5
f 1/33/2 2/34/2 3/35/2 4/36/2
f 5/37/2 6/38/2 7/39/2 8/40/2
f 17/41/1 18/42/1 19/43/1 20/44/1
f 21/45/1 22/46/1 23/47/1 24/48/1
f 24/49/4 23/50/4 6/51/4 5/52/4
f 4/53/3 3/54/3 18/55/3 17/56/3
f 9/57/2 10/58/2 11/59/2 12/60/2
f 25/61/1 26/62/1 27/63/1 28/64/1
f 30/65/4 29/66/4 14/67/4 13/68/4
f 16/69/3 15/70/3 32/71/3 31/72/3
f 13/73/2 14/74/2 12/75/2 7/76/2
f 31/77/1 32/78/1 20/79/1 27/80/1
f 22/81/1 25/82/1 29/83/1 30/84/1
f 10/85/2 1/86/2 15/87/2 16/88/2
