# This file was created with Minddesk Qubicle 3.0
# Get Qubicle at www.getqubicle.com

mtllib 6.mtl

vn 0.0 0.0 1.0
vn 0.0 0.0 -1.0
vn -1.0 0.0 0.0
vn 1.0 0.0 0.0
vn 0.0 1.0 0.0
vn 0.0 -1.0 0.0

v 3.00000 -3.00000 -4.00000
v 3.00000 -5.00000 -4.00000
v -3.00000 -5.00000 -4.00000
v -3.00000 -3.00000 -4.00000
v 3.00000 1.00000 -4.00000
v 3.00000 -1.00000 -4.00000
v -3.00000 -1.00000 -4.00000
v -3.00000 1.00000 -4.00000
v 3.00000 5.00000 -4.00000
v 3.00000 3.00000 -4.00000
v -3.00000 3.00000 -4.00000
v -3.00000 5.00000 -4.00000
v 0.00000 3.00000 -4.00000
v 0.00000 1.00000 -4.00000
v -1.00000 -1.00000 -4.00000
v -1.00000 -3.00000 -4.00000
v 1.00000 -3.00000 -4.00000
v 1.00000 -1.00000 -4.00000
v -3.00000 -3.00000 0.00000
v -3.00000 -5.00000 0.00000
v 3.00000 -5.00000 0.00000
v 3.00000 -3.00000 0.00000
v -3.00000 1.00000 0.00000
v -3.00000 -1.00000 0.00000
v 3.00000 -1.00000 0.00000
v 3.00000 1.00000 0.00000
v -3.00000 5.00000 0.00000
v -3.00000 3.00000 0.00000
v 3.00000 3.00000 0.00000
v 3.00000 5.00000 0.00000
v 0.00000 1.00000 0.00000
v 0.00000 3.00000 0.00000
v -1.00000 -3.00000 0.00000
v -1.00000 -1.00000 0.00000
v 1.00000 -1.00000 0.00000
v 1.00000 -3.00000 0.00000

vt 0.03125 0.34375
vt 0.03125 0.03125
vt 0.15625 0.03125
vt 0.15625 0.34375
vt 0.21875 0.21875
vt 0.21875 0.03125
vt 0.34375 0.03125
vt 0.34375 0.21875
vt 0.40625 0.15625
vt 0.40625 0.03125
vt 0.59375 0.03125
vt 0.59375 0.15625
vt 0.65625 0.15625
vt 0.65625 0.03125
vt 0.84375 0.03125
vt 0.84375 0.15625
vt 0.03125 0.53125
vt 0.03125 0.40625
vt 0.12500 0.40625
vt 0.12500 0.53125
vt 0.18750 0.53125
vt 0.18750 0.40625
vt 0.28125 0.40625
vt 0.28125 0.53125
vt 0.90625 0.15625
vt 0.90625 0.03125
vt 0.96875 0.03125
vt 0.96875 0.15625
vt 0.34375 0.53125
vt 0.34375 0.40625
vt 0.40625 0.40625
vt 0.40625 0.53125
vt 0.21875 0.34375
vt 0.21875 0.28125
vt 0.40625 0.28125
vt 0.40625 0.34375
vt 0.46875 0.34375
vt 0.46875 0.28125
vt 0.65625 0.28125
vt 0.65625 0.34375
vt 0.71875 0.34375
vt 0.71875 0.28125
vt 0.90625 0.28125
vt 0.90625 0.34375
vt 0.46875 0.46875
vt 0.46875 0.40625
vt 0.65625 0.40625
vt 0.65625 0.46875
vt 0.71875 0.46875
vt 0.71875 0.40625
vt 0.90625 0.40625
vt 0.90625 0.46875
vt 0.03125 0.65625
vt 0.03125 0.59375
vt 0.21875 0.59375
vt 0.21875 0.65625
vt 0.28125 0.65625
vt 0.28125 0.59375
vt 0.40625 0.59375
vt 0.40625 0.65625
vt 0.46875 0.65625
vt 0.46875 0.59375
vt 0.59375 0.59375
vt 0.59375 0.65625
vt 0.65625 0.65625
vt 0.65625 0.59375
vt 0.78125 0.59375
vt 0.78125 0.65625
vt 0.84375 0.65625
vt 0.84375 0.59375
vt 0.96875 0.59375
vt 0.96875 0.65625
vt 0.03125 0.78125
vt 0.03125 0.71875
vt 0.12500 0.71875
vt 0.12500 0.78125
vt 0.18750 0.78125
vt 0.18750 0.71875
vt 0.28125 0.71875
vt 0.28125 0.78125
vt 0.34375 0.78125
vt 0.34375 0.71875
vt 0.40625 0.71875
vt 0.40625 0.78125
vt 0.46875 0.78125
vt 0.46875 0.71875
vt 0.53125 0.71875
vt 0.53125 0.78125
vt 0.59375 0.78125
vt 0.59375 0.71875
vt 0.65625 0.71875
vt 0.65625 0.78125
vt 0.71875 0.78125
vt 0.71875 0.71875
vt 0.78125 0.71875
vt 0.78125 0.78125

g 6
usemtl 6_Material
f 12/1/3 3/2/3 20/3/3 27/4/3
f 26/5/4 21/6/4 2/7/4 5/8/4
f 12/9/5 27/10/5 30/11/5 9/12/5
f 20/13/6 3/14/6 2/15/6 21/16/6
f 32/17/6 13/18/6 10/19/6 29/20/6
f 14/21/5 31/22/5 26/23/5 5/24/5
f 34/25/6 15/26/6 18/27/6 35/28/6
f 16/29/5 33/30/5 36/31/5 17/32/5
f 5/33/2 6/34/2 7/35/2 8/36/2
f 1/37/2 2/38/2 3/39/2 4/40/2
f 27/41/1 28/42/1 29/43/1 30/44/1
f 9/45/2 10/46/2 11/47/2 12/48/2
f 19/49/1 20/50/1 21/51/1 22/52/1
f 23/53/1 24/54/1 25/55/1 26/56/1
f 32/57/4 31/58/4 14/59/4 13/60/4
f 30/61/4 29/62/4 10/63/4 9/64/4
f 34/65/4 33/66/4 16/67/4 15/68/4
f 18/69/3 17/70/3 36/71/3 35/72/3
f 13/73/2 14/74/2 8/75/2 11/76/2
f 28/77/1 23/78/1 31/79/1 32/80/1
f 24/81/1 19/82/1 33/83/1 34/84/1
f 35/85/1 36/86/1 22/87/1 25/88/1
f 15/89/2 16/90/2 4/91/2 7/92/2
f 6/93/2 1/94/2 17/95/2 18/96/2
