# This file was created with Minddesk Qubicle 3.0
# Get Qubicle at www.getqubicle.com

mtllib 7.mtl

vn 0.0 0.0 1.0
vn 0.0 0.0 -1.0
vn -1.0 0.0 0.0
vn 1.0 0.0 0.0
vn 0.0 1.0 0.0
vn 0.0 -1.0 0.0

v 3.00000 2.00000 -4.00000
v 3.00000 -5.00000 -4.00000
v 1.00000 -5.00000 -4.00000
v 1.00000 2.00000 -4.00000
v 3.00000 5.00000 -4.00000
v -3.00000 2.00000 -4.00000
v -3.00000 5.00000 -4.00000
v 1.00000 2.00000 0.00000
v 1.00000 -5.00000 0.00000
v 3.00000 -5.00000 0.00000
v 3.00000 2.00000 0.00000
v -3.00000 5.00000 0.00000
v -3.00000 2.00000 0.00000
v 3.00000 5.00000 0.00000

vt 0.03125 0.34375
vt 0.03125 0.03125
vt 0.15625 0.03125
vt 0.15625 0.34375
vt 0.21875 0.25000
vt 0.21875 0.03125
vt 0.34375 0.03125
vt 0.34375 0.25000
vt 0.40625 0.25000
vt 0.40625 0.03125
vt 0.46875 0.03125
vt 0.46875 0.25000
vt 0.53125 0.25000
vt 0.53125 0.03125
vt 0.59375 0.03125
vt 0.59375 0.25000
vt 0.65625 0.15625
vt 0.65625 0.03125
vt 0.84375 0.03125
vt 0.84375 0.15625
vt 0.03125 0.53125
vt 0.03125 0.40625
vt 0.15625 0.40625
vt 0.15625 0.53125
vt 0.90625 0.15625
vt 0.90625 0.03125
vt 0.96875 0.03125
vt 0.96875 0.15625
vt 0.21875 0.50000
vt 0.21875 0.40625
vt 0.40625 0.40625
vt 0.40625 0.50000
vt 0.46875 0.50000
vt 0.46875 0.40625
vt 0.65625 0.40625
vt 0.65625 0.50000
vt 0.71875 0.50000
vt 0.71875 0.40625
vt 0.84375 0.40625
vt 0.84375 0.50000

g 7
usemtl 7_Material
f 14/1/4 10/2/4 2/3/4 5/4/4
f 4/5/3 3/6/3 9/7/3 8/8/3
f 1/9/2 2/10/2 3/11/2 4/12/2
f 8/13/1 9/14/1 10/15/1 11/16/1
f 7/17/5 12/18/5 14/19/5 5/20/5
f 13/21/6 6/22/6 4/23/6 8/24/6
f 9/25/6 3/26/6 2/27/6 10/28/6
f 5/29/2 1/30/2 6/31/2 7/32/2
f 12/33/1 13/34/1 11/35/1 14/36/1
f 7/37/3 6/38/3 13/39/3 12/40/3
