# This file was created with Minddesk Qubicle 3.0
# Get Qubicle at www.getqubicle.com

mtllib 8.mtl

vn 0.0 0.0 1.0
vn 0.0 0.0 -1.0
vn -1.0 0.0 0.0
vn 1.0 0.0 0.0
vn 0.0 1.0 0.0
vn 0.0 -1.0 0.0

v 3.00000 -3.00000 -4.00000
v 3.00000 -5.00000 -4.00000
v -3.00000 -5.00000 -4.00000
v -3.00000 -3.00000 -4.00000
v 3.00000 5.00000 -4.00000
v 3.00000 3.00000 -4.00000
v -3.00000 3.00000 -4.00000
v -3.00000 5.00000 -4.00000
v -1.00000 3.00000 -4.00000
v -1.00000 1.00000 -4.00000
v -3.00000 1.00000 -4.00000
v 3.00000 1.00000 -4.00000
v 1.00000 1.00000 -4.00000
v 1.00000 3.00000 -4.00000
v 3.00000 -1.00000 -4.00000
v 3.00000 -2.00000 -4.00000
v -3.00000 -2.00000 -4.00000
v -3.00000 -1.00000 -4.00000
v 3.00000 0.00000 -4.00000
v -3.00000 0.00000 -4.00000
v 2.00000 0.00000 -4.00000
v 2.00000 -1.00000 -4.00000
v -2.00000 -1.00000 -4.00000
v -2.00000 0.00000 -4.00000
v -1.00000 -2.00000 -4.00000
v -1.00000 -3.00000 -4.00000
v 1.00000 -3.00000 -4.00000
v 1.00000 -2.00000 -4.00000
v -3.00000 -3.00000 0.00000
v -3.00000 -5.00000 0.00000
v 3.00000 -5.00000 0.00000
v 3.00000 -3.00000 0.00000
v -3.00000 5.00000 0.00000
v -3.00000 3.00000 0.00000
v 3.00000 3.00000 0.00000
v 3.00000 5.00000 0.00000
v -3.00000 1.00000 0.00000
v -1.00000 1.00000 0.00000
v -1.00000 3.00000 0.00000
v 1.00000 3.00000 0.00000
v 1.00000 1.00000 0.00000
v 3.00000 1.00000 0.00000
v -3.00000 -1.00000 0.00000
v -3.00000 -2.00000 0.00000
v 3.00000 -2.00000 0.00000
v 3.00000 -1.00000 0.00000
v -3.00000 0.00000 0.00000
v 3.00000 0.00000 0.00000
v -2.00000 0.00000 0.00000
v -2.00000 -1.00000 0.00000
v 2.00000 -1.00000 0.00000
v 2.00000 0.00000 0.00000
v -1.00000 -3.00000 0.00000
v -1.00000 -2.00000 0.00000
v 1.00000 -2.00000 0.00000
v 1.00000 -3.00000 0.00000

vt 0.01563 0.18750
vt 0.01563 0.03125
vt 0.07813 0.03125
vt 0.07813 0.18750
vt 0.10938 0.18750
vt 0.10938 0.03125
vt 0.17188 0.03125
vt 0.17188 0.18750
vt 0.20313 0.15625
vt 0.20313 0.03125
vt 0.29688 0.03125
vt 0.29688 0.15625
vt 0.32813 0.15625
vt 0.32813 0.03125
vt 0.42188 0.03125
vt 0.42188 0.15625
vt 0.45313 0.15625
vt 0.45313 0.03125
vt 0.51563 0.03125
vt 0.51563 0.15625
vt 0.54688 0.15625
vt 0.54688 0.03125
vt 0.60938 0.03125
vt 0.60938 0.15625
vt 0.64063 0.15625
vt 0.64063 0.03125
vt 0.67188 0.03125
vt 0.67188 0.15625
vt 0.70313 0.15625
vt 0.70313 0.03125
vt 0.73438 0.03125
vt 0.73438 0.15625
vt 0.76563 0.15625
vt 0.76563 0.03125
vt 0.79688 0.03125
vt 0.79688 0.15625
vt 0.82813 0.15625
vt 0.82813 0.03125
vt 0.85938 0.03125
vt 0.85938 0.15625
vt 0.89063 0.15625
vt 0.89063 0.03125
vt 0.90625 0.03125
vt 0.90625 0.15625
vt 0.93750 0.15625
vt 0.93750 0.03125
vt 0.95313 0.03125
vt 0.95313 0.15625
vt 0.01563 0.37500
vt 0.01563 0.25000
vt 0.03125 0.25000
vt 0.03125 0.37500
vt 0.06250 0.37500
vt 0.06250 0.25000
vt 0.07813 0.25000
vt 0.07813 0.37500
vt 0.10938 0.31250
vt 0.10938 0.25000
vt 0.20313 0.25000
vt 0.20313 0.31250
vt 0.23438 0.31250
vt 0.23438 0.25000
vt 0.32813 0.25000
vt 0.32813 0.31250
vt 0.35938 0.31250
vt 0.35938 0.25000
vt 0.45313 0.25000
vt 0.45313 0.31250
vt 0.48438 0.31250
vt 0.48438 0.25000
vt 0.57813 0.25000
vt 0.57813 0.31250
vt 0.60938 0.31250
vt 0.60938 0.25000
vt 0.67188 0.25000
vt 0.67188 0.31250
vt 0.70313 0.31250
vt 0.70313 0.25000
vt 0.76563 0.25000
vt 0.76563 0.31250
vt 0.79688 0.31250
vt 0.79688 0.25000
vt 0.82813 0.25000
vt 0.82813 0.31250
vt 0.85938 0.31250
vt 0.85938 0.25000
vt 0.89063 0.25000
vt 0.89063 0.31250
vt 0.92188 0.31250
vt 0.92188 0.25000
vt 0.95313 0.25000
vt 0.95313 0.31250
vt 0.01563 0.50000
vt 0.01563 0.43750
vt 0.04688 0.43750
vt 0.04688 0.50000
vt 0.07813 0.46875
vt 0.07813 0.43750
vt 0.17188 0.43750
vt 0.17188 0.46875
vt 0.20313 0.46875
vt 0.20313 0.43750
vt 0.29688 0.43750
vt 0.29688 0.46875
vt 0.32813 0.46875
vt 0.32813 0.43750
vt 0.42188 0.43750
vt 0.42188 0.46875
vt 0.45313 0.46875
vt 0.45313 0.43750
vt 0.54688 0.43750
vt 0.54688 0.46875
vt 0.57813 0.46875
vt 0.57813 0.43750
vt 0.64063 0.43750
vt 0.64063 0.46875
vt 0.67188 0.46875
vt 0.67188 0.43750
vt 0.73438 0.43750
vt 0.73438 0.46875
vt 0.76563 0.46875
vt 0.76563 0.43750
vt 0.82813 0.43750
vt 0.82813 0.46875
vt 0.85938 0.46875
vt 0.85938 0.43750
vt 0.92188 0.43750
vt 0.92188 0.46875
vt 0.01563 0.59375
vt 0.01563 0.56250
vt 0.07813 0.56250
vt 0.07813 0.59375
vt 0.10938 0.59375
vt 0.10938 0.56250
vt 0.17188 0.56250
vt 0.17188 0.59375
vt 0.95313 0.46875
vt 0.95313 0.43750
vt 0.98438 0.43750
vt 0.98438 0.46875
vt 0.20313 0.59375
vt 0.20313 0.56250
vt 0.23438 0.56250
vt 0.23438 0.59375
vt 0.26563 0.59375
vt 0.26563 0.56250
vt 0.29688 0.56250
vt 0.29688 0.59375
vt 0.32813 0.59375
vt 0.32813 0.56250
vt 0.35938 0.56250
vt 0.35938 0.59375

g 8
usemtl 8_Material
f 36/1/4 48/2/4 19/3/4 5/4/4
f 8/5/3 20/6/3 47/7/3 33/8/3
f 30/9/6 3/10/6 2/11/6 31/12/6
f 8/13/5 33/14/5 36/15/5 5/16/5
f 18/17/3 3/18/3 30/19/3 43/20/3
f 46/21/4 31/22/4 2/23/4 15/24/4
f 39/25/6 9/26/6 14/27/6 40/28/6
f 54/29/6 25/30/6 28/31/6 55/32/6
f 26/33/5 53/34/5 56/35/5 27/36/5
f 10/37/5 38/38/5 41/39/5 13/40/5
f 47/41/6 20/42/6 24/43/6 49/44/6
f 18/45/5 43/46/5 50/47/5 23/48/5
f 22/49/5 51/50/5 46/51/5 15/52/5
f 52/53/6 21/54/6 19/55/6 48/56/6
f 1/57/2 2/58/2 3/59/2 4/60/2
f 29/61/1 30/62/1 31/63/1 32/64/1
f 33/65/1 34/66/1 35/67/1 36/68/1
f 5/69/2 6/70/2 7/71/2 8/72/2
f 39/73/4 38/74/4 10/75/4 9/76/4
f 14/77/3 13/78/3 41/79/3 40/80/3
f 34/81/1 37/82/1 38/83/1 39/84/1
f 40/85/1 41/86/1 42/87/1 35/88/1
f 9/89/2 10/90/2 11/91/2 7/92/2
f 6/93/2 12/94/2 13/95/2 14/96/2
f 15/97/2 16/98/2 17/99/2 18/100/2
f 12/101/2 19/102/2 20/103/2 11/104/2
f 43/105/1 44/106/1 45/107/1 46/108/1
f 37/109/1 47/110/1 48/111/1 42/112/1
f 24/113/3 23/114/3 50/115/3 49/116/3
f 21/117/2 22/118/2 23/119/2 24/120/2
f 54/121/4 53/122/4 26/123/4 25/124/4
f 49/125/1 50/126/1 51/127/1 52/128/1
f 28/129/3 27/130/3 56/131/3 55/132/3
f 52/133/4 51/134/4 22/135/4 21/136/4
f 44/137/1 29/138/1 53/139/1 54/140/1
f 55/141/1 56/142/1 32/143/1 45/144/1
f 25/145/2 26/146/2 4/147/2 17/148/2
f 16/149/2 1/150/2 27/151/2 28/152/2
