# This file was created with Minddesk Qubicle 3.0
# Get Qubicle at www.getqubicle.com

mtllib Match_P_1.mtl

vn 0.0 0.0 1.0
vn 0.0 0.0 -1.0
vn -1.0 0.0 0.0
vn 1.0 0.0 0.0
vn 0.0 1.0 0.0
vn 0.0 -1.0 0.0

v 1.00000 1.00000 -3.00000
v 1.00000 -1.00000 -3.00000
v -1.00000 -1.00000 -3.00000
v -1.00000 1.00000 -3.00000
v -1.00000 1.00000 -1.00000
v -1.00000 -1.00000 -1.00000
v 1.00000 -1.00000 -1.00000
v 1.00000 1.00000 -1.00000

vt 0.06250 0.37500
vt 0.06250 0.12500
vt 0.18750 0.12500
vt 0.18750 0.37500
vt 0.31250 0.37500
vt 0.31250 0.12500
vt 0.43750 0.12500
vt 0.43750 0.37500
vt 0.56250 0.37500
vt 0.56250 0.12500
vt 0.68750 0.12500
vt 0.68750 0.37500
vt 0.81250 0.37500
vt 0.81250 0.12500
vt 0.93750 0.12500
vt 0.93750 0.37500
vt 0.06250 0.87500
vt 0.06250 0.62500
vt 0.18750 0.62500
vt 0.18750 0.87500
vt 0.31250 0.87500
vt 0.31250 0.62500
vt 0.43750 0.62500
vt 0.43750 0.87500

g Match_P_1
usemtl Match_P_1_Material
f 4/1/3 3/2/3 6/3/3 5/4/3
f 5/5/1 6/6/1 7/7/1 8/8/1
f 1/9/2 2/10/2 3/11/2 4/12/2
f 6/13/6 3/14/6 2/15/6 7/16/6
f 4/17/5 5/18/5 8/19/5 1/20/5
f 8/21/4 7/22/4 2/23/4 1/24/4
