# This file was created with Minddesk Qubicle 3.0
# Get Qubicle at www.getqubicle.com

mtllib Match_P_5.mtl

vn 0.0 0.0 1.0
vn 0.0 0.0 -1.0
vn -1.0 0.0 0.0
vn 1.0 0.0 0.0
vn 0.0 1.0 0.0
vn 0.0 -1.0 0.0

v 6.00000 15.00000 -4.00000
v 6.00000 12.00000 -4.00000
v 3.00000 12.00000 -4.00000
v 3.00000 15.00000 -4.00000
v 15.00000 -12.00000 -4.00000
v 15.00000 -15.00000 -4.00000
v 12.00000 -15.00000 -4.00000
v 12.00000 -12.00000 -4.00000
v -12.00000 -2.00000 -4.00000
v -12.00000 -4.00000 -4.00000
v -15.00000 -4.00000 -4.00000
v -15.00000 -2.00000 -4.00000
v -12.00000 14.00000 -4.00000
v -12.00000 12.00000 -4.00000
v -14.00000 12.00000 -4.00000
v -14.00000 14.00000 -4.00000
v -6.00000 -13.00000 -4.00000
v -6.00000 -15.00000 -4.00000
v -8.00000 -15.00000 -4.00000
v -8.00000 -13.00000 -4.00000
v 1.00000 -12.00000 -4.00000
v 1.00000 -14.00000 -4.00000
v -1.00000 -14.00000 -4.00000
v -1.00000 -12.00000 -4.00000
v 15.00000 2.00000 -4.00000
v 15.00000 0.00000 -4.00000
v 13.00000 0.00000 -4.00000
v 13.00000 2.00000 -4.00000
v -11.00000 0.00000 -4.00000
v -11.00000 -1.00000 -4.00000
v -12.00000 -1.00000 -4.00000
v -12.00000 0.00000 -4.00000
v 2.00000 -9.00000 -4.00000
v 2.00000 -10.00000 -4.00000
v 1.00000 -10.00000 -4.00000
v 1.00000 -9.00000 -4.00000
v 11.00000 -2.00000 -4.00000
v 11.00000 -3.00000 -4.00000
v 10.00000 -3.00000 -4.00000
v 10.00000 -2.00000 -4.00000
v 3.00000 15.00000 0.00000
v 3.00000 12.00000 0.00000
v 6.00000 12.00000 0.00000
v 6.00000 15.00000 0.00000
v 12.00000 -12.00000 0.00000
v 12.00000 -15.00000 0.00000
v 15.00000 -15.00000 0.00000
v 15.00000 -12.00000 0.00000
v -15.00000 -2.00000 0.00000
v -15.00000 -4.00000 0.00000
v -12.00000 -4.00000 0.00000
v -12.00000 -2.00000 0.00000
v -14.00000 14.00000 0.00000
v -14.00000 12.00000 0.00000
v -12.00000 12.00000 0.00000
v -12.00000 14.00000 0.00000
v -8.00000 -13.00000 0.00000
v -8.00000 -15.00000 0.00000
v -6.00000 -15.00000 0.00000
v -6.00000 -13.00000 0.00000
v -1.00000 -12.00000 0.00000
v -1.00000 -14.00000 0.00000
v 1.00000 -14.00000 0.00000
v 1.00000 -12.00000 0.00000
v 13.00000 2.00000 0.00000
v 13.00000 0.00000 0.00000
v 15.00000 0.00000 0.00000
v 15.00000 2.00000 0.00000
v -12.00000 0.00000 0.00000
v -12.00000 -1.00000 0.00000
v -11.00000 -1.00000 0.00000
v -11.00000 0.00000 0.00000
v 1.00000 -9.00000 0.00000
v 1.00000 -10.00000 0.00000
v 2.00000 -10.00000 0.00000
v 2.00000 -9.00000 0.00000
v 10.00000 -2.00000 0.00000
v 10.00000 -3.00000 0.00000
v 11.00000 -3.00000 0.00000
v 11.00000 -2.00000 0.00000

vt 0.01563 0.15625
vt 0.01563 0.03125
vt 0.06250 0.03125
vt 0.06250 0.15625
vt 0.09375 0.15625
vt 0.09375 0.03125
vt 0.14063 0.03125
vt 0.14063 0.15625
vt 0.17188 0.15625
vt 0.17188 0.03125
vt 0.21875 0.03125
vt 0.21875 0.15625
vt 0.25000 0.15625
vt 0.25000 0.03125
vt 0.29688 0.03125
vt 0.29688 0.15625
vt 0.32813 0.15625
vt 0.32813 0.03125
vt 0.37500 0.03125
vt 0.37500 0.15625
vt 0.40625 0.15625
vt 0.40625 0.03125
vt 0.45313 0.03125
vt 0.45313 0.15625
vt 0.48438 0.15625
vt 0.48438 0.03125
vt 0.51563 0.03125
vt 0.51563 0.15625
vt 0.54688 0.15625
vt 0.54688 0.03125
vt 0.57813 0.03125
vt 0.57813 0.15625
vt 0.60938 0.15625
vt 0.60938 0.03125
vt 0.64063 0.03125
vt 0.64063 0.15625
vt 0.67188 0.15625
vt 0.67188 0.03125
vt 0.70313 0.03125
vt 0.70313 0.15625
vt 0.73438 0.15625
vt 0.73438 0.03125
vt 0.76563 0.03125
vt 0.76563 0.15625
vt 0.79688 0.15625
vt 0.79688 0.03125
vt 0.82813 0.03125
vt 0.82813 0.15625
vt 0.85938 0.15625
vt 0.85938 0.03125
vt 0.89063 0.03125
vt 0.89063 0.15625
vt 0.92188 0.15625
vt 0.92188 0.03125
vt 0.95313 0.03125
vt 0.95313 0.15625
vt 0.01563 0.34375
vt 0.01563 0.21875
vt 0.03125 0.21875
vt 0.03125 0.34375
vt 0.06250 0.34375
vt 0.06250 0.21875
vt 0.07813 0.21875
vt 0.07813 0.34375
vt 0.10938 0.34375
vt 0.10938 0.21875
vt 0.12500 0.21875
vt 0.12500 0.34375
vt 0.15625 0.34375
vt 0.15625 0.21875
vt 0.17188 0.21875
vt 0.17188 0.34375
vt 0.20313 0.34375
vt 0.20313 0.21875
vt 0.21875 0.21875
vt 0.21875 0.34375
vt 0.25000 0.34375
vt 0.25000 0.21875
vt 0.26563 0.21875
vt 0.26563 0.34375
vt 0.29688 0.31250
vt 0.29688 0.21875
vt 0.35938 0.21875
vt 0.35938 0.31250
vt 0.39063 0.31250
vt 0.39063 0.21875
vt 0.45313 0.21875
vt 0.45313 0.31250
vt 0.48438 0.31250
vt 0.48438 0.21875
vt 0.54688 0.21875
vt 0.54688 0.31250
vt 0.57813 0.31250
vt 0.57813 0.21875
vt 0.64063 0.21875
vt 0.64063 0.31250
vt 0.67188 0.31250
vt 0.67188 0.21875
vt 0.71875 0.21875
vt 0.71875 0.31250
vt 0.75000 0.31250
vt 0.75000 0.21875
vt 0.79688 0.21875
vt 0.79688 0.31250
vt 0.82813 0.31250
vt 0.82813 0.21875
vt 0.87500 0.21875
vt 0.87500 0.31250
vt 0.90625 0.31250
vt 0.90625 0.21875
vt 0.95313 0.21875
vt 0.95313 0.31250
vt 0.01563 0.46875
vt 0.01563 0.40625
vt 0.07813 0.40625
vt 0.07813 0.46875
vt 0.10938 0.46875
vt 0.10938 0.40625
vt 0.17188 0.40625
vt 0.17188 0.46875
vt 0.20313 0.46875
vt 0.20313 0.40625
vt 0.26563 0.40625
vt 0.26563 0.46875
vt 0.29688 0.46875
vt 0.29688 0.40625
vt 0.35938 0.40625
vt 0.35938 0.46875
vt 0.39063 0.46875
vt 0.39063 0.40625
vt 0.45313 0.40625
vt 0.45313 0.46875
vt 0.48438 0.46875
vt 0.48438 0.40625
vt 0.54688 0.40625
vt 0.54688 0.46875
vt 0.57813 0.46875
vt 0.57813 0.40625
vt 0.64063 0.40625
vt 0.64063 0.46875
vt 0.67188 0.46875
vt 0.67188 0.40625
vt 0.73438 0.40625
vt 0.73438 0.46875
vt 0.76563 0.46875
vt 0.76563 0.40625
vt 0.82813 0.40625
vt 0.82813 0.46875
vt 0.85938 0.46875
vt 0.85938 0.40625
vt 0.92188 0.40625
vt 0.92188 0.46875
vt 0.01563 0.59375
vt 0.01563 0.53125
vt 0.06250 0.53125
vt 0.06250 0.59375
vt 0.09375 0.59375
vt 0.09375 0.53125
vt 0.14063 0.53125
vt 0.14063 0.59375
vt 0.95313 0.46875
vt 0.95313 0.40625
vt 0.98438 0.40625
vt 0.98438 0.46875
vt 0.17188 0.59375
vt 0.17188 0.53125
vt 0.20313 0.53125
vt 0.20313 0.59375
vt 0.23438 0.59375
vt 0.23438 0.53125
vt 0.26563 0.53125
vt 0.26563 0.59375
vt 0.29688 0.59375
vt 0.29688 0.53125
vt 0.32813 0.53125
vt 0.32813 0.59375
vt 0.35938 0.59375
vt 0.35938 0.53125
vt 0.39063 0.53125
vt 0.39063 0.59375
vt 0.42188 0.59375
vt 0.42188 0.53125
vt 0.45313 0.53125
vt 0.45313 0.59375
vt 0.48438 0.59375
vt 0.48438 0.53125
vt 0.51563 0.53125
vt 0.51563 0.59375
vt 0.54688 0.59375
vt 0.54688 0.53125
vt 0.57813 0.53125
vt 0.57813 0.59375
vt 0.60938 0.56250
vt 0.60938 0.53125
vt 0.67188 0.53125
vt 0.67188 0.56250
vt 0.70313 0.56250
vt 0.70313 0.53125
vt 0.76563 0.53125
vt 0.76563 0.56250
vt 0.79688 0.56250
vt 0.79688 0.53125
vt 0.85938 0.53125
vt 0.85938 0.56250
vt 0.89063 0.56250
vt 0.89063 0.53125
vt 0.95313 0.53125
vt 0.95313 0.56250
vt 0.01563 0.68750
vt 0.01563 0.65625
vt 0.07813 0.65625
vt 0.07813 0.68750
vt 0.10938 0.68750
vt 0.10938 0.65625
vt 0.17188 0.65625
vt 0.17188 0.68750
vt 0.20313 0.68750
vt 0.20313 0.65625
vt 0.21875 0.65625
vt 0.21875 0.68750
vt 0.25000 0.68750
vt 0.25000 0.65625
vt 0.26563 0.65625
vt 0.26563 0.68750
vt 0.29688 0.68750
vt 0.29688 0.65625
vt 0.31250 0.65625
vt 0.31250 0.68750
vt 0.34375 0.68750
vt 0.34375 0.65625
vt 0.35938 0.65625
vt 0.35938 0.68750
vt 0.39063 0.68750
vt 0.39063 0.65625
vt 0.40625 0.65625
vt 0.40625 0.68750
vt 0.43750 0.68750
vt 0.43750 0.65625
vt 0.45313 0.65625
vt 0.45313 0.68750

g Match_P_5
usemtl Match_P_5_Material
f 50/1/6 11/2/6 10/3/6 51/4/6
f 42/5/6 3/6/6 2/7/6 43/8/6
f 46/9/6 7/10/6 6/11/6 47/12/6
f 12/13/5 49/14/5 52/15/5 9/16/5
f 4/17/5 41/18/5 44/19/5 1/20/5
f 8/21/5 45/22/5 48/23/5 5/24/5
f 28/25/5 65/26/5 68/27/5 25/28/5
f 16/29/5 53/30/5 56/31/5 13/32/5
f 20/33/5 57/34/5 60/35/5 17/36/5
f 24/37/5 61/38/5 64/39/5 21/40/5
f 58/41/6 19/42/6 18/43/6 59/44/6
f 62/45/6 23/46/6 22/47/6 63/48/6
f 66/49/6 27/50/6 26/51/6 67/52/6
f 54/53/6 15/54/6 14/55/6 55/56/6
f 78/57/6 39/58/6 38/59/6 79/60/6
f 74/61/6 35/62/6 34/63/6 75/64/6
f 70/65/6 31/66/6 30/67/6 71/68/6
f 40/69/5 77/70/5 80/71/5 37/72/5
f 36/73/5 73/74/5 76/75/5 33/76/5
f 32/77/5 69/78/5 72/79/5 29/80/5
f 8/81/3 7/82/3 46/83/3 45/84/3
f 4/85/3 3/86/3 42/87/3 41/88/3
f 44/89/4 43/90/4 2/91/4 1/92/4
f 48/93/4 47/94/4 6/95/4 5/96/4
f 5/97/2 6/98/2 7/99/2 8/100/2
f 1/101/2 2/102/2 3/103/2 4/104/2
f 45/105/1 46/106/1 47/107/1 48/108/1
f 41/109/1 42/110/1 43/111/1 44/112/1
f 24/113/3 23/114/3 62/115/3 61/116/3
f 28/117/3 27/118/3 66/119/3 65/120/3
f 20/121/3 19/122/3 58/123/3 57/124/3
f 16/125/3 15/126/3 54/127/3 53/128/3
f 12/129/3 11/130/3 50/131/3 49/132/3
f 60/133/4 59/134/4 18/135/4 17/136/4
f 56/137/4 55/138/4 14/139/4 13/140/4
f 68/141/4 67/142/4 26/143/4 25/144/4
f 64/145/4 63/146/4 22/147/4 21/148/4
f 52/149/4 51/150/4 10/151/4 9/152/4
f 49/153/1 50/154/1 51/155/1 52/156/1
f 9/157/2 10/158/2 11/159/2 12/160/2
f 61/161/1 62/162/1 63/163/1 64/164/1
f 57/165/1 58/166/1 59/167/1 60/168/1
f 53/169/1 54/170/1 55/171/1 56/172/1
f 65/173/1 66/174/1 67/175/1 68/176/1
f 17/177/2 18/178/2 19/179/2 20/180/2
f 21/181/2 22/182/2 23/183/2 24/184/2
f 25/185/2 26/186/2 27/187/2 28/188/2
f 13/189/2 14/190/2 15/191/2 16/192/2
f 40/193/3 39/194/3 78/195/3 77/196/3
f 36/197/3 35/198/3 74/199/3 73/200/3
f 32/201/3 31/202/3 70/203/3 69/204/3
f 80/205/4 79/206/4 38/207/4 37/208/4
f 76/209/4 75/210/4 34/211/4 33/212/4
f 72/213/4 71/214/4 30/215/4 29/216/4
f 37/217/2 38/218/2 39/219/2 40/220/2
f 73/221/1 74/222/1 75/223/1 76/224/1
f 69/225/1 70/226/1 71/227/1 72/228/1
f 77/229/1 78/230/1 79/231/1 80/232/1
f 29/233/2 30/234/2 31/235/2 32/236/2
f 33/237/2 34/238/2 35/239/2 36/240/2
