# This file was created with Minddesk Qubicle 3.0
# Get Qubicle at www.getqubicle.com

mtllib Yellow_Note_1.mtl

vn 0.0 0.0 1.0
vn 0.0 0.0 -1.0
vn -1.0 0.0 0.0
vn 1.0 0.0 0.0
vn 0.0 1.0 0.0
vn 0.0 -1.0 0.0

v -4.00000 -3.00000 -3.00000
v -4.00000 -6.00000 -3.00000
v -7.00000 -6.00000 -3.00000
v -7.00000 -3.00000 -3.00000
v 1.00000 -3.00000 -3.00000
v 1.00000 -6.00000 -3.00000
v -2.00000 -6.00000 -3.00000
v -2.00000 -3.00000 -3.00000
v 6.00000 3.00000 -3.00000
v 6.00000 0.00000 -3.00000
v 3.00000 0.00000 -3.00000
v 3.00000 3.00000 -3.00000
v -4.00000 0.00000 -3.00000
v -5.00000 -3.00000 -3.00000
v -5.00000 0.00000 -3.00000
v 1.00000 0.00000 -3.00000
v 0.00000 -3.00000 -3.00000
v 0.00000 0.00000 -3.00000
v 6.00000 6.00000 -3.00000
v 5.00000 3.00000 -3.00000
v 5.00000 6.00000 -3.00000
v 1.00000 1.00000 -3.00000
v -5.00000 1.00000 -3.00000
v 8.00000 7.00000 -3.00000
v 8.00000 6.00000 -3.00000
v 5.00000 7.00000 -3.00000
v 9.00000 5.00000 -3.00000
v 9.00000 4.00000 -3.00000
v 7.00000 4.00000 -3.00000
v 7.00000 5.00000 -3.00000
v 8.00000 5.00000 -3.00000
v 7.00000 6.00000 -3.00000
v -7.00000 -3.00000 0.00000
v -7.00000 -6.00000 0.00000
v -4.00000 -6.00000 0.00000
v -4.00000 -3.00000 0.00000
v -2.00000 -3.00000 0.00000
v -2.00000 -6.00000 0.00000
v 1.00000 -6.00000 0.00000
v 1.00000 -3.00000 0.00000
v 3.00000 3.00000 0.00000
v 3.00000 0.00000 0.00000
v 6.00000 0.00000 0.00000
v 6.00000 3.00000 0.00000
v -5.00000 0.00000 -2.00000
v -5.00000 -3.00000 -2.00000
v -4.00000 -3.00000 -2.00000
v -4.00000 0.00000 -2.00000
v 0.00000 0.00000 -2.00000
v 0.00000 -3.00000 -2.00000
v 1.00000 -3.00000 -2.00000
v 1.00000 0.00000 -2.00000
v 5.00000 6.00000 -2.00000
v 5.00000 3.00000 -2.00000
v 6.00000 3.00000 -2.00000
v 6.00000 6.00000 -2.00000
v -5.00000 1.00000 -2.00000
v 1.00000 1.00000 -2.00000
v 5.00000 7.00000 -2.00000
v 8.00000 6.00000 -2.00000
v 8.00000 7.00000 -2.00000
v 7.00000 5.00000 -2.00000
v 7.00000 4.00000 -2.00000
v 9.00000 4.00000 -2.00000
v 9.00000 5.00000 -2.00000
v 7.00000 6.00000 -2.00000
v 8.00000 5.00000 -2.00000
v -7.00000 -3.00000 -2.00000
v -2.00000 -3.00000 -2.00000
v 3.00000 3.00000 -2.00000

vt 0.03125 0.15625
vt 0.03125 0.03125
vt 0.06250 0.03125
vt 0.06250 0.15625
vt 0.12500 0.15625
vt 0.12500 0.03125
vt 0.15625 0.03125
vt 0.15625 0.15625
vt 0.21875 0.15625
vt 0.21875 0.03125
vt 0.25000 0.03125
vt 0.25000 0.15625
vt 0.31250 0.12500
vt 0.31250 0.03125
vt 0.40625 0.03125
vt 0.40625 0.12500
vt 0.46875 0.12500
vt 0.46875 0.03125
vt 0.56250 0.03125
vt 0.56250 0.12500
vt 0.62500 0.12500
vt 0.62500 0.03125
vt 0.71875 0.03125
vt 0.71875 0.12500
vt 0.78125 0.12500
vt 0.78125 0.03125
vt 0.87500 0.03125
vt 0.87500 0.12500
vt 0.03125 0.31250
vt 0.03125 0.21875
vt 0.12500 0.21875
vt 0.12500 0.31250
vt 0.18750 0.31250
vt 0.18750 0.21875
vt 0.28125 0.21875
vt 0.28125 0.31250
vt 0.34375 0.31250
vt 0.34375 0.21875
vt 0.43750 0.21875
vt 0.43750 0.31250
vt 0.50000 0.31250
vt 0.50000 0.21875
vt 0.59375 0.21875
vt 0.59375 0.31250
vt 0.65625 0.31250
vt 0.65625 0.21875
vt 0.75000 0.21875
vt 0.75000 0.31250
vt 0.81250 0.31250
vt 0.81250 0.21875
vt 0.90625 0.21875
vt 0.90625 0.31250
vt 0.03125 0.46875
vt 0.03125 0.37500
vt 0.12500 0.37500
vt 0.12500 0.46875
vt 0.18750 0.46875
vt 0.18750 0.37500
vt 0.28125 0.37500
vt 0.28125 0.46875
vt 0.34375 0.46875
vt 0.34375 0.37500
vt 0.43750 0.37500
vt 0.43750 0.46875
vt 0.50000 0.46875
vt 0.50000 0.37500
vt 0.59375 0.37500
vt 0.59375 0.46875
vt 0.65625 0.46875
vt 0.65625 0.37500
vt 0.75000 0.37500
vt 0.75000 0.46875
vt 0.93750 0.12500
vt 0.93750 0.03125
vt 0.96875 0.03125
vt 0.96875 0.12500
vt 0.81250 0.46875
vt 0.81250 0.37500
vt 0.84375 0.37500
vt 0.84375 0.46875
vt 0.90625 0.46875
vt 0.90625 0.37500
vt 0.93750 0.37500
vt 0.93750 0.46875
vt 0.03125 0.62500
vt 0.03125 0.53125
vt 0.06250 0.53125
vt 0.06250 0.62500
vt 0.12500 0.62500
vt 0.12500 0.53125
vt 0.15625 0.53125
vt 0.15625 0.62500
vt 0.21875 0.62500
vt 0.21875 0.53125
vt 0.25000 0.53125
vt 0.25000 0.62500
vt 0.31250 0.62500
vt 0.31250 0.53125
vt 0.34375 0.53125
vt 0.34375 0.62500
vt 0.40625 0.62500
vt 0.40625 0.53125
vt 0.43750 0.53125
vt 0.43750 0.62500
vt 0.50000 0.62500
vt 0.50000 0.53125
vt 0.53125 0.53125
vt 0.53125 0.62500
vt 0.59375 0.59375
vt 0.59375 0.53125
vt 0.68750 0.53125
vt 0.68750 0.59375
vt 0.75000 0.59375
vt 0.75000 0.53125
vt 0.84375 0.53125
vt 0.84375 0.59375
vt 0.03125 0.75000
vt 0.03125 0.68750
vt 0.12500 0.68750
vt 0.12500 0.75000
vt 0.90625 0.59375
vt 0.90625 0.53125
vt 0.93750 0.53125
vt 0.93750 0.59375
vt 0.18750 0.75000
vt 0.18750 0.68750
vt 0.21875 0.68750
vt 0.21875 0.75000
vt 0.28125 0.71875
vt 0.28125 0.68750
vt 0.46875 0.68750
vt 0.46875 0.71875
vt 0.53125 0.71875
vt 0.53125 0.68750
vt 0.71875 0.68750
vt 0.71875 0.71875
vt 0.78125 0.71875
vt 0.78125 0.68750
vt 0.96875 0.68750
vt 0.96875 0.71875
vt 0.03125 0.84375
vt 0.03125 0.81250
vt 0.15625 0.81250
vt 0.15625 0.84375
vt 0.21875 0.84375
vt 0.21875 0.81250
vt 0.31250 0.81250
vt 0.31250 0.84375
vt 0.37500 0.84375
vt 0.37500 0.81250
vt 0.46875 0.81250
vt 0.46875 0.84375
vt 0.53125 0.84375
vt 0.53125 0.81250
vt 0.62500 0.81250
vt 0.62500 0.84375
vt 0.68750 0.84375
vt 0.68750 0.81250
vt 0.75000 0.81250
vt 0.75000 0.84375
vt 0.81250 0.84375
vt 0.81250 0.81250
vt 0.87500 0.81250
vt 0.87500 0.84375
vt 0.03125 0.93750
vt 0.03125 0.90625
vt 0.09375 0.90625
vt 0.09375 0.93750
vt 0.15625 0.93750
vt 0.15625 0.90625
vt 0.21875 0.90625
vt 0.21875 0.93750
vt 0.28125 0.93750
vt 0.28125 0.90625
vt 0.34375 0.90625
vt 0.34375 0.93750
vt 0.40625 0.93750
vt 0.40625 0.90625
vt 0.46875 0.90625
vt 0.46875 0.93750
vt 0.93750 0.84375
vt 0.93750 0.81250
vt 0.96875 0.81250
vt 0.96875 0.84375
vt 0.53125 0.93750
vt 0.53125 0.90625
vt 0.56250 0.90625
vt 0.56250 0.93750
vt 0.62500 0.93750
vt 0.62500 0.90625
vt 0.65625 0.90625
vt 0.65625 0.93750
vt 0.71875 0.93750
vt 0.71875 0.90625
vt 0.75000 0.90625
vt 0.75000 0.93750
vt 0.81250 0.93750
vt 0.81250 0.90625
vt 0.84375 0.90625
vt 0.84375 0.93750

g Yellow_Note_1
usemtl Yellow_Note_1_Material
f 23/1/3 14/2/3 46/3/3 57/4/3
f 26/5/3 20/6/3 54/7/3 59/8/3
f 58/9/4 51/10/4 5/11/4 22/12/4
f 40/13/4 39/14/4 6/15/4 5/16/4
f 37/17/1 38/18/1 39/19/1 40/20/1
f 41/21/1 42/22/1 43/23/1 44/24/1
f 8/25/3 7/26/3 38/27/3 37/28/3
f 12/29/3 11/30/3 42/31/3 41/32/3
f 44/33/4 43/34/4 10/35/4 9/36/4
f 4/37/3 3/38/3 34/39/3 33/40/3
f 9/41/2 10/42/2 11/43/2 12/44/2
f 42/45/6 11/46/6 10/47/6 43/48/6
f 1/49/2 2/50/2 3/51/2 4/52/2
f 5/53/2 6/54/2 7/55/2 8/56/2
f 38/57/6 7/58/6 6/59/6 39/60/6
f 36/61/4 35/62/4 2/63/4 1/64/4
f 33/65/1 34/66/1 35/67/1 36/68/1
f 34/69/6 3/70/6 2/71/6 35/72/6
f 18/73/3 17/74/3 50/75/3 49/76/3
f 19/77/2 9/78/2 20/79/2 21/80/2
f 16/81/2 5/82/2 17/83/2 18/84/2
f 13/85/2 1/86/2 14/87/2 15/88/2
f 53/89/1 54/90/1 55/91/1 56/92/1
f 49/93/1 50/94/1 51/95/1 52/96/1
f 45/97/1 46/98/1 47/99/1 48/100/1
f 56/101/4 55/102/4 9/103/4 19/104/4
f 48/105/4 47/106/4 1/107/4 13/108/4
f 68/109/5 33/110/5 36/111/5 47/112/5
f 69/113/5 37/114/5 40/115/5 51/116/5
f 70/117/5 41/118/5 44/119/5 55/120/5
f 32/121/3 29/122/3 63/123/3 66/124/3
f 61/125/4 67/126/4 31/127/4 24/128/4
f 22/129/2 16/130/2 15/131/2 23/132/2
f 23/133/5 57/134/5 58/135/5 22/136/5
f 57/137/1 45/138/1 52/139/1 58/140/1
f 48/141/6 13/142/6 18/143/6 49/144/6
f 26/145/5 59/146/5 61/147/5 24/148/5
f 24/149/2 25/150/2 21/151/2 26/152/2
f 59/153/1 53/154/1 60/155/1 61/156/1
f 8/157/5 69/158/5 50/159/5 17/160/5
f 12/161/5 70/162/5 54/163/5 20/164/5
f 63/165/6 29/166/6 28/167/6 64/168/6
f 62/169/1 63/170/1 64/171/1 65/172/1
f 27/173/2 28/174/2 29/175/2 30/176/2
f 4/177/5 68/178/5 46/179/5 14/180/5
f 66/181/1 62/182/1 67/183/1 60/184/1
f 56/185/6 19/186/6 32/187/6 66/188/6
f 65/189/4 64/190/4 28/191/4 27/192/4
f 25/193/2 31/194/2 30/195/2 32/196/2
f 31/197/5 67/198/5 65/199/5 27/200/5
