# This file was created with Minddesk Qubicle 3.0
# Get Qubicle at www.getqubicle.com

mtllib Yellow_Note_3.mtl

vn 0.0 0.0 1.0
vn 0.0 0.0 -1.0
vn -1.0 0.0 0.0
vn 1.0 0.0 0.0
vn 0.0 1.0 0.0
vn 0.0 -1.0 0.0

v 0.00000 -0.50000 -3.00000
v 0.00000 -3.50000 -3.00000
v -3.00000 -3.50000 -3.00000
v -3.00000 -0.50000 -3.00000
v 0.00000 2.50000 -3.00000
v -1.00000 -0.50000 -3.00000
v -1.00000 2.50000 -3.00000
v 2.00000 3.50000 -3.00000
v 2.00000 2.50000 -3.00000
v -1.00000 3.50000 -3.00000
v 3.00000 1.50000 -3.00000
v 3.00000 0.50000 -3.00000
v 1.00000 0.50000 -3.00000
v 1.00000 1.50000 -3.00000
v 2.00000 1.50000 -3.00000
v 1.00000 2.50000 -3.00000
v -3.00000 -0.50000 0.00000
v -3.00000 -3.50000 0.00000
v 0.00000 -3.50000 0.00000
v 0.00000 -0.50000 0.00000
v -1.00000 2.50000 -2.00000
v -1.00000 -0.50000 -2.00000
v 0.00000 -0.50000 -2.00000
v 0.00000 2.50000 -2.00000
v -1.00000 3.50000 -2.00000
v 2.00000 2.50000 -2.00000
v 2.00000 3.50000 -2.00000
v 1.00000 1.50000 -2.00000
v 1.00000 0.50000 -2.00000
v 3.00000 0.50000 -2.00000
v 3.00000 1.50000 -2.00000
v 1.00000 2.50000 -2.00000
v 2.00000 1.50000 -2.00000
v -3.00000 -0.50000 -2.00000

vt 0.03125 0.31250
vt 0.03125 0.06250
vt 0.06250 0.06250
vt 0.06250 0.31250
vt 0.12500 0.25000
vt 0.12500 0.06250
vt 0.21875 0.06250
vt 0.21875 0.25000
vt 0.28125 0.25000
vt 0.28125 0.06250
vt 0.37500 0.06250
vt 0.37500 0.25000
vt 0.43750 0.25000
vt 0.43750 0.06250
vt 0.53125 0.06250
vt 0.53125 0.25000
vt 0.59375 0.25000
vt 0.59375 0.06250
vt 0.68750 0.06250
vt 0.68750 0.25000
vt 0.75000 0.25000
vt 0.75000 0.06250
vt 0.84375 0.06250
vt 0.84375 0.25000
vt 0.90625 0.25000
vt 0.90625 0.06250
vt 0.93750 0.06250
vt 0.93750 0.25000
vt 0.03125 0.62500
vt 0.03125 0.43750
vt 0.06250 0.43750
vt 0.06250 0.62500
vt 0.12500 0.62500
vt 0.12500 0.43750
vt 0.15625 0.43750
vt 0.15625 0.62500
vt 0.21875 0.56250
vt 0.21875 0.43750
vt 0.31250 0.43750
vt 0.31250 0.56250
vt 0.37500 0.56250
vt 0.37500 0.43750
vt 0.40625 0.43750
vt 0.40625 0.56250
vt 0.46875 0.56250
vt 0.46875 0.43750
vt 0.50000 0.43750
vt 0.50000 0.56250
vt 0.56250 0.50000
vt 0.56250 0.43750
vt 0.65625 0.43750
vt 0.65625 0.50000
vt 0.71875 0.50000
vt 0.71875 0.43750
vt 0.81250 0.43750
vt 0.81250 0.50000
vt 0.87500 0.50000
vt 0.87500 0.43750
vt 0.96875 0.43750
vt 0.96875 0.50000
vt 0.03125 0.81250
vt 0.03125 0.75000
vt 0.09375 0.75000
vt 0.09375 0.81250
vt 0.15625 0.81250
vt 0.15625 0.75000
vt 0.21875 0.75000
vt 0.21875 0.81250
vt 0.28125 0.81250
vt 0.28125 0.75000
vt 0.34375 0.75000
vt 0.34375 0.81250
vt 0.40625 0.81250
vt 0.40625 0.75000
vt 0.46875 0.75000
vt 0.46875 0.81250
vt 0.53125 0.81250
vt 0.53125 0.75000
vt 0.56250 0.75000
vt 0.56250 0.81250
vt 0.62500 0.81250
vt 0.62500 0.75000
vt 0.65625 0.75000
vt 0.65625 0.81250
vt 0.71875 0.81250
vt 0.71875 0.75000
vt 0.75000 0.75000
vt 0.75000 0.81250
vt 0.81250 0.81250
vt 0.81250 0.75000
vt 0.84375 0.75000
vt 0.84375 0.81250
vt 0.90625 0.81250
vt 0.90625 0.75000
vt 0.93750 0.75000
vt 0.93750 0.81250

g Yellow_Note_3
usemtl Yellow_Note_3_Material
f 10/1/3 6/2/3 22/3/3 25/4/3
f 20/5/4 19/6/4 2/7/4 1/8/4
f 4/9/3 3/10/3 18/11/3 17/12/3
f 17/13/1 18/14/1 19/15/1 20/16/1
f 18/17/6 3/18/6 2/19/6 19/20/6
f 1/21/2 2/22/2 3/23/2 4/24/2
f 24/25/4 23/26/4 1/27/4 5/28/4
f 5/29/2 1/30/2 6/31/2 7/32/2
f 21/33/1 22/34/1 23/35/1 24/36/1
f 34/37/5 17/38/5 20/39/5 23/40/5
f 16/41/3 13/42/3 29/43/3 32/44/3
f 27/45/4 33/46/4 15/47/4 8/48/4
f 25/49/1 21/50/1 26/51/1 27/52/1
f 10/53/5 25/54/5 27/55/5 8/56/5
f 8/57/2 9/58/2 7/59/2 10/60/2
f 4/61/5 34/62/5 22/63/5 6/64/5
f 29/65/6 13/66/6 12/67/6 30/68/6
f 11/69/2 12/70/2 13/71/2 14/72/2
f 28/73/1 29/74/1 30/75/1 31/76/1
f 9/77/2 15/78/2 14/79/2 16/80/2
f 31/81/4 30/82/4 12/83/4 11/84/4
f 15/85/5 33/86/5 31/87/5 11/88/5
f 32/89/1 28/90/1 33/91/1 26/92/1
f 24/93/6 5/94/6 16/95/6 32/96/6
