# This file was created with Minddesk Qubicle 3.0
# Get Qubicle at www.getqubicle.com

mtllib Black_Cassette.mtl

vn 0.0 0.0 1.0
vn 0.0 0.0 -1.0
vn -1.0 0.0 0.0
vn 1.0 0.0 0.0
vn 0.0 1.0 0.0
vn 0.0 -1.0 0.0

v 14.00000 9.00000 -4.00000
v 14.00000 2.00000 -4.00000
v -14.00000 2.00000 -4.00000
v -14.00000 9.00000 -4.00000
v 9.00000 -5.00000 -5.00000
v 9.00000 -9.00000 -5.00000
v -9.00000 -9.00000 -5.00000
v -9.00000 -5.00000 -5.00000
v 14.00000 -2.00000 -4.00000
v 14.00000 -5.00000 -4.00000
v -14.00000 -5.00000 -4.00000
v -14.00000 -2.00000 -4.00000
v -9.00000 -5.00000 -4.00000
v -9.00000 -9.00000 -4.00000
v -14.00000 -9.00000 -4.00000
v -8.00000 2.00000 -4.00000
v -8.00000 -2.00000 -4.00000
v 8.00000 -2.00000 -4.00000
v 8.00000 2.00000 -4.00000
v 14.00000 -9.00000 -4.00000
v 9.00000 -9.00000 -4.00000
v 9.00000 -5.00000 -4.00000
v 5.00000 1.00000 -3.00000
v 5.00000 -1.00000 -3.00000
v -5.00000 -1.00000 -3.00000
v -5.00000 1.00000 -3.00000
v -7.00000 1.00000 -3.00000
v -7.00000 -1.00000 -3.00000
v -8.00000 -1.00000 -3.00000
v -8.00000 1.00000 -3.00000
v 8.00000 1.00000 -3.00000
v 8.00000 -1.00000 -3.00000
v 7.00000 -1.00000 -3.00000
v 7.00000 1.00000 -3.00000
v 8.00000 -2.00000 -3.00000
v -8.00000 -2.00000 -3.00000
v 8.00000 2.00000 -3.00000
v -8.00000 2.00000 -3.00000
v -14.00000 9.00000 -1.00000
v -14.00000 2.00000 -1.00000
v 14.00000 2.00000 -1.00000
v 14.00000 9.00000 -1.00000
v -14.00000 -2.00000 -1.00000
v -14.00000 -5.00000 -1.00000
v 14.00000 -5.00000 -1.00000
v 14.00000 -2.00000 -1.00000
v -9.00000 -5.00000 0.00000
v -9.00000 -9.00000 0.00000
v 9.00000 -9.00000 0.00000
v 9.00000 -5.00000 0.00000
v -14.00000 -9.00000 -1.00000
v -9.00000 -9.00000 -1.00000
v -9.00000 -5.00000 -1.00000
v -8.00000 -2.00000 -1.00000
v -8.00000 2.00000 -1.00000
v 8.00000 2.00000 -1.00000
v 8.00000 -2.00000 -1.00000
v 9.00000 -5.00000 -1.00000
v 9.00000 -9.00000 -1.00000
v 14.00000 -9.00000 -1.00000
v -5.00000 1.00000 -2.00000
v -5.00000 -1.00000 -2.00000
v 5.00000 -1.00000 -2.00000
v 5.00000 1.00000 -2.00000
v -8.00000 1.00000 -2.00000
v -8.00000 -1.00000 -2.00000
v -7.00000 -1.00000 -2.00000
v -7.00000 1.00000 -2.00000
v 7.00000 1.00000 -2.00000
v 7.00000 -1.00000 -2.00000
v 8.00000 -1.00000 -2.00000
v 8.00000 1.00000 -2.00000
v -8.00000 -2.00000 -2.00000
v 8.00000 -2.00000 -2.00000
v -8.00000 2.00000 -2.00000
v 8.00000 2.00000 -2.00000

vt 0.01563 0.29688
vt 0.01563 0.01563
vt 0.06250 0.01563
vt 0.06250 0.29688
vt 0.09375 0.29688
vt 0.09375 0.01563
vt 0.14063 0.01563
vt 0.14063 0.29688
vt 0.17188 0.12500
vt 0.17188 0.01563
vt 0.60938 0.01563
vt 0.60938 0.12500
vt 0.17188 0.26563
vt 0.17188 0.15625
vt 0.60938 0.15625
vt 0.60938 0.26563
vt 0.64063 0.07813
vt 0.64063 0.01563
vt 0.92188 0.01563
vt 0.92188 0.07813
vt 0.64063 0.21875
vt 0.64063 0.15625
vt 0.92188 0.15625
vt 0.92188 0.21875
vt 0.01563 0.39063
vt 0.01563 0.32813
vt 0.10938 0.32813
vt 0.10938 0.39063
vt 0.14063 0.39063
vt 0.14063 0.32813
vt 0.23438 0.32813
vt 0.23438 0.39063
vt 0.26563 0.39063
vt 0.26563 0.32813
vt 0.35938 0.32813
vt 0.35938 0.39063
vt 0.39063 0.39063
vt 0.39063 0.32813
vt 0.48438 0.32813
vt 0.48438 0.39063
vt 0.51563 0.39063
vt 0.51563 0.32813
vt 0.59375 0.32813
vt 0.59375 0.39063
vt 0.62500 0.39063
vt 0.62500 0.32813
vt 0.70313 0.32813
vt 0.70313 0.39063
vt 0.73438 0.39063
vt 0.73438 0.32813
vt 0.81250 0.32813
vt 0.81250 0.39063
vt 0.84375 0.39063
vt 0.84375 0.32813
vt 0.92188 0.32813
vt 0.92188 0.39063
vt 0.95313 0.07813
vt 0.95313 0.01563
vt 0.96875 0.01563
vt 0.96875 0.07813
vt 0.95313 0.21875
vt 0.95313 0.15625
vt 0.96875 0.15625
vt 0.96875 0.21875
vt 0.95313 0.39063
vt 0.95313 0.32813
vt 0.96875 0.32813
vt 0.96875 0.39063
vt 0.01563 0.48438
vt 0.01563 0.42188
vt 0.03125 0.42188
vt 0.03125 0.48438
vt 0.06250 0.48438
vt 0.06250 0.42188
vt 0.07813 0.42188
vt 0.07813 0.48438
vt 0.10938 0.48438
vt 0.10938 0.42188
vt 0.12500 0.42188
vt 0.12500 0.48438
vt 0.15625 0.48438
vt 0.15625 0.42188
vt 0.17188 0.42188
vt 0.17188 0.48438
vt 0.20313 0.48438
vt 0.20313 0.42188
vt 0.21875 0.42188
vt 0.21875 0.48438
vt 0.25000 0.46875
vt 0.25000 0.42188
vt 0.68750 0.42188
vt 0.68750 0.46875
vt 0.01563 0.56250
vt 0.01563 0.51563
vt 0.45313 0.51563
vt 0.45313 0.56250
vt 0.48438 0.56250
vt 0.48438 0.51563
vt 0.92188 0.51563
vt 0.92188 0.56250
vt 0.01563 0.64063
vt 0.01563 0.59375
vt 0.45313 0.59375
vt 0.45313 0.64063
vt 0.71875 0.45313
vt 0.71875 0.42188
vt 0.87500 0.42188
vt 0.87500 0.45313
vt 0.48438 0.62500
vt 0.48438 0.59375
vt 0.64063 0.59375
vt 0.64063 0.62500
vt 0.90625 0.45313
vt 0.90625 0.42188
vt 0.92188 0.42188
vt 0.92188 0.45313
vt 0.95313 0.45313
vt 0.95313 0.42188
vt 0.96875 0.42188
vt 0.96875 0.45313
vt 0.95313 0.54688
vt 0.95313 0.51563
vt 0.96875 0.51563
vt 0.96875 0.54688
vt 0.67188 0.62500
vt 0.67188 0.59375
vt 0.68750 0.59375
vt 0.68750 0.62500
vt 0.71875 0.62500
vt 0.71875 0.59375
vt 0.73438 0.59375
vt 0.73438 0.62500
vt 0.76563 0.62500
vt 0.76563 0.59375
vt 0.78125 0.59375
vt 0.78125 0.62500
vt 0.81250 0.62500
vt 0.81250 0.59375
vt 0.82813 0.59375
vt 0.82813 0.62500
vt 0.85938 0.62500
vt 0.85938 0.59375
vt 0.87500 0.59375
vt 0.87500 0.62500
vt 0.64063 0.12500
vt 0.64063 0.10938
vt 0.92188 0.10938
vt 0.92188 0.12500
vt 0.64063 0.26563
vt 0.64063 0.25000
vt 0.92188 0.25000
vt 0.92188 0.26563
vt 0.01563 0.68750
vt 0.01563 0.67188
vt 0.29688 0.67188
vt 0.29688 0.68750
vt 0.32813 0.68750
vt 0.32813 0.67188
vt 0.60938 0.67188
vt 0.60938 0.68750
vt 0.64063 0.68750
vt 0.64063 0.67188
vt 0.89063 0.67188
vt 0.89063 0.68750
vt 0.01563 0.73438
vt 0.01563 0.71875
vt 0.26563 0.71875
vt 0.26563 0.73438
vt 0.29688 0.73438
vt 0.29688 0.71875
vt 0.54688 0.71875
vt 0.54688 0.73438
vt 0.57813 0.73438
vt 0.57813 0.71875
vt 0.82813 0.71875
vt 0.82813 0.73438
vt 0.01563 0.78125
vt 0.01563 0.76563
vt 0.26563 0.76563
vt 0.26563 0.78125
vt 0.29688 0.78125
vt 0.29688 0.76563
vt 0.54688 0.76563
vt 0.54688 0.78125
vt 0.57813 0.78125
vt 0.57813 0.76563
vt 0.82813 0.76563
vt 0.82813 0.78125
vt 0.01563 0.82813
vt 0.01563 0.81250
vt 0.26563 0.81250
vt 0.26563 0.82813
vt 0.95313 0.12500
vt 0.95313 0.10938
vt 0.98438 0.10938
vt 0.98438 0.12500
vt 0.95313 0.26563
vt 0.95313 0.25000
vt 0.98438 0.25000
vt 0.98438 0.26563
vt 0.90625 0.60938
vt 0.90625 0.59375
vt 0.93750 0.59375
vt 0.93750 0.60938
vt 0.92188 0.68750
vt 0.92188 0.67188
vt 0.95313 0.67188
vt 0.95313 0.68750

g Black_Cassette
usemtl Black_Cassette_Material
f 42/1/4 60/2/4 20/3/4 1/4/4
f 4/5/3 15/6/3 51/7/3 39/8/3
f 1/9/2 2/10/2 3/11/2 4/12/2
f 39/13/1 40/14/1 41/15/1 42/16/1
f 47/17/1 48/18/1 49/19/1 50/20/1
f 5/21/2 6/22/2 7/23/2 8/24/2
f 56/25/1 57/26/1 46/27/1 41/28/1
f 40/29/1 43/30/1 54/31/1 55/32/1
f 2/33/2 9/34/2 18/35/2 19/36/2
f 16/37/2 17/38/2 12/39/2 3/40/2
f 44/41/1 51/42/1 52/43/1 53/44/1
f 13/45/2 14/46/2 15/47/2 11/48/2
f 10/49/2 20/50/2 21/51/2 22/52/2
f 58/53/1 59/54/1 60/55/1 45/56/1
f 53/57/3 52/58/3 48/59/3 47/60/3
f 22/61/4 21/62/4 6/63/4 5/64/4
f 8/65/3 7/66/3 14/67/3 13/68/3
f 19/69/3 18/70/3 35/71/3 37/72/3
f 76/73/3 74/74/3 57/75/3 56/76/3
f 50/77/4 49/78/4 59/79/4 58/80/4
f 55/81/4 54/82/4 73/83/4 75/84/4
f 38/85/4 36/86/4 17/87/4 16/88/4
f 43/89/1 44/90/1 45/91/1 46/92/1
f 9/93/2 10/94/2 11/95/2 12/96/2
f 4/97/5 39/98/5 42/99/5 1/100/5
f 51/101/6 15/102/6 20/103/6 60/104/6
f 61/105/1 62/106/1 63/107/1 64/108/1
f 23/109/2 24/110/2 25/111/2 26/112/2
f 65/113/1 66/114/1 67/115/1 68/116/1
f 27/117/2 28/118/2 29/119/2 30/120/2
f 31/121/2 32/122/2 33/123/2 34/124/2
f 68/125/4 67/126/4 28/127/4 27/128/4
f 64/129/4 63/130/4 24/131/4 23/132/4
f 26/133/3 25/134/3 62/135/3 61/136/3
f 69/137/1 70/138/1 71/139/1 72/140/1
f 34/141/3 33/142/3 70/143/3 69/144/3
f 8/145/5 13/146/5 22/147/5 5/148/5
f 53/149/5 47/150/5 50/151/5 58/152/5
f 48/153/6 52/154/6 59/155/6 49/156/6
f 14/157/6 7/158/6 6/159/6 21/160/6
f 55/161/6 75/162/6 76/163/6 56/164/6
f 38/165/6 16/166/6 19/167/6 37/168/6
f 17/169/5 36/170/5 35/171/5 18/172/5
f 73/173/5 54/174/5 57/175/5 74/176/5
f 75/177/1 65/178/1 72/179/1 76/180/1
f 66/181/1 73/182/1 74/183/1 71/184/1
f 37/185/2 31/186/2 30/187/2 38/188/2
f 32/189/2 35/190/2 36/191/2 29/192/2
f 68/193/6 27/194/6 26/195/6 61/196/6
f 64/197/6 23/198/6 34/199/6 69/200/6
f 24/201/5 63/202/5 70/203/5 33/204/5
f 28/205/5 67/206/5 62/207/5 25/208/5
