# This file was created with Minddesk Qubicle 3.0
# Get Qubicle at www.getqubicle.com

mtllib Grey_Cassette.mtl

vn 0.0 0.0 1.0
vn 0.0 0.0 -1.0
vn -1.0 0.0 0.0
vn 1.0 0.0 0.0
vn 0.0 1.0 0.0
vn 0.0 -1.0 0.0

v 14.00000 9.00000 -4.00000
v 14.00000 2.00000 -4.00000
v -14.00000 2.00000 -4.00000
v -14.00000 9.00000 -4.00000
v 9.00000 -5.00000 -5.00000
v 9.00000 -9.00000 -5.00000
v -9.00000 -9.00000 -5.00000
v -9.00000 -5.00000 -5.00000
v 14.00000 -2.00000 -4.00000
v 14.00000 -5.00000 -4.00000
v -14.00000 -5.00000 -4.00000
v -14.00000 -2.00000 -4.00000
v 8.00000 2.00000 -3.00000
v 8.00000 -2.00000 -3.00000
v -8.00000 -2.00000 -3.00000
v -8.00000 2.00000 -3.00000
v -9.00000 -5.00000 -4.00000
v -9.00000 -9.00000 -4.00000
v -14.00000 -9.00000 -4.00000
v -8.00000 2.00000 -4.00000
v -8.00000 -2.00000 -4.00000
v 8.00000 -2.00000 -4.00000
v 8.00000 2.00000 -4.00000
v 14.00000 -9.00000 -4.00000
v 9.00000 -9.00000 -4.00000
v 9.00000 -5.00000 -4.00000
v -14.00000 9.00000 -1.00000
v -14.00000 2.00000 -1.00000
v 14.00000 2.00000 -1.00000
v 14.00000 9.00000 -1.00000
v -14.00000 -2.00000 -1.00000
v -14.00000 -5.00000 -1.00000
v 14.00000 -5.00000 -1.00000
v 14.00000 -2.00000 -1.00000
v -9.00000 -5.00000 0.00000
v -9.00000 -9.00000 0.00000
v 9.00000 -9.00000 0.00000
v 9.00000 -5.00000 0.00000
v -8.00000 2.00000 -2.00000
v -8.00000 -2.00000 -2.00000
v 8.00000 -2.00000 -2.00000
v 8.00000 2.00000 -2.00000
v -14.00000 -9.00000 -1.00000
v -9.00000 -9.00000 -1.00000
v -9.00000 -5.00000 -1.00000
v -8.00000 -2.00000 -1.00000
v -8.00000 2.00000 -1.00000
v 8.00000 2.00000 -1.00000
v 8.00000 -2.00000 -1.00000
v 9.00000 -5.00000 -1.00000
v 9.00000 -9.00000 -1.00000
v 14.00000 -9.00000 -1.00000

vt 0.01563 0.29688
vt 0.01563 0.01563
vt 0.06250 0.01563
vt 0.06250 0.29688
vt 0.09375 0.29688
vt 0.09375 0.01563
vt 0.14063 0.01563
vt 0.14063 0.29688
vt 0.17188 0.12500
vt 0.17188 0.01563
vt 0.60938 0.01563
vt 0.60938 0.12500
vt 0.17188 0.26563
vt 0.17188 0.15625
vt 0.60938 0.15625
vt 0.60938 0.26563
vt 0.64063 0.07813
vt 0.64063 0.01563
vt 0.92188 0.01563
vt 0.92188 0.07813
vt 0.64063 0.21875
vt 0.64063 0.15625
vt 0.92188 0.15625
vt 0.92188 0.21875
vt 0.01563 0.39063
vt 0.01563 0.32813
vt 0.26563 0.32813
vt 0.26563 0.39063
vt 0.29688 0.39063
vt 0.29688 0.32813
vt 0.54688 0.32813
vt 0.54688 0.39063
vt 0.57813 0.39063
vt 0.57813 0.32813
vt 0.67188 0.32813
vt 0.67188 0.39063
vt 0.70313 0.39063
vt 0.70313 0.32813
vt 0.79688 0.32813
vt 0.79688 0.39063
vt 0.82813 0.39063
vt 0.82813 0.32813
vt 0.92188 0.32813
vt 0.92188 0.39063
vt 0.01563 0.48438
vt 0.01563 0.42188
vt 0.10938 0.42188
vt 0.10938 0.48438
vt 0.14063 0.48438
vt 0.14063 0.42188
vt 0.21875 0.42188
vt 0.21875 0.48438
vt 0.25000 0.48438
vt 0.25000 0.42188
vt 0.32813 0.42188
vt 0.32813 0.48438
vt 0.35938 0.48438
vt 0.35938 0.42188
vt 0.43750 0.42188
vt 0.43750 0.48438
vt 0.46875 0.48438
vt 0.46875 0.42188
vt 0.54688 0.42188
vt 0.54688 0.48438
vt 0.95313 0.07813
vt 0.95313 0.01563
vt 0.96875 0.01563
vt 0.96875 0.07813
vt 0.95313 0.21875
vt 0.95313 0.15625
vt 0.96875 0.15625
vt 0.96875 0.21875
vt 0.95313 0.39063
vt 0.95313 0.32813
vt 0.96875 0.32813
vt 0.96875 0.39063
vt 0.57813 0.48438
vt 0.57813 0.42188
vt 0.59375 0.42188
vt 0.59375 0.48438
vt 0.62500 0.48438
vt 0.62500 0.42188
vt 0.64063 0.42188
vt 0.64063 0.48438
vt 0.67188 0.48438
vt 0.67188 0.42188
vt 0.68750 0.42188
vt 0.68750 0.48438
vt 0.71875 0.48438
vt 0.71875 0.42188
vt 0.73438 0.42188
vt 0.73438 0.48438
vt 0.76563 0.48438
vt 0.76563 0.42188
vt 0.78125 0.42188
vt 0.78125 0.48438
vt 0.01563 0.56250
vt 0.01563 0.51563
vt 0.45313 0.51563
vt 0.45313 0.56250
vt 0.48438 0.56250
vt 0.48438 0.51563
vt 0.92188 0.51563
vt 0.92188 0.56250
vt 0.01563 0.64063
vt 0.01563 0.59375
vt 0.45313 0.59375
vt 0.45313 0.64063
vt 0.48438 0.64063
vt 0.48438 0.59375
vt 0.92188 0.59375
vt 0.92188 0.64063
vt 0.64063 0.12500
vt 0.64063 0.10938
vt 0.92188 0.10938
vt 0.92188 0.12500
vt 0.64063 0.26563
vt 0.64063 0.25000
vt 0.92188 0.25000
vt 0.92188 0.26563
vt 0.01563 0.68750
vt 0.01563 0.67188
vt 0.29688 0.67188
vt 0.29688 0.68750
vt 0.32813 0.68750
vt 0.32813 0.67188
vt 0.60938 0.67188
vt 0.60938 0.68750
vt 0.64063 0.68750
vt 0.64063 0.67188
vt 0.89063 0.67188
vt 0.89063 0.68750
vt 0.01563 0.73438
vt 0.01563 0.71875
vt 0.26563 0.71875
vt 0.26563 0.73438
vt 0.29688 0.73438
vt 0.29688 0.71875
vt 0.54688 0.71875
vt 0.54688 0.73438
vt 0.57813 0.73438
vt 0.57813 0.71875
vt 0.82813 0.71875
vt 0.82813 0.73438

g Grey_Cassette
usemtl Grey_Cassette_Material
f 30/1/4 52/2/4 24/3/4 1/4/4
f 4/5/3 19/6/3 43/7/3 27/8/3
f 27/9/1 28/10/1 29/11/1 30/12/1
f 1/13/2 2/14/2 3/15/2 4/16/2
f 35/17/1 36/18/1 37/19/1 38/20/1
f 5/21/2 6/22/2 7/23/2 8/24/2
f 39/25/1 40/26/1 41/27/1 42/28/1
f 13/29/2 14/30/2 15/31/2 16/32/2
f 28/33/1 31/34/1 46/35/1 47/36/1
f 48/37/1 49/38/1 34/39/1 29/40/1
f 20/41/2 21/42/2 12/43/2 3/44/2
f 2/45/2 9/46/2 22/47/2 23/48/2
f 10/49/2 24/50/2 25/51/2 26/52/2
f 50/53/1 51/54/1 52/55/1 33/56/1
f 32/57/1 43/58/1 44/59/1 45/60/1
f 17/61/2 18/62/2 19/63/2 11/64/2
f 8/65/3 7/66/3 18/67/3 17/68/3
f 23/69/3 22/70/3 14/71/3 13/72/3
f 16/73/4 15/74/4 21/75/4 20/76/4
f 47/77/4 46/78/4 40/79/4 39/80/4
f 38/81/4 37/82/4 51/83/4 50/84/4
f 42/85/3 41/86/3 49/87/3 48/88/3
f 45/89/3 44/90/3 36/91/3 35/92/3
f 26/93/4 25/94/4 6/95/4 5/96/4
f 31/97/1 32/98/1 33/99/1 34/100/1
f 43/101/6 19/102/6 24/103/6 52/104/6
f 4/105/5 27/106/5 30/107/5 1/108/5
f 9/109/2 10/110/2 11/111/2 12/112/2
f 18/113/6 7/114/6 6/115/6 25/116/6
f 36/117/6 44/118/6 51/119/6 37/120/6
f 45/121/5 35/122/5 38/123/5 50/124/5
f 8/125/5 17/126/5 26/127/5 5/128/5
f 16/129/6 20/130/6 23/131/6 13/132/6
f 47/133/6 39/134/6 42/135/6 48/136/6
f 21/137/5 15/138/5 14/139/5 22/140/5
f 40/141/5 46/142/5 49/143/5 41/144/5
