# This file was created with Minddesk Qubicle 3.0
# Get Qubicle at www.getqubicle.com

mtllib Head_1.mtl

vn 0.0 0.0 1.0
vn 0.0 0.0 -1.0
vn -1.0 0.0 0.0
vn 1.0 0.0 0.0
vn 0.0 1.0 0.0
vn 0.0 -1.0 0.0

v 8.50000 3.50000 -13.00000
v 8.50000 -5.50000 -13.00000
v -8.50000 -5.50000 -13.00000
v -8.50000 3.50000 -13.00000
v 4.50000 7.50000 -10.00000
v 4.50000 4.50000 -10.00000
v -4.50000 4.50000 -10.00000
v -4.50000 7.50000 -10.00000
v -8.50000 -2.50000 -9.00000
v -8.50000 -5.50000 -9.00000
v -10.50000 -5.50000 -9.00000
v -10.50000 -2.50000 -9.00000
v 10.50000 -2.50000 -9.00000
v 10.50000 -5.50000 -9.00000
v 8.50000 -5.50000 -9.00000
v 8.50000 -2.50000 -9.00000
v -4.50000 -5.50000 -9.00000
v -4.50000 -7.50000 -9.00000
v -10.50000 -7.50000 -9.00000
v 10.50000 -7.50000 -9.00000
v 4.50000 -7.50000 -9.00000
v 4.50000 -5.50000 -9.00000
v 4.50000 4.50000 -14.00000
v 4.50000 3.50000 -14.00000
v -4.50000 3.50000 -14.00000
v -4.50000 4.50000 -14.00000
v 4.50000 0.50000 -7.00000
v 4.50000 -0.50000 -7.00000
v -4.50000 -0.50000 -7.00000
v -4.50000 0.50000 -7.00000
v -4.50000 4.50000 -4.00000
v -4.50000 3.50000 -4.00000
v -5.50000 3.50000 -4.00000
v -5.50000 4.50000 -4.00000
v -10.50000 -2.50000 0.00000
v -10.50000 -7.50000 0.00000
v -4.50000 -7.50000 0.00000
v -4.50000 -2.50000 0.00000
v 4.50000 -2.50000 0.00000
v 4.50000 -7.50000 0.00000
v 10.50000 -7.50000 0.00000
v 10.50000 -2.50000 0.00000
v 4.50000 3.50000 -2.00000
v 4.50000 -2.50000 -2.00000
v 8.50000 -2.50000 -2.00000
v 8.50000 3.50000 -2.00000
v -4.50000 7.50000 -2.00000
v -4.50000 4.50000 -2.00000
v 4.50000 4.50000 -2.00000
v 4.50000 7.50000 -2.00000
v -4.50000 -1.50000 -1.00000
v -4.50000 -4.50000 -1.00000
v 4.50000 -4.50000 -1.00000
v 4.50000 -1.50000 -1.00000
v -1.50000 3.50000 -1.00000
v -1.50000 0.50000 -1.00000
v 4.50000 0.50000 -1.00000
v 4.50000 3.50000 -1.00000
v -8.50000 0.50000 -2.00000
v -8.50000 -2.50000 -2.00000
v -4.50000 -2.50000 -2.00000
v -4.50000 0.50000 -2.00000
v -8.50000 3.50000 -2.00000
v -5.50000 0.50000 -2.00000
v -5.50000 3.50000 -2.00000
v -5.50000 4.50000 0.00000
v -5.50000 0.50000 0.00000
v -1.50000 0.50000 0.00000
v -1.50000 4.50000 0.00000
v -4.50000 0.50000 -1.00000
v -0.50000 -1.50000 -1.00000
v -0.50000 0.50000 -1.00000
v 0.50000 0.50000 -1.00000
v 0.50000 -1.50000 -1.00000
v -0.50000 0.50000 0.00000
v -0.50000 -1.50000 0.00000
v 0.50000 -1.50000 0.00000
v 0.50000 0.50000 0.00000
v -4.50000 -4.50000 -9.00000
v 4.50000 -4.50000 -9.00000
v -4.50000 0.50000 -8.00000
v -4.50000 -0.50000 -8.00000
v 4.50000 -0.50000 -8.00000
v 4.50000 0.50000 -8.00000
v -1.50000 4.50000 -2.00000
v -1.50000 3.50000 -2.00000
v -8.50000 -2.50000 -13.00000
v 4.50000 -4.50000 0.00000
v -5.50000 3.50000 0.00000
v -4.50000 -2.50000 -1.00000
v 4.50000 -2.50000 -1.00000
v 8.50000 -2.50000 -13.00000
v -4.50000 -4.50000 0.00000
v -1.50000 3.50000 0.00000
v -8.50000 3.50000 -4.00000
v -4.50000 3.50000 -13.00000
v 4.50000 3.50000 -13.00000
v -10.50000 -2.50000 -2.00000
v 10.50000 -2.50000 -2.00000
v -5.50000 4.50000 -2.00000
v -5.50000 0.50000 -1.00000

vt 0.01563 0.18750
vt 0.01563 0.01563
vt 0.07813 0.01563
vt 0.07813 0.18750
vt 0.10938 0.15625
vt 0.10938 0.01563
vt 0.37500 0.01563
vt 0.37500 0.15625
vt 0.40625 0.15625
vt 0.40625 0.01563
vt 0.50000 0.01563
vt 0.50000 0.15625
vt 0.53125 0.15625
vt 0.53125 0.01563
vt 0.62500 0.01563
vt 0.62500 0.15625
vt 0.65625 0.15625
vt 0.65625 0.01563
vt 0.71875 0.01563
vt 0.71875 0.15625
vt 0.75000 0.14063
vt 0.75000 0.01563
vt 0.89063 0.01563
vt 0.89063 0.14063
vt 0.01563 0.34375
vt 0.01563 0.21875
vt 0.15625 0.21875
vt 0.15625 0.34375
vt 0.92188 0.12500
vt 0.92188 0.01563
vt 0.95313 0.01563
vt 0.95313 0.12500
vt 0.18750 0.32813
vt 0.18750 0.21875
vt 0.21875 0.21875
vt 0.21875 0.32813
vt 0.25000 0.31250
vt 0.25000 0.21875
vt 0.42188 0.21875
vt 0.42188 0.31250
vt 0.45313 0.31250
vt 0.45313 0.21875
vt 0.62500 0.21875
vt 0.62500 0.31250
vt 0.65625 0.31250
vt 0.65625 0.21875
vt 0.71875 0.21875
vt 0.71875 0.31250
vt 0.75000 0.31250
vt 0.75000 0.21875
vt 0.76563 0.21875
vt 0.76563 0.31250
vt 0.79688 0.29688
vt 0.79688 0.21875
vt 0.93750 0.21875
vt 0.93750 0.29688
vt 0.01563 0.45313
vt 0.01563 0.37500
vt 0.15625 0.37500
vt 0.15625 0.45313
vt 0.18750 0.45313
vt 0.18750 0.37500
vt 0.28125 0.37500
vt 0.28125 0.45313
vt 0.31250 0.45313
vt 0.31250 0.37500
vt 0.40625 0.37500
vt 0.40625 0.45313
vt 0.43750 0.43750
vt 0.43750 0.37500
vt 0.70313 0.37500
vt 0.70313 0.43750
vt 0.73438 0.43750
vt 0.73438 0.37500
vt 0.87500 0.37500
vt 0.87500 0.43750
vt 0.90625 0.43750
vt 0.90625 0.37500
vt 0.96875 0.37500
vt 0.96875 0.43750
vt 0.01563 0.53125
vt 0.01563 0.48438
vt 0.15625 0.48438
vt 0.15625 0.53125
vt 0.18750 0.53125
vt 0.18750 0.48438
vt 0.32813 0.48438
vt 0.32813 0.53125
vt 0.35938 0.53125
vt 0.35938 0.48438
vt 0.50000 0.48438
vt 0.50000 0.53125
vt 0.53125 0.53125
vt 0.53125 0.48438
vt 0.67188 0.48438
vt 0.67188 0.53125
vt 0.70313 0.53125
vt 0.70313 0.48438
vt 0.84375 0.48438
vt 0.84375 0.53125
vt 0.01563 0.60938
vt 0.01563 0.56250
vt 0.14063 0.56250
vt 0.14063 0.60938
vt 0.17188 0.60938
vt 0.17188 0.56250
vt 0.29688 0.56250
vt 0.29688 0.60938
vt 0.87500 0.53125
vt 0.87500 0.48438
vt 0.96875 0.48438
vt 0.96875 0.53125
vt 0.32813 0.60938
vt 0.32813 0.56250
vt 0.39063 0.56250
vt 0.39063 0.60938
vt 0.42188 0.60938
vt 0.42188 0.56250
vt 0.48438 0.56250
vt 0.48438 0.60938
vt 0.51563 0.60938
vt 0.51563 0.56250
vt 0.57813 0.56250
vt 0.57813 0.60938
vt 0.60938 0.60938
vt 0.60938 0.56250
vt 0.65625 0.56250
vt 0.65625 0.60938
vt 0.68750 0.60938
vt 0.68750 0.56250
vt 0.71875 0.56250
vt 0.71875 0.60938
vt 0.75000 0.60938
vt 0.75000 0.56250
vt 0.78125 0.56250
vt 0.78125 0.60938
vt 0.81250 0.60938
vt 0.81250 0.56250
vt 0.84375 0.56250
vt 0.84375 0.60938
vt 0.96875 0.26563
vt 0.96875 0.21875
vt 0.98438 0.21875
vt 0.98438 0.26563
vt 0.87500 0.60938
vt 0.87500 0.56250
vt 0.89063 0.56250
vt 0.89063 0.60938
vt 0.01563 0.67188
vt 0.01563 0.64063
vt 0.10938 0.64063
vt 0.10938 0.67188
vt 0.14063 0.67188
vt 0.14063 0.64063
vt 0.23438 0.64063
vt 0.23438 0.67188
vt 0.26563 0.67188
vt 0.26563 0.64063
vt 0.35938 0.64063
vt 0.35938 0.67188
vt 0.39063 0.67188
vt 0.39063 0.64063
vt 0.48438 0.64063
vt 0.48438 0.67188
vt 0.92188 0.59375
vt 0.92188 0.56250
vt 0.98438 0.56250
vt 0.98438 0.59375
vt 0.51563 0.67188
vt 0.51563 0.64063
vt 0.57813 0.64063
vt 0.57813 0.67188
vt 0.60938 0.67188
vt 0.60938 0.64063
vt 0.67188 0.64063
vt 0.67188 0.67188
vt 0.70313 0.67188
vt 0.70313 0.64063
vt 0.75000 0.64063
vt 0.75000 0.67188
vt 0.78125 0.67188
vt 0.78125 0.64063
vt 0.79688 0.64063
vt 0.79688 0.67188
vt 0.82813 0.67188
vt 0.82813 0.64063
vt 0.84375 0.64063
vt 0.84375 0.67188
vt 0.87500 0.67188
vt 0.87500 0.64063
vt 0.89063 0.64063
vt 0.89063 0.67188
vt 0.92188 0.67188
vt 0.92188 0.64063
vt 0.93750 0.64063
vt 0.93750 0.67188
vt 0.96875 0.67188
vt 0.96875 0.64063
vt 0.98438 0.64063
vt 0.98438 0.67188
vt 0.01563 0.73438
vt 0.01563 0.70313
vt 0.03125 0.70313
vt 0.03125 0.73438
vt 0.06250 0.71875
vt 0.06250 0.70313
vt 0.25000 0.70313
vt 0.25000 0.71875
vt 0.28125 0.71875
vt 0.28125 0.70313
vt 0.43750 0.70313
vt 0.43750 0.71875
vt 0.46875 0.71875
vt 0.46875 0.70313
vt 0.60938 0.70313
vt 0.60938 0.71875
vt 0.64063 0.71875
vt 0.64063 0.70313
vt 0.78125 0.70313
vt 0.78125 0.71875
vt 0.81250 0.71875
vt 0.81250 0.70313
vt 0.95313 0.70313
vt 0.95313 0.71875
vt 0.01563 0.78125
vt 0.01563 0.76563
vt 0.15625 0.76563
vt 0.15625 0.78125
vt 0.18750 0.78125
vt 0.18750 0.76563
vt 0.32813 0.76563
vt 0.32813 0.78125
vt 0.35938 0.78125
vt 0.35938 0.76563
vt 0.50000 0.76563
vt 0.50000 0.78125
vt 0.53125 0.78125
vt 0.53125 0.76563
vt 0.67188 0.76563
vt 0.67188 0.78125
vt 0.70313 0.78125
vt 0.70313 0.76563
vt 0.79688 0.76563
vt 0.79688 0.78125
vt 0.82813 0.78125
vt 0.82813 0.76563
vt 0.92188 0.76563
vt 0.92188 0.78125
vt 0.01563 0.82813
vt 0.01563 0.81250
vt 0.07813 0.81250
vt 0.07813 0.82813
vt 0.10938 0.82813
vt 0.10938 0.81250
vt 0.17188 0.81250
vt 0.17188 0.82813
vt 0.95313 0.78125
vt 0.95313 0.76563
vt 0.98438 0.76563
vt 0.98438 0.78125
vt 0.20313 0.82813
vt 0.20313 0.81250
vt 0.21875 0.81250
vt 0.21875 0.82813
vt 0.25000 0.82813
vt 0.25000 0.81250
vt 0.26563 0.81250
vt 0.26563 0.82813
vt 0.29688 0.82813
vt 0.29688 0.81250
vt 0.31250 0.81250
vt 0.31250 0.82813
vt 0.34375 0.82813
vt 0.34375 0.81250
vt 0.35938 0.81250
vt 0.35938 0.82813
vt 0.39063 0.82813
vt 0.39063 0.81250
vt 0.40625 0.81250
vt 0.40625 0.82813
vt 0.43750 0.82813
vt 0.43750 0.81250
vt 0.45313 0.81250
vt 0.45313 0.82813

g Head_1
usemtl Head_1_Material
f 97/1/5 43/2/5 46/3/5 1/4/5
f 1/5/2 2/6/2 3/7/2 4/8/2
f 40/9/6 21/10/6 20/11/6 41/12/6
f 36/13/6 19/14/6 18/15/6 37/16/6
f 4/17/5 95/18/5 32/19/5 96/20/5
f 8/21/5 47/22/5 50/23/5 5/24/5
f 52/25/6 79/26/6 80/27/6 53/28/6
f 12/29/5 98/30/5 60/31/5 9/32/5
f 16/33/5 45/34/5 99/35/5 13/36/5
f 4/37/3 87/38/3 60/39/3 63/40/3
f 46/41/4 45/42/4 92/43/4 1/44/4
f 43/45/1 44/46/1 45/47/1 46/48/1
f 58/49/4 91/50/4 44/51/4 43/52/4
f 42/53/4 41/54/4 20/55/4 13/56/4
f 12/57/3 19/58/3 36/59/3 35/60/3
f 35/61/1 36/62/1 37/63/1 38/64/1
f 39/65/1 40/66/1 41/67/1 42/68/1
f 10/69/6 3/70/6 2/71/6 15/72/6
f 26/73/5 7/74/5 6/75/5 23/76/5
f 66/77/1 67/78/1 68/79/1 69/80/1
f 47/81/1 48/82/1 49/83/1 50/84/1
f 5/85/2 6/86/2 7/87/2 8/88/2
f 93/89/4 37/90/4 18/91/4 79/92/4
f 51/93/1 52/94/1 53/95/1 54/96/1
f 80/97/3 21/98/3 40/99/3 88/100/3
f 8/101/3 7/102/3 48/103/3 47/104/3
f 50/105/4 49/106/4 6/107/4 5/108/4
f 55/109/1 56/110/1 57/111/1 58/112/1
f 59/113/1 60/114/1 61/115/1 62/116/1
f 87/117/3 3/118/3 10/119/3 9/120/3
f 16/121/4 15/122/4 2/123/4 92/124/4
f 63/125/1 59/126/1 64/127/1 65/128/1
f 65/129/3 64/130/3 67/131/3 89/132/3
f 9/133/2 10/134/2 11/135/2 12/136/2
f 13/137/2 14/138/2 15/139/2 16/140/2
f 62/141/3 61/142/3 90/143/3 70/144/3
f 94/145/4 68/146/4 56/147/4 55/148/4
f 98/149/5 35/150/5 38/151/5 61/152/5
f 44/153/5 39/154/5 42/155/5 99/156/5
f 17/157/2 18/158/2 19/159/2 11/160/2
f 14/161/2 20/162/2 21/163/2 22/164/2
f 100/165/5 66/166/5 69/167/5 85/168/5
f 73/169/1 74/170/1 54/171/1 57/172/1
f 70/173/1 51/174/1 71/175/1 72/176/1
f 95/177/5 63/178/5 65/179/5 33/180/5
f 75/181/1 76/182/1 77/183/1 78/184/1
f 91/185/3 53/186/3 88/187/3 39/188/3
f 72/189/3 71/190/3 76/191/3 75/192/3
f 38/193/4 93/194/4 52/195/4 90/196/4
f 78/197/4 77/198/4 74/199/4 73/200/4
f 34/201/5 100/202/5 48/203/5 31/204/5
f 49/205/4 43/206/4 24/207/4 23/208/4
f 26/209/3 25/210/3 32/211/3 31/212/3
f 23/213/2 24/214/2 25/215/2 26/216/2
f 27/217/2 28/218/2 29/219/2 30/220/2
f 82/221/5 29/222/5 28/223/5 83/224/5
f 79/225/1 17/226/1 22/227/1 80/228/1
f 81/229/1 82/230/1 83/231/1 84/232/1
f 96/233/6 25/234/6 24/235/6 97/236/6
f 30/237/6 81/238/6 84/239/6 27/240/6
f 85/241/1 86/242/1 43/243/1 49/244/1
f 86/245/5 55/246/5 58/247/5 43/248/5
f 67/249/6 101/250/6 56/251/6 68/252/6
f 34/253/3 33/254/3 89/255/3 66/256/3
f 69/257/4 94/258/4 86/259/4 85/260/4
f 72/261/5 75/262/5 78/263/5 73/264/5
f 101/265/6 64/266/6 62/267/6 70/268/6
f 76/269/6 71/270/6 74/271/6 77/272/6
f 31/273/2 32/274/2 33/275/2 34/276/2
f 84/277/3 83/278/3 28/279/3 27/280/3
f 30/281/4 29/282/4 82/283/4 81/284/4
