mtllib chair.mtl
g objMesh
v -4.388646 7.925028 3.998215
v -4.388646 8.725328 3.998216
v -4.388646 8.725329 -4.203506
v -4.388646 7.925029 -4.203506
v 4.371789 7.925029 -4.203506
v 4.371789 8.725329 -4.203506
v 4.950109 8.625611 -3.181568
v 4.950109 8.024747 -3.181568
v 4.950109 8.625610 2.976277
v 4.950109 8.024746 2.976277
v -3.892193 7.925028 3.998215
v -3.892193 8.725328 3.998216
v 4.371789 7.925028 3.998215
v 4.371789 7.925028 2.631262
v 4.371789 7.925028 1.264308
v -4.352761 16.156363 -3.610667
v -4.388646 15.363577 -4.203505
v -4.352761 16.156361 3.405378
v -4.388646 15.363575 3.998217
v 4.371789 8.725328 3.998216
v -3.892193 8.725329 -4.203506
v -3.892193 7.925028 2.631262
v -3.892193 7.925028 1.264308
v -3.892193 7.925029 -1.469599
v -3.892193 7.925029 -2.836553
v -3.892193 7.925029 -4.203506
v -2.859194 0.099360 2.972999
v -2.514863 7.925028 2.631262
v -2.859194 0.099360 3.656476
v -2.514863 7.925028 3.998215
v 2.994461 7.925028 3.998215
v 1.617130 7.925028 3.998215
v -1.137532 7.925028 3.998215
v -2.514863 7.925029 -4.203506
v -1.137532 7.925029 -4.203506
v 1.617130 7.925029 -4.203506
v 2.994459 7.925029 -4.203506
v -3.928078 16.156361 3.405378
v -3.928078 16.156363 -3.610667
v -3.892193 15.363577 -4.203505
v -3.892193 15.363575 3.998217
v 2.994461 7.925028 2.631262
v 2.994461 7.925028 1.264308
v 1.617130 7.925028 1.264308
v 2.994459 7.925029 -1.469599
v 4.371789 7.925029 -1.469599
v 1.617130 7.925029 -1.469599
v -1.137532 7.925028 2.631262
v -2.514863 7.925028 1.264308
v -1.137532 7.925028 1.264308
v -2.514863 7.925029 -1.469599
v -1.137532 7.925029 -1.469599
v -1.137532 7.925029 -2.836553
v -2.514863 7.925029 -2.836553
v 2.994459 7.925029 -2.836553
v 4.371789 7.925029 -2.836553
v 1.617130 7.925029 -2.836553
v 3.338792 0.099361 -3.178292
v 3.338792 0.099361 -3.861769
v 4.027458 0.099360 3.656476
v 3.338792 0.099360 3.656476
v -3.547860 0.099360 2.972999
v 1.617130 7.925028 2.631262
v 4.027457 0.099361 -3.178292
v 4.027457 0.099361 -3.861769
v -2.859196 0.099361 -3.178292
v -3.547860 0.099361 -3.178292
v -3.547860 0.099361 -3.861769
v -2.859196 0.099361 -3.861769
v -3.547860 0.099360 3.656476
v 3.338792 0.099360 2.972999
v 4.027458 0.099360 2.972999
vt 0.327182 0.891691
vt 0.306269 0.901255
vt 0.195985 0.680632
vt 0.217578 0.671195
vt 0.204204 0.365555
vt 0.212698 0.365010
vt 0.211256 0.393105
vt 0.194523 0.393737
vt 0.194523 0.393737
vt 0.211256 0.393105
vt 0.294465 0.545315
vt 0.276274 0.546471
vt 0.909270 0.755554
vt 0.904540 0.731248
vt 0.919813 0.728769
vt 0.924216 0.753098
vt 0.577133 0.782630
vt 0.541485 0.758755
vt 0.521536 0.713271
vt 0.011966 0.803849
vt 0.024774 0.783190
vt 0.109417 0.978727
vt 0.138758 0.981684
vt 0.325561 0.564074
vt 0.294465 0.545315
vt 0.212698 0.365010
vt 0.211256 0.393105
vt 0.542596 0.438987
vt 0.325561 0.564074
vt 0.212698 0.365010
vt 0.404819 0.237660
vt 0.339917 0.885732
vt 0.327182 0.891691
vt 0.320288 0.848939
vt 0.303330 0.812172
vt 0.267440 0.738817
vt 0.217578 0.671195
vt 0.250390 0.702316
vt 0.231158 0.665384
vt 0.870866 0.995494
vt 0.825620 0.784739
vt 0.887865 0.984658
vt 0.863014 0.762696
vt 0.822092 0.389181
vt 0.839350 0.389634
vt 0.818416 0.422227
vt 0.841780 0.423682
vt 0.577133 0.782630
vt 0.593327 0.765195
vt 0.609470 0.809063
vt 0.639722 0.834925
vt 0.701047 0.886874
vt 0.818416 0.769725
vt 0.863014 0.762696
vt 0.777495 0.921094
vt 0.987640 0.691478
vt 0.986652 0.714494
vt 0.972374 0.713881
vt 0.973363 0.690865
vt 0.933753 0.689165
vt 0.894143 0.687464
vt 0.404819 0.237660
vt 0.212698 0.365010
vt 0.324331 0.263038
vt 0.258697 0.306633
vt 0.220852 0.327455
vt 0.204204 0.365555
vt 0.109417 0.978727
vt 0.096708 0.978821
vt 0.000000 0.803656
vt 0.011966 0.803849
vt 0.000000 0.803656
vt 0.014621 0.773292
vt 0.011966 0.803849
vt 0.024774 0.783190
vt 0.109417 0.978727
vt 0.138758 0.981684
vt 0.140323 0.995701
vt 0.109469 0.991525
vt 0.709139 0.296321
vt 0.700360 0.324099
vt 0.561614 0.126786
vt 0.590439 0.127579
vt 0.700360 0.324099
vt 0.542596 0.438987
vt 0.404819 0.237660
vt 0.561614 0.126786
vt 0.138758 0.981684
vt 0.306269 0.901255
vt 0.310250 0.915490
vt 0.140323 0.995701
vt 0.014621 0.773292
vt 0.185515 0.670290
vt 0.195985 0.680632
vt 0.024774 0.783190
vt 0.024774 0.783190
vt 0.138758 0.981684
vt 0.541485 0.758755
vt 0.499579 0.763681
vt 0.485530 0.730328
vt 0.521536 0.713271
vt 0.448309 0.746059
vt 0.451733 0.657789
vt 0.487658 0.640691
vt 0.415387 0.673831
vt 0.393314 0.815280
vt 0.357528 0.831632
vt 0.339320 0.795475
vt 0.375321 0.778955
vt 0.409831 0.851570
vt 0.304853 0.722579
vt 0.342069 0.706339
vt 0.324316 0.669766
vt 0.287099 0.685990
vt 0.271096 0.649725
vt 0.307901 0.633411
vt 0.434385 0.622094
vt 0.472517 0.603116
vt 0.398293 0.638514
vt 0.381523 0.602545
vt 0.417800 0.585870
vt 0.018460 0.235966
vt 0.135919 0.415294
vt 0.097778 0.428897
vt 0.000000 0.242153
vt 0.373507 0.867927
vt 0.471793 0.972239
vt 0.577133 0.782630
vt 0.485091 0.984669
vt 0.609470 0.809063
vt 0.916272 0.985438
vt 0.954790 0.765421
vt 0.990921 0.789708
vt 0.932705 0.997367
vt 0.766620 0.510885
vt 0.801069 0.530538
vt 0.781553 0.564074
vt 0.746462 0.545080
vt 0.462514 0.779822
vt 0.034656 0.229916
vt 0.018460 0.235966
vt 0.018757 0.213840
vt 0.041391 0.214867
vt 0.933789 0.461721
vt 0.914431 0.457430
vt 0.918687 0.438223
vt 0.938042 0.442511
vt 0.887865 0.984658
vt 0.902430 0.975708
vt 0.916272 0.985438
vt 0.901566 1.000000
vt 0.471793 0.972239
vt 0.485091 0.984669
vt 0.472872 1.000000
vt 0.458268 0.987212
vt 0.047683 0.197680
vt 0.220852 0.327455
vt 0.204204 0.365555
vt 0.041391 0.214867
vt 0.953297 0.464282
vt 0.933753 0.689165
vt 0.933789 0.461721
vt 0.894740 0.684048
vt 0.485091 0.984669
vt 0.609470 0.809063
vt 0.637869 0.837484
vt 0.498720 0.998723
vt 0.041391 0.214867
vt 0.204204 0.365555
vt 0.034656 0.229916
vt 0.174458 0.396900
vt 0.914431 0.457430
vt 0.855941 0.675376
vt 0.818416 0.663542
vt 0.895667 0.451512
vt 0.887865 0.984658
vt 0.863014 0.762696
vt 0.902430 0.975708
vt 0.909270 0.755554
vt 0.902430 0.975708
vt 0.909270 0.755554
vt 0.954790 0.765421
vt 0.916272 0.985438
vt 0.973103 0.465133
vt 0.973363 0.690865
vt 0.933753 0.689165
vt 0.953297 0.464282
vt 0.456966 0.965484
vt 0.541485 0.758755
vt 0.471793 0.972239
vt 0.577133 0.782630
vt 0.034656 0.229916
vt 0.174458 0.396900
vt 0.018460 0.235966
vt 0.135919 0.415294
vt 0.933789 0.461721
vt 0.894740 0.684048
vt 0.914431 0.457430
vt 0.855941 0.675376
vt 0.439845 0.964267
vt 0.499579 0.763681
vt 0.541485 0.758755
vt 0.456966 0.965484
vn -1.000000 0.000000 0.000000
vn -1.000000 0.000000 0.000000
vn -1.000000 0.000000 0.000000
vn -1.000000 0.000000 0.000000
vn 0.868841 0.000000 -0.491674
vn 0.868841 0.000000 -0.491674
vn 0.868841 0.000000 -0.491674
vn 0.868841 0.000000 -0.491674
vn 1.000000 0.000000 0.000000
vn 1.000000 0.000000 0.000000
vn 1.000000 0.000000 0.000000
vn 1.000000 0.000000 0.000000
vn 0.000000 0.000000 1.000000
vn 0.000000 0.000000 1.000000
vn 0.000000 0.000000 1.000000
vn 0.000000 0.000000 1.000000
vn 0.169607 -0.983799 0.000000
vn 0.169607 -0.983799 0.000000
vn 0.169607 -0.983799 0.000000
vn -0.997292 0.045123 0.000000
vn -0.997292 0.045123 0.000000
vn -0.997292 0.045123 0.000000
vn -0.997292 0.045123 0.000000
vn 0.169607 0.983799 0.000000
vn 0.169607 0.983799 0.000000
vn 0.169607 0.983799 0.000000
vn 0.169607 0.983799 0.000000
vn 0.000000 1.000000 0.000000
vn 0.000000 1.000000 0.000000
vn 0.000000 1.000000 0.000000
vn 0.000000 1.000000 0.000000
vn 0.000000 -1.000000 0.000000
vn 0.000000 -1.000000 0.000000
vn 0.000000 -1.000000 0.000000
vn 0.000000 -1.000000 0.000000
vn 0.000000 -1.000000 0.000000
vn 0.000000 -1.000000 0.000000
vn 0.000000 -1.000000 0.000000
vn 0.000000 -1.000000 0.000000
vn 0.997346 -0.043927 0.000000
vn 0.997346 -0.043927 0.000000
vn 0.997346 -0.043927 0.000000
vn 0.997346 -0.043927 0.000000
vn 0.868841 0.000000 0.491674
vn 0.868841 0.000000 0.491674
vn 0.868841 0.000000 0.491674
vn 0.868841 0.000000 0.491674
vn 0.000000 0.000000 1.000000
vn 0.000000 0.000000 1.000000
vn 0.000000 0.000000 1.000000
vn 0.000000 0.000000 1.000000
vn 0.000000 0.000000 1.000000
vn 0.000000 0.000000 1.000000
vn 0.000000 0.000000 1.000000
vn 0.000000 0.000000 1.000000
vn 0.000000 0.000000 -1.000000
vn 0.000000 0.000000 -1.000000
vn 0.000000 0.000000 -1.000000
vn 0.000000 0.000000 -1.000000
vn 0.000000 0.000000 -1.000000
vn 0.000000 0.000000 -1.000000
vn 0.000000 0.000000 -1.000000
vn 0.000000 0.000000 -1.000000
vn 0.000000 0.000000 -1.000000
vn 0.000000 0.000000 -1.000000
vn 0.000000 0.000000 -1.000000
vn 0.000000 0.000000 -1.000000
vn 0.000000 1.000000 0.000000
vn 0.000000 1.000000 0.000000
vn 0.000000 1.000000 0.000000
vn 0.000000 1.000000 0.000000
vn 0.000000 0.597901 -0.799464
vn 0.000000 0.597901 -0.799464
vn 0.000000 0.597901 -0.799464
vn 0.000000 0.597901 -0.799464
vn 0.000000 0.597901 0.799464
vn 0.000000 0.597901 0.799464
vn 0.000000 0.597901 0.799464
vn 0.000000 0.597901 0.799464
vn 0.997292 0.045123 0.000000
vn 0.997292 0.045123 0.000000
vn 0.997292 0.045123 0.000000
vn 0.997292 0.045123 0.000000
vn 1.000000 0.000000 0.000000
vn 1.000000 0.000000 0.000000
vn 1.000000 0.000000 0.000000
vn 1.000000 0.000000 0.000000
vn 0.000000 0.000000 1.000000
vn 0.000000 0.000000 1.000000
vn 0.000000 0.000000 1.000000
vn 0.000000 0.000000 1.000000
vn 0.000000 0.000000 -1.000000
vn 0.000000 0.000000 -1.000000
vn 0.000000 0.000000 -1.000000
vn 0.000000 0.000000 -1.000000
vn -1.000000 0.000000 0.000000
vn -1.000000 0.000000 0.000000
vn 0.000000 -1.000000 0.000000
vn 0.000000 -1.000000 0.000000
vn 0.000000 -1.000000 0.000000
vn 0.000000 -1.000000 0.000000
vn 0.000000 -1.000000 0.000000
vn 0.000000 -1.000000 0.000000
vn 0.000000 -1.000000 0.000000
vn 0.000000 -1.000000 0.000000
vn 0.000000 -1.000000 0.000000
vn 0.000000 -1.000000 0.000000
vn 0.000000 -1.000000 0.000000
vn 0.000000 -1.000000 0.000000
vn 0.000000 -1.000000 0.000000
vn 0.000000 -1.000000 0.000000
vn 0.000000 -1.000000 0.000000
vn 0.000000 -1.000000 0.000000
vn 0.000000 -1.000000 0.000000
vn 0.000000 -1.000000 0.000000
vn 0.000000 -1.000000 0.000000
vn 0.000000 -1.000000 0.000000
vn 0.000000 -1.000000 0.000000
vn 0.000000 -1.000000 0.000000
vn 0.000000 -1.000000 0.000000
vn 0.000000 -1.000000 0.000000
vn -0.997346 -0.043927 0.000000
vn -0.997346 -0.043927 0.000000
vn -0.997346 -0.043927 0.000000
vn -0.997346 -0.043927 0.000000
vn 0.000000 -1.000000 0.000000
vn 0.000000 -0.043529 0.997363
vn 0.000000 -0.043529 0.997363
vn 0.000000 -0.043529 0.997363
vn 0.000000 -0.043529 0.997363
vn 0.000000 -0.043529 -0.997363
vn 0.000000 -0.043529 -0.997363
vn 0.000000 -0.043529 -0.997363
vn 0.000000 -0.043529 -0.997363
vn 0.000000 -1.000000 0.000000
vn 0.000000 -1.000000 0.000000
vn 0.000000 -1.000000 0.000000
vn 0.000000 -1.000000 0.000000
vn 0.000000 -1.000000 0.000000
vn 0.000000 -1.000000 0.000000
vn 0.000000 -1.000000 0.000000
vn 0.000000 -1.000000 0.000000
vn 0.000000 -1.000000 0.000000
vn 0.000000 -1.000000 0.000000
vn 0.000000 -1.000000 0.000000
vn 0.000000 -1.000000 0.000000
vn 0.000000 -1.000000 0.000000
vn 0.000000 -1.000000 0.000000
vn 0.000000 -1.000000 0.000000
vn 0.000000 -1.000000 0.000000
vn 0.000000 -1.000000 0.000000
vn 0.000000 -1.000000 0.000000
vn 0.000000 -1.000000 0.000000
vn 0.000000 -1.000000 0.000000
vn 0.000000 -1.000000 0.000000
vn 0.000000 -0.043529 -0.997363
vn 0.000000 -0.043529 -0.997363
vn 0.000000 -0.043529 -0.997363
vn 0.000000 -0.043529 -0.997363
vn 0.997346 -0.043927 0.000000
vn 0.997346 -0.043927 0.000000
vn 0.997346 -0.043927 0.000000
vn 0.997346 -0.043927 0.000000
vn -0.997346 -0.043927 0.000000
vn -0.997346 -0.043927 0.000000
vn -0.997346 -0.043927 0.000000
vn -0.997346 -0.043927 0.000000
vn 0.997346 -0.043927 0.000000
vn 0.997346 -0.043927 0.000000
vn 0.997346 -0.043927 0.000000
vn 0.997346 -0.043927 0.000000
vn -0.997346 -0.043927 0.000000
vn -0.997346 -0.043927 0.000000
vn -0.997346 -0.043927 0.000000
vn -0.997346 -0.043927 0.000000
vn 0.000000 -0.043529 0.997363
vn 0.000000 -0.043529 0.997363
vn 0.000000 -0.043529 0.997363
vn 0.000000 -0.043529 0.997363
vn -0.997346 -0.043927 0.000000
vn -0.997346 -0.043927 0.000000
vn -0.997346 -0.043927 0.000000
vn -0.997346 -0.043927 0.000000
vn 0.000000 -0.043529 -0.997363
vn 0.000000 -0.043529 -0.997363
vn 0.000000 -0.043529 -0.997363
vn 0.000000 -0.043529 -0.997363
vn 0.997346 -0.043927 0.000000
vn 0.997346 -0.043927 0.000000
vn 0.997346 -0.043927 0.000000
vn 0.997346 -0.043927 0.000000
vn 0.000000 -0.043529 0.997363
vn 0.000000 -0.043529 0.997363
vn 0.000000 -0.043529 0.997363
vn 0.000000 -0.043529 0.997363
vn 0.000000 -0.043529 0.997363
vn 0.000000 -0.043529 0.997363
vn 0.000000 -0.043529 0.997363
vn 0.000000 -0.043529 0.997363
vn 0.000000 -0.043529 -0.997363
vn 0.000000 -0.043529 -0.997363
vn 0.000000 -0.043529 -0.997363
vn 0.000000 -0.043529 -0.997363
usemtl None
f 1/1/1 2/2/2 3/3/3
f 3/3/3 4/4/4 1/1/1
f 5/5/5 6/6/6 7/7/7
f 7/7/7 8/8/8 5/5/5
f 8/9/9 7/10/10 9/11/11
f 9/11/11 10/12/12 8/9/9
f 11/13/13 12/14/14 2/15/15
f 2/15/15 1/16/16 11/13/13
f 13/17/17 14/18/18 15/19/19
f 16/20/20 17/21/21 18/22/22
f 19/23/23 18/22/22 17/21/21
f 20/24/24 9/25/25 6/26/26
f 7/27/27 6/26/26 9/25/25
f 12/28/28 20/29/29 6/30/30
f 6/30/30 21/31/31 12/28/28
f 11/32/32 1/33/33 22/34/34
f 23/35/35 22/34/34 1/33/33
f 1/33/33 24/36/36 23/35/35
f 24/36/36 4/37/37 25/38/38
f 4/37/37 24/36/36 1/33/33
f 26/39/39 25/38/38 4/37/37
f 27/40/40 28/41/41 29/42/42
f 30/43/43 29/42/42 28/41/41
f 10/44/44 9/45/45 13/46/46
f 20/47/47 13/46/46 9/45/45
f 13/48/48 20/49/49 31/50/50
f 32/51/51 31/50/50 20/49/49
f 20/49/49 33/52/52 32/51/51
f 33/53/53 12/14/14 30/54/54
f 12/55/55 33/52/52 20/49/49
f 11/13/13 30/54/54 12/14/14
f 4/56/56 3/57/57 21/58/58
f 21/58/58 26/59/59 4/56/56
f 26/59/59 21/58/58 34/60/60
f 35/61/61 34/60/60 21/58/58
f 21/62/62 6/63/63 35/64/64
f 36/65/65 6/63/63 37/66/66
f 6/63/63 36/65/65 35/64/64
f 5/67/67 37/66/66 6/63/63
f 18/68/68 38/69/69 39/70/70
f 39/70/70 16/71/71 18/68/68
f 39/72/72 40/73/73 16/74/74
f 17/75/75 16/74/74 40/73/73
f 18/76/76 19/77/77 41/78/78
f 41/78/78 38/79/79 18/76/76
f 38/80/80 41/81/81 40/82/82
f 40/82/82 39/83/83 38/80/80
f 41/84/84 12/85/85 21/86/86
f 21/86/86 40/87/87 41/84/84
f 19/88/88 2/89/89 12/90/90
f 12/90/90 41/91/91 19/88/88
f 40/92/92 21/93/93 3/94/94
f 3/94/94 17/95/95 40/92/92
f 17/96/96 3/3/3 19/97/97
f 2/2/2 19/97/97 3/3/3
f 14/98/98 42/99/99 43/100/100
f 43/100/100 15/101/101 14/98/98
f 43/100/100 44/102/102 45/103/103
f 15/101/101 43/100/100 46/104/104
f 47/105/105 45/103/103 44/102/102
f 45/103/103 46/104/104 43/100/100
f 48/106/106 28/107/107 49/108/108
f 49/108/108 50/109/109 48/106/106
f 33/110/110 48/106/106 50/109/109
f 49/108/108 23/35/35 24/36/36
f 50/109/109 49/108/108 51/111/111
f 24/36/36 51/111/111 49/108/108
f 51/111/111 52/112/112 50/109/109
f 44/102/102 50/109/109 52/112/112
f 52/112/112 47/105/105 44/102/102
f 53/113/113 54/114/114 34/115/115
f 34/115/115 35/116/116 53/113/113
f 52/112/112 53/113/113 35/116/116
f 46/104/104 45/103/103 55/117/117
f 55/117/117 56/118/118 46/104/104
f 45/103/103 47/105/105 57/119/119
f 57/119/119 55/117/117 45/103/103
f 55/117/117 57/119/119 36/120/120
f 36/120/120 37/121/121 55/117/117
f 52/112/112 51/111/111 54/114/114
f 54/114/114 53/113/113 52/112/112
f 51/111/111 24/36/36 25/38/38
f 25/38/38 54/114/114 51/111/111
f 58/122/122 55/123/123 37/124/124
f 37/124/124 59/125/125 58/122/122
f 33/110/110 30/126/126 28/107/107
f 28/107/107 48/106/106 33/110/110
f 60/127/127 13/128/128 61/129/129
f 31/130/130 61/129/129 13/128/128
f 28/107/107 22/34/34 23/35/35
f 23/35/35 49/108/108 28/107/107
f 62/131/131 22/132/132 28/133/133
f 28/133/133 27/134/134 62/131/131
f 31/135/135 32/136/136 63/137/137
f 63/137/137 42/138/138 31/135/135
f 42/99/99 63/139/139 44/102/102
f 44/102/102 43/100/100 42/99/99
f 64/140/140 58/141/141 59/142/142
f 59/142/142 65/143/143 64/140/140
f 66/144/144 67/145/145 68/146/146
f 68/146/146 69/147/147 66/144/144
f 29/148/148 70/149/149 62/150/150
f 62/150/150 27/151/151 29/148/148
f 60/152/152 61/153/153 71/154/154
f 71/154/154 72/155/155 60/152/152
f 59/156/156 37/157/157 5/158/158
f 5/158/158 65/159/159 59/156/156
f 69/160/160 34/161/161 66/162/162
f 54/163/163 66/162/162 34/161/161
f 61/164/164 31/165/165 42/166/166
f 42/166/166 71/167/167 61/164/164
f 65/168/168 5/169/169 64/170/170
f 56/171/171 64/170/170 5/169/169
f 67/172/172 25/173/173 26/174/174
f 26/174/174 68/175/175 67/172/172
f 29/176/176 30/177/177 70/178/178
f 11/179/179 70/178/178 30/177/177
f 70/180/180 11/181/181 22/182/182
f 22/182/182 62/183/183 70/180/180
f 68/184/184 26/185/185 34/186/186
f 34/186/186 69/187/187 68/184/184
f 72/188/188 14/189/189 60/190/190
f 13/191/191 60/190/190 14/189/189
f 64/192/192 56/193/193 58/194/194
f 55/195/195 58/194/194 56/193/193
f 66/196/196 54/197/197 67/198/198
f 25/199/199 67/198/198 54/197/197
f 71/200/200 42/201/201 14/202/202
f 14/202/202 72/203/203 71/200/200
