mtllib pedestal.mtl
g objMesh
v 0.970249 13.113336 -2.191302
v -0.637754 13.113336 -2.713774
v -0.637754 14.516722 -2.713774
v 0.970249 14.516722 -2.191302
v 1.964050 13.113336 -0.823453
v 1.964050 14.516722 -0.823453
v 1.964050 13.113336 0.867302
v 1.964050 14.516722 0.867302
v 0.970249 13.113336 2.235152
v 0.970249 14.516722 2.235152
v -0.637754 13.113336 2.757623
v -0.637754 14.516722 2.757623
v -2.245758 13.113336 2.235151
v -2.245758 14.516722 2.235151
v -3.239558 13.113336 0.867302
v -3.239558 14.516722 0.867302
v -3.239558 13.113336 -0.823453
v -3.239558 14.516722 -0.823453
v -2.245757 14.516722 -2.191303
v -2.245757 13.113336 -2.191303
v -1.813324 6.333330 -1.596110
v -0.637754 6.333330 -1.978075
v -2.539867 6.333330 0.639959
v -2.539867 6.333330 -0.596110
v -1.813325 6.333330 1.639959
v 0.537816 6.333330 -1.596109
v 1.264359 6.333330 -0.596109
v 0.537816 6.333330 1.639959
v -0.637754 6.333330 2.021925
v 1.264359 6.333330 0.639959
v -2.539867 12.220253 -0.596110
v -1.813324 12.220253 -1.596110
v -0.637754 12.220253 -1.978075
v -2.539867 12.220253 0.639959
v -1.813325 12.220253 1.639959
v -0.637754 12.220253 2.021925
v 0.537816 12.220253 1.639959
v 1.264359 12.220253 0.639959
v 1.264359 12.220253 -0.596109
v 0.537816 12.220253 -1.596109
v -0.637754 0.149939 -2.713774
v -0.637754 1.553325 -2.713774
v 0.970249 1.553325 -2.191302
v 0.970249 0.149939 -2.191302
v 1.964050 1.553325 -0.823453
v 1.964050 0.149939 -0.823453
v 1.964050 1.553325 0.867302
v 1.964050 0.149939 0.867302
v 0.970249 1.553325 2.235152
v 0.970249 0.149939 2.235152
v -0.637754 1.553325 2.757623
v -0.637754 0.149939 2.757623
v -2.245758 1.553325 2.235151
v -2.245758 0.149939 2.235151
v -3.239558 1.553325 0.867302
v -3.239558 0.149939 0.867302
v -3.239558 1.553325 -0.823453
v -3.239558 0.149939 -0.823453
v -2.245757 0.149939 -2.191303
v -2.245757 1.553325 -2.191303
v 0.537816 8.333330 -1.596109
v -0.637754 8.333330 -1.978075
v 0.537816 8.333330 1.639959
v 1.264359 8.333330 0.639959
v 1.264359 8.333330 -0.596109
v -0.637754 8.333330 2.021925
v -1.813324 8.333330 -1.596110
v -2.539867 8.333330 -0.596110
v -1.813325 8.333330 1.639959
v -2.539867 8.333330 0.639959
v -2.539867 2.446407 -0.596110
v -1.813324 2.446407 -1.596110
v -0.637754 2.446407 -1.978075
v -2.539867 2.446407 0.639959
v -1.813325 2.446407 1.639959
v -0.637754 2.446407 2.021925
v 0.537816 2.446407 1.639959
v 1.264359 2.446407 0.639959
v 1.264359 2.446407 -0.596109
v 0.537816 2.446407 -1.596109
vt 0.168672 0.770980
vt 0.124061 0.802275
vt 0.089492 0.757219
vt 0.144029 0.735101
vt 0.208661 0.733608
vt 0.168672 0.770980
vt 0.144029 0.735101
vt 0.182603 0.695283
vt 0.241647 0.688741
vt 0.208661 0.733608
vt 0.182603 0.695283
vt 0.201772 0.647725
vt 0.289569 0.649779
vt 0.241647 0.688741
vt 0.201772 0.647725
vt 0.263870 0.604681
vt 0.342299 0.618325
vt 0.289569 0.649779
vt 0.263870 0.604681
vt 0.325255 0.570277
vt 0.396982 0.594154
vt 0.342299 0.618325
vt 0.325255 0.570277
vt 0.387425 0.544567
vt 0.452816 0.578152
vt 0.396982 0.594154
vt 0.387425 0.544567
vt 0.450502 0.528407
vt 0.509732 0.571906
vt 0.452816 0.578152
vt 0.450502 0.528407
vt 0.513831 0.523761
vt 0.182603 0.695283
vt 0.144029 0.735101
vt 0.099681 0.554512
vt 0.163838 0.589725
vt 0.201772 0.647725
vt 0.089492 0.757219
vt 0.033924 0.738963
vt 0.001767 0.627155
vt 0.039323 0.575779
vt 0.000000 0.689401
vt 0.124061 0.802275
vt 0.076992 0.840453
vt 0.043531 0.799762
vt 0.089492 0.757219
vt 0.569169 0.580347
vt 0.509732 0.571906
vt 0.513831 0.523761
vt 0.575181 0.530522
vt 0.448746 0.976291
vt 0.409643 0.958760
vt 0.513984 0.933117
vt 0.488964 0.966278
vt 0.513575 0.889878
vt 0.387326 0.919939
vt 0.392025 0.883974
vt 0.441588 0.839864
vt 0.486708 0.853787
vt 0.410137 0.856607
vt 0.621018 0.785175
vt 0.578282 0.792455
vt 0.506788 0.606640
vt 0.552134 0.597420
vt 0.603695 0.498696
vt 0.566309 0.473478
vt 0.631975 0.471034
vt 0.509732 0.571906
vt 0.569169 0.580347
vt 0.506788 0.606640
vt 0.381032 0.958007
vt 0.372571 1.000000
vt 0.186557 0.914041
vt 0.197009 0.868439
vt 0.144303 0.838413
vt 0.110029 0.866864
vt 0.124061 0.802275
vt 0.076992 0.840453
vt 0.578282 0.792455
vt 0.538885 0.799949
vt 0.458490 0.616781
vt 0.506788 0.606640
vt 0.506788 0.606640
vt 0.458490 0.616781
vt 0.509732 0.571906
vt 0.452816 0.578152
vt 0.538885 0.799949
vt 0.503147 0.810343
vt 0.409201 0.633276
vt 0.458490 0.616781
vt 0.458490 0.616781
vt 0.409201 0.633276
vt 0.452816 0.578152
vt 0.396982 0.594154
vt 0.503147 0.810343
vt 0.470839 0.823884
vt 0.360699 0.656651
vt 0.409201 0.633276
vt 0.409201 0.633276
vt 0.360699 0.656651
vt 0.396982 0.594154
vt 0.342299 0.618325
vt 0.470839 0.823884
vt 0.441588 0.839864
vt 0.314249 0.686549
vt 0.360699 0.656651
vt 0.360699 0.656651
vt 0.314249 0.686549
vt 0.342299 0.618325
vt 0.289569 0.649779
vt 0.441588 0.839864
vt 0.410137 0.856607
vt 0.270051 0.722144
vt 0.314249 0.686549
vt 0.314249 0.686549
vt 0.270051 0.722144
vt 0.289569 0.649779
vt 0.241647 0.688741
vt 0.410137 0.856607
vt 0.392025 0.883974
vt 0.232046 0.766599
vt 0.270051 0.722144
vt 0.270051 0.722144
vt 0.232046 0.766599
vt 0.241647 0.688741
vt 0.208661 0.733608
vt 0.392025 0.883974
vt 0.387326 0.919939
vt 0.209627 0.818911
vt 0.232046 0.766599
vt 0.232046 0.766599
vt 0.198332 0.797540
vt 0.208661 0.733608
vt 0.168672 0.770980
vt 0.387326 0.919939
vt 0.381032 0.958007
vt 0.197009 0.868439
vt 0.209627 0.818911
vt 0.198332 0.797540
vt 0.164676 0.828199
vt 0.168672 0.770980
vt 0.124061 0.802275
vt 0.413216 0.139740
vt 0.382079 0.179510
vt 0.339857 0.139687
vt 0.364677 0.095611
vt 0.364677 0.095611
vt 0.339857 0.139687
vt 0.293917 0.105980
vt 0.311439 0.057658
vt 0.311439 0.057658
vt 0.293917 0.105980
vt 0.244839 0.081842
vt 0.252780 0.024935
vt 0.838493 0.887167
vt 0.838436 0.945648
vt 0.786332 0.959043
vt 0.786146 0.917439
vt 0.786146 0.917439
vt 0.786332 0.959043
vt 0.727369 0.965163
vt 0.734119 0.923381
vt 0.734119 0.923381
vt 0.727369 0.965163
vt 0.666712 0.954516
vt 0.680265 0.897516
vt 0.537993 0.371660
vt 0.487358 0.385820
vt 0.475234 0.328447
vt 0.522157 0.309523
vt 0.522157 0.309523
vt 0.475234 0.328447
vt 0.452417 0.273923
vt 0.494756 0.246898
vt 0.771290 0.734505
vt 0.826232 0.764493
vt 0.664865 0.783499
vt 0.709727 0.741910
vt 0.653703 0.843116
vt 0.680265 0.897516
vt 0.853716 0.820715
vt 0.838493 0.887167
vt 0.734119 0.923381
vt 0.786146 0.917439
vt 0.456999 0.190053
vt 0.419962 0.224360
vt 0.382079 0.179510
vt 0.413216 0.139740
vt 0.494756 0.246898
vt 0.452417 0.273923
vt 0.419962 0.224360
vt 0.456999 0.190053
vt 0.140158 0.377455
vt 0.179306 0.360423
vt 0.156351 0.489984
vt 0.125442 0.457830
vt 0.119448 0.414738
vt 0.200757 0.498696
vt 0.221316 0.370507
vt 0.244107 0.400251
vt 0.246699 0.475439
vt 0.253247 0.434933
vt 0.414424 0.295495
vt 0.244107 0.400251
vt 0.221316 0.370507
vt 0.385910 0.251485
vt 0.452417 0.273923
vt 0.414424 0.295495
vt 0.419962 0.224360
vt 0.385910 0.251485
vt 0.385910 0.251485
vt 0.221316 0.370507
vt 0.198895 0.343244
vt 0.353014 0.210622
vt 0.419962 0.224360
vt 0.385910 0.251485
vt 0.382079 0.179510
vt 0.353014 0.210622
vt 0.436229 0.342911
vt 0.253247 0.434933
vt 0.244107 0.400251
vt 0.414424 0.295495
vt 0.475234 0.328447
vt 0.436229 0.342911
vt 0.414424 0.295495
vt 0.452417 0.273923
vt 0.442416 0.391102
vt 0.246699 0.475439
vt 0.253247 0.434933
vt 0.436229 0.342911
vt 0.487358 0.385820
vt 0.444284 0.384941
vt 0.436229 0.342911
vt 0.475234 0.328447
vt 0.154955 0.066859
vt 0.037486 0.235053
vt 0.000000 0.212639
vt 0.116787 0.043476
vt 0.727369 0.965163
vt 0.728970 1.000000
vt 0.678239 0.999711
vt 0.666712 0.954516
vt 0.193864 0.091297
vt 0.074231 0.256413
vt 0.037486 0.235053
vt 0.154955 0.066859
vt 0.786332 0.959043
vt 0.781823 0.995629
vt 0.727369 0.965163
vt 0.728970 1.000000
vt 0.233706 0.117062
vt 0.110043 0.276446
vt 0.074231 0.256413
vt 0.193864 0.091297
vt 0.838436 0.945648
vt 0.832130 0.982709
vt 0.786332 0.959043
vt 0.781823 0.995629
vt 0.275457 0.143001
vt 0.143447 0.296404
vt 0.110043 0.276446
vt 0.233706 0.117062
vt 0.293917 0.105980
vt 0.275457 0.143001
vt 0.244839 0.081842
vt 0.233706 0.117062
vt 0.315821 0.174161
vt 0.173098 0.318483
vt 0.143447 0.296404
vt 0.275457 0.143001
vt 0.339857 0.139687
vt 0.315821 0.174161
vt 0.293917 0.105980
vt 0.275457 0.143001
vt 0.353014 0.210622
vt 0.198895 0.343244
vt 0.173098 0.318483
vt 0.315821 0.174161
vt 0.382079 0.179510
vt 0.353014 0.210622
vt 0.339857 0.139687
vt 0.315821 0.174161
vn 0.308467 0.000000 -0.949461
vn 0.308467 0.000000 -0.949461
vn 0.308467 0.000000 -0.949461
vn 0.308467 0.000000 -0.949461
vn 0.807639 0.000000 -0.586811
vn 0.807639 0.000000 -0.586811
vn 0.807639 0.000000 -0.586811
vn 0.807639 0.000000 -0.586811
vn 1.000000 0.000000 0.000000
vn 1.000000 0.000000 0.000000
vn 1.000000 0.000000 0.000000
vn 1.000000 0.000000 0.000000
vn 0.807639 0.000000 0.586811
vn 0.807639 0.000000 0.586811
vn 0.807639 0.000000 0.586811
vn 0.807639 0.000000 0.586811
vn 0.308467 0.000000 0.949461
vn 0.308467 0.000000 0.949461
vn 0.308467 0.000000 0.949461
vn 0.308467 0.000000 0.949461
vn -0.308467 0.000000 0.949461
vn -0.308467 0.000000 0.949461
vn -0.308467 0.000000 0.949461
vn -0.308467 0.000000 0.949461
vn -0.807639 0.000000 0.586811
vn -0.807639 0.000000 0.586811
vn -0.807639 0.000000 0.586811
vn -0.807639 0.000000 0.586811
vn -1.000000 0.000000 0.000000
vn -1.000000 0.000000 0.000000
vn -1.000000 0.000000 0.000000
vn -1.000000 0.000000 0.000000
vn 0.000000 1.000000 0.000000
vn 0.000000 1.000000 0.000000
vn 0.000000 1.000000 0.000000
vn 0.000000 1.000000 0.000000
vn 0.000000 1.000000 0.000000
vn 0.000000 1.000000 0.000000
vn 0.000000 1.000000 0.000000
vn 0.000000 1.000000 0.000000
vn 0.000000 1.000000 0.000000
vn 0.000000 1.000000 0.000000
vn -0.308467 0.000000 -0.949461
vn -0.308467 0.000000 -0.949461
vn -0.308467 0.000000 -0.949461
vn -0.308467 0.000000 -0.949461
vn -0.807639 0.000000 -0.586811
vn -0.807639 0.000000 -0.586811
vn -0.807639 0.000000 -0.586811
vn -0.807639 0.000000 -0.586811
vn 0.000000 -1.000000 0.000000
vn 0.000000 -1.000000 0.000000
vn 0.000000 -1.000000 0.000000
vn 0.000000 -1.000000 0.000000
vn 0.000000 -1.000000 0.000000
vn 0.000000 -1.000000 0.000000
vn 0.000000 -1.000000 0.000000
vn 0.000000 -1.000000 0.000000
vn 0.000000 -1.000000 0.000000
vn 0.000000 -1.000000 0.000000
vn -0.807639 0.000000 -0.586811
vn -0.807639 0.000000 -0.586811
vn -0.807639 0.000000 -0.586811
vn -0.807639 0.000000 -0.586811
vn -0.635749 -0.615682 -0.461937
vn -0.635749 -0.615682 -0.461937
vn -0.635749 -0.615682 -0.461937
vn -0.635749 -0.615682 -0.461937
vn -0.635749 -0.615682 -0.461937
vn -0.635749 -0.615682 -0.461937
vn -0.308467 0.000000 -0.949461
vn -0.308467 0.000000 -0.949461
vn -0.308467 0.000000 -0.949461
vn -0.308467 0.000000 -0.949461
vn -0.242881 -0.615639 -0.747412
vn -0.242881 -0.615639 -0.747412
vn -0.242881 -0.615639 -0.747412
vn -0.242881 -0.615639 -0.747412
vn -1.000000 0.000000 0.000000
vn -1.000000 0.000000 0.000000
vn -1.000000 0.000000 0.000000
vn -1.000000 0.000000 0.000000
vn -0.785870 -0.615658 0.000000
vn -0.785870 -0.615658 0.000000
vn -0.785870 -0.615658 0.000000
vn -0.785870 -0.615658 0.000000
vn -0.807639 0.000000 0.586811
vn -0.807639 0.000000 0.586811
vn -0.807639 0.000000 0.586811
vn -0.807639 0.000000 0.586811
vn -0.635749 -0.615682 0.461937
vn -0.635749 -0.615682 0.461937
vn -0.635749 -0.615682 0.461937
vn -0.635749 -0.615682 0.461937
vn -0.308467 0.000000 0.949461
vn -0.308467 0.000000 0.949461
vn -0.308467 0.000000 0.949461
vn -0.308467 0.000000 0.949461
vn -0.242881 -0.615639 0.747412
vn -0.242881 -0.615639 0.747412
vn -0.242881 -0.615639 0.747412
vn -0.242881 -0.615639 0.747412
vn 0.308467 0.000000 0.949461
vn 0.308467 0.000000 0.949461
vn 0.308467 0.000000 0.949461
vn 0.308467 0.000000 0.949461
vn 0.242881 -0.615639 0.747412
vn 0.242881 -0.615639 0.747412
vn 0.242881 -0.615639 0.747412
vn 0.242881 -0.615639 0.747412
vn 0.807639 0.000000 0.586811
vn 0.807639 0.000000 0.586811
vn 0.807639 0.000000 0.586811
vn 0.807639 0.000000 0.586811
vn 0.635749 -0.615682 0.461937
vn 0.635749 -0.615682 0.461937
vn 0.635749 -0.615682 0.461937
vn 0.635749 -0.615682 0.461937
vn 1.000000 0.000000 0.000000
vn 1.000000 0.000000 0.000000
vn 1.000000 0.000000 0.000000
vn 1.000000 0.000000 0.000000
vn 0.785870 -0.615658 0.000000
vn 0.785870 -0.615658 0.000000
vn 0.785870 -0.615658 0.000000
vn 0.785870 -0.615658 0.000000
vn 0.807639 0.000000 -0.586811
vn 0.807639 0.000000 -0.586811
vn 0.807639 0.000000 -0.586811
vn 0.807639 0.000000 -0.586811
vn 0.635749 -0.615682 -0.461937
vn 0.635749 -0.615682 -0.461937
vn 0.635749 -0.615682 -0.461937
vn 0.635749 -0.615682 -0.461937
vn 0.308467 0.000000 -0.949461
vn 0.308467 0.000000 -0.949461
vn 0.308467 0.000000 -0.949461
vn 0.308467 0.000000 -0.949461
vn 0.242881 -0.615639 -0.747412
vn 0.242881 -0.615639 -0.747412
vn 0.242881 -0.615639 -0.747412
vn 0.242881 -0.615639 -0.747412
vn 0.308467 0.000000 -0.949461
vn 0.308467 0.000000 -0.949461
vn 0.308467 0.000000 -0.949461
vn 0.308467 0.000000 -0.949461
vn 0.807639 0.000000 -0.586811
vn 0.807639 0.000000 -0.586811
vn 0.807639 0.000000 -0.586811
vn 0.807639 0.000000 -0.586811
vn 1.000000 0.000000 0.000000
vn 1.000000 0.000000 0.000000
vn 1.000000 0.000000 0.000000
vn 1.000000 0.000000 0.000000
vn 0.807639 0.000000 0.586811
vn 0.807639 0.000000 0.586811
vn 0.807639 0.000000 0.586811
vn 0.807639 0.000000 0.586811
vn 0.308467 0.000000 0.949461
vn 0.308467 0.000000 0.949461
vn 0.308467 0.000000 0.949461
vn 0.308467 0.000000 0.949461
vn -0.308467 0.000000 0.949461
vn -0.308467 0.000000 0.949461
vn -0.308467 0.000000 0.949461
vn -0.308467 0.000000 0.949461
vn -0.807639 0.000000 0.586811
vn -0.807639 0.000000 0.586811
vn -0.807639 0.000000 0.586811
vn -0.807639 0.000000 0.586811
vn -1.000000 0.000000 0.000000
vn -1.000000 0.000000 0.000000
vn -1.000000 0.000000 0.000000
vn -1.000000 0.000000 0.000000
vn 0.000000 -1.000000 0.000000
vn 0.000000 -1.000000 0.000000
vn 0.000000 -1.000000 0.000000
vn 0.000000 -1.000000 0.000000
vn 0.000000 -1.000000 0.000000
vn 0.000000 -1.000000 0.000000
vn 0.000000 -1.000000 0.000000
vn 0.000000 -1.000000 0.000000
vn 0.000000 -1.000000 0.000000
vn 0.000000 -1.000000 0.000000
vn -0.308467 0.000000 -0.949461
vn -0.308467 0.000000 -0.949461
vn -0.308467 0.000000 -0.949461
vn -0.308467 0.000000 -0.949461
vn -0.807639 0.000000 -0.586811
vn -0.807639 0.000000 -0.586811
vn -0.807639 0.000000 -0.586811
vn -0.807639 0.000000 -0.586811
vn 0.000000 1.000000 0.000000
vn 0.000000 1.000000 0.000000
vn 0.000000 1.000000 0.000000
vn 0.000000 1.000000 0.000000
vn 0.000000 1.000000 0.000000
vn 0.000000 1.000000 0.000000
vn 0.000000 1.000000 0.000000
vn 0.000000 1.000000 0.000000
vn 0.000000 1.000000 0.000000
vn 0.000000 1.000000 0.000000
vn -0.807639 0.000000 -0.586811
vn -0.807639 0.000000 -0.586811
vn -0.807639 0.000000 -0.586811
vn -0.807639 0.000000 -0.586811
vn -0.635749 0.615682 -0.461937
vn -0.635749 0.615682 -0.461937
vn -0.635749 0.615682 -0.461937
vn -0.635749 0.615682 -0.461937
vn -0.308467 0.000000 -0.949461
vn -0.308467 0.000000 -0.949461
vn -0.308467 0.000000 -0.949461
vn -0.308467 0.000000 -0.949461
vn -0.242881 0.615639 -0.747412
vn -0.242881 0.615639 -0.747412
vn -0.242881 0.615639 -0.747412
vn -0.242881 0.615639 -0.747412
vn -1.000000 0.000000 0.000000
vn -1.000000 0.000000 0.000000
vn -1.000000 0.000000 0.000000
vn -1.000000 0.000000 0.000000
vn -0.785870 0.615658 0.000000
vn -0.785870 0.615658 0.000000
vn -0.785870 0.615658 0.000000
vn -0.785870 0.615658 0.000000
vn -0.807639 0.000000 0.586811
vn -0.807639 0.000000 0.586811
vn -0.807639 0.000000 0.586811
vn -0.807639 0.000000 0.586811
vn -0.635749 0.615682 0.461937
vn -0.635749 0.615682 0.461937
vn -0.635749 0.615682 0.461937
vn -0.635749 0.615682 0.461937
vn -0.308467 0.000000 0.949461
vn -0.308467 0.000000 0.949461
vn -0.308467 0.000000 0.949461
vn -0.308467 0.000000 0.949461
vn -0.242881 0.615639 0.747412
vn -0.242881 0.615639 0.747412
vn -0.242881 0.615639 0.747412
vn -0.242881 0.615639 0.747412
vn 0.308467 0.000000 0.949461
vn 0.308467 0.000000 0.949461
vn 0.308467 0.000000 0.949461
vn 0.308467 0.000000 0.949461
vn 0.242881 0.615639 0.747412
vn 0.242881 0.615639 0.747412
vn 0.242881 0.615639 0.747412
vn 0.242881 0.615639 0.747412
vn 0.807639 0.000000 0.586811
vn 0.807639 0.000000 0.586811
vn 0.807639 0.000000 0.586811
vn 0.807639 0.000000 0.586811
vn 0.635749 0.615682 0.461937
vn 0.635749 0.615682 0.461937
vn 0.635749 0.615682 0.461937
vn 0.635749 0.615682 0.461937
vn 1.000000 0.000000 0.000000
vn 1.000000 0.000000 0.000000
vn 1.000000 0.000000 0.000000
vn 1.000000 0.000000 0.000000
vn 0.785870 0.615658 0.000000
vn 0.785870 0.615658 0.000000
vn 0.785870 0.615658 0.000000
vn 0.785870 0.615658 0.000000
vn 0.807639 0.000000 -0.586811
vn 0.807639 0.000000 -0.586811
vn 0.807639 0.000000 -0.586811
vn 0.807639 0.000000 -0.586811
vn 0.635749 0.615682 -0.461937
vn 0.635749 0.615682 -0.461937
vn 0.635749 0.615682 -0.461937
vn 0.635749 0.615682 -0.461937
vn 0.308467 0.000000 -0.949461
vn 0.308467 0.000000 -0.949461
vn 0.308467 0.000000 -0.949461
vn 0.308467 0.000000 -0.949461
vn 0.242881 0.615639 -0.747412
vn 0.242881 0.615639 -0.747412
vn 0.242881 0.615639 -0.747412
vn 0.242881 0.615639 -0.747412
usemtl None
f 1/1/1 2/2/2 3/3/3
f 3/3/3 4/4/4 1/1/1
f 5/5/5 1/6/6 4/7/7
f 4/7/7 6/8/8 5/5/5
f 7/9/9 5/10/10 6/11/11
f 6/11/11 8/12/12 7/9/9
f 9/13/13 7/14/14 8/15/15
f 8/15/15 10/16/16 9/13/13
f 11/17/17 9/18/18 10/19/19
f 10/19/19 12/20/20 11/17/17
f 13/21/21 11/22/22 12/23/23
f 12/23/23 14/24/24 13/21/21
f 15/25/25 13/26/26 14/27/27
f 14/27/27 16/28/28 15/25/25
f 17/29/29 15/30/30 16/31/31
f 16/31/31 18/32/32 17/29/29
f 6/33/33 4/34/34 12/35/35
f 6/33/33 10/36/36 8/37/37
f 10/36/36 6/33/33 12/35/35
f 4/34/34 3/38/38 12/35/35
f 3/38/38 19/39/39 16/40/40
f 3/38/38 16/40/40 14/41/41
f 16/40/40 19/39/39 18/42/42
f 3/38/38 14/41/41 12/35/35
f 2/43/43 20/44/44 19/45/45
f 19/45/45 3/46/46 2/43/43
f 20/47/47 17/48/48 18/49/49
f 18/49/49 19/50/50 20/47/47
f 21/51/51 22/52/52 23/53/53
f 21/51/51 23/53/53 24/54/54
f 23/53/53 22/52/52 25/55/55
f 22/52/52 26/56/56 25/55/55
f 26/56/56 27/57/57 28/58/58
f 26/56/56 28/58/58 29/59/59
f 28/58/58 27/57/57 30/60/60
f 26/56/56 29/59/59 25/55/55
f 21/61/61 24/62/62 31/63/63
f 31/63/63 32/64/64 21/61/61
f 32/65/65 31/66/66 20/67/67
f 17/68/68 20/69/69 31/70/70
f 22/71/71 21/72/72 32/73/73
f 32/73/73 33/74/74 22/71/71
f 33/75/75 32/76/76 2/77/77
f 20/78/78 2/77/77 32/76/76
f 24/79/79 23/80/80 34/81/81
f 34/81/81 31/82/82 24/79/79
f 31/83/83 34/84/84 17/85/85
f 15/86/86 17/85/85 34/84/84
f 23/87/87 25/88/88 35/89/89
f 35/89/89 34/90/90 23/87/87
f 34/91/91 35/92/92 15/93/93
f 13/94/94 15/93/93 35/92/92
f 25/95/95 29/96/96 36/97/97
f 36/97/97 35/98/98 25/95/95
f 35/99/99 36/100/100 13/101/101
f 11/102/102 13/101/101 36/100/100
f 29/103/103 28/104/104 37/105/105
f 37/105/105 36/106/106 29/103/103
f 36/107/107 37/108/108 11/109/109
f 9/110/110 11/109/109 37/108/108
f 28/111/111 30/112/112 38/113/113
f 38/113/113 37/114/114 28/111/111
f 37/115/115 38/116/116 9/117/117
f 7/118/118 9/117/117 38/116/116
f 30/119/119 27/120/120 39/121/121
f 39/121/121 38/122/122 30/119/119
f 38/123/123 39/124/124 7/125/125
f 5/126/126 7/125/125 39/124/124
f 27/127/127 26/128/128 40/129/129
f 40/129/129 39/130/130 27/127/127
f 39/131/131 40/132/132 5/133/133
f 1/134/134 5/133/133 40/132/132
f 26/135/135 22/136/136 33/137/137
f 33/137/137 40/138/138 26/135/135
f 40/139/139 33/140/140 1/141/141
f 2/142/142 1/141/141 33/140/140
f 41/143/143 42/144/144 43/145/145
f 43/145/145 44/146/146 41/143/143
f 44/147/147 43/148/148 45/149/149
f 45/149/149 46/150/150 44/147/147
f 46/151/151 45/152/152 47/153/153
f 47/153/153 48/154/154 46/151/151
f 48/155/155 47/156/156 49/157/157
f 49/157/157 50/158/158 48/155/155
f 50/159/159 49/160/160 51/161/161
f 51/161/161 52/162/162 50/159/159
f 52/163/163 51/164/164 53/165/165
f 53/165/165 54/166/166 52/163/163
f 54/167/167 53/168/168 55/169/169
f 55/169/169 56/170/170 54/167/167
f 56/171/171 55/172/172 57/173/173
f 57/173/173 58/174/174 56/171/171
f 41/175/175 44/176/176 58/177/177
f 41/175/175 58/177/177 59/178/178
f 58/177/177 44/176/176 56/179/179
f 44/176/176 54/180/180 56/179/179
f 46/181/181 48/182/182 52/183/183
f 46/181/181 52/183/183 54/180/180
f 52/183/183 48/182/182 50/184/184
f 46/181/181 54/180/180 44/176/176
f 59/185/185 60/186/186 42/187/187
f 42/187/187 41/188/188 59/185/185
f 58/189/189 57/190/190 60/191/191
f 60/191/191 59/192/192 58/189/189
f 61/193/193 62/194/194 63/195/195
f 61/193/193 64/196/196 65/197/197
f 64/196/196 61/193/193 63/195/195
f 62/194/194 66/198/198 63/195/195
f 67/199/199 68/200/200 66/198/198
f 68/200/200 69/201/201 66/198/198
f 69/201/201 68/200/200 70/202/202
f 67/199/199 66/198/198 62/194/194
f 71/203/203 68/204/204 67/205/205
f 67/205/205 72/206/206 71/203/203
f 57/207/207 71/208/208 60/209/209
f 72/210/210 60/209/209 71/208/208
f 72/211/211 67/212/212 62/213/213
f 62/213/213 73/214/214 72/211/211
f 60/215/215 72/216/216 42/217/217
f 73/218/218 42/217/217 72/216/216
f 74/219/219 70/220/220 68/221/221
f 68/221/221 71/222/222 74/219/219
f 55/223/223 74/224/224 71/225/225
f 71/225/225 57/226/226 55/223/223
f 75/227/227 69/228/228 70/229/229
f 70/229/229 74/230/230 75/227/227
f 53/231/231 75/232/232 74/233/233
f 74/233/233 55/234/234 53/231/231
f 76/235/235 66/236/236 69/237/237
f 69/237/237 75/238/238 76/235/235
f 51/239/239 76/240/240 75/241/241
f 75/241/241 53/242/242 51/239/239
f 77/243/243 63/244/244 66/245/245
f 66/245/245 76/246/246 77/243/243
f 49/247/247 77/248/248 51/249/249
f 76/250/250 51/249/249 77/248/248
f 78/251/251 64/252/252 63/253/253
f 63/253/253 77/254/254 78/251/251
f 47/255/255 78/256/256 49/257/257
f 77/258/258 49/257/257 78/256/256
f 79/259/259 65/260/260 64/261/261
f 64/261/261 78/262/262 79/259/259
f 45/263/263 79/264/264 47/265/265
f 78/266/266 47/265/265 79/264/264
f 80/267/267 61/268/268 65/269/269
f 65/269/269 79/270/270 80/267/267
f 43/271/271 80/272/272 45/273/273
f 79/274/274 45/273/273 80/272/272
f 73/275/275 62/276/276 61/277/277
f 61/277/277 80/278/278 73/275/275
f 42/279/279 73/280/280 43/281/281
f 80/282/282 43/281/281 73/280/280
