# Blender v2.75 (sub 0) OBJ File: 'prism.blend'
# www.blender.org
mtllib prism.mtl
o Cube
v 1.000000 2.177297 -0.611633
v 1.000000 -2.177296 -0.611632
v -1.000000 -2.177296 -0.611632
v -1.000000 2.177297 -0.611633
v -0.000000 2.177296 1.204264
v -0.000000 -2.177297 1.204264
vn 0.000000 -0.000000 -1.000000
vn 0.876000 0.000000 0.482400
vn 0.000000 -1.000000 -0.000000
vn -0.876000 0.000000 0.482400
vn 0.000000 1.000000 0.000000
usemtl Material
s off
f 1//1 2//1 3//1 4//1
f 1//2 5//2 6//2 2//2
f 2//3 6//3 3//3
f 3//4 6//4 5//4 4//4
f 5//5 1//5 4//5
