mtllib shard2.mtl
g objMesh
v 0.031951 0.123808 -0.030055
v 0.234175 0.210061 -0.132423
v 0.186761 0.122055 0.044650
v 0.315920 0.277767 -0.218602
v 0.276709 0.292385 -0.313077
v -0.045080 0.073897 0.146564
v -0.346041 0.068176 0.088354
v -0.014863 0.175683 -0.201097
v 0.357727 0.346203 -0.323128
v 0.257812 0.106891 0.147369
v 0.293083 0.190701 -0.038184
v 0.338788 0.160110 0.105177
v -0.045275 0.044630 0.300650
v 0.104260 0.064395 0.222611
v 0.038934 0.045701 0.351636
v -0.441265 0.096294 0.154285
v -0.344309 0.027823 0.364023
v -0.436054 0.068012 0.353564
v 0.036297 0.269322 -0.364322
v -0.261075 0.184381 -0.175270
v -0.099422 0.277687 -0.326033
v 0.354855 0.265833 -0.127871
v 0.208035 0.080716 0.265381
v -0.193054 0.042999 0.397703
v -0.365556 0.180081 -0.006805
v 0.205358 0.340056 -0.413181
v 0.307218 0.239881 -0.015349
v 0.304731 0.323048 -0.188470
v 0.220728 0.254234 -0.012005
v 0.105669 0.102663 0.266925
v 0.241216 0.162202 0.152329
v 0.105234 0.165941 0.130715
v -0.305848 0.070767 0.369232
v -0.028672 0.095546 0.295231
v -0.192981 0.119340 0.189165
v -0.243737 0.225690 -0.161226
v -0.404533 0.128820 0.165508
v -0.209668 0.175650 -0.075928
v 0.286795 0.348349 -0.318127
v 0.034399 0.289834 -0.321738
v 0.189164 0.278393 -0.173428
v 0.069500 0.204328 -0.026787
vt 0.234692 0.705588
vt 0.264698 0.863806
vt 0.152389 0.778436
vt 0.312174 0.941994
vt 0.264698 0.863806
vt 0.383977 0.935464
vt 0.234692 0.705588
vt 0.152389 0.778436
vt 0.143788 0.607123
vt 0.234692 0.705588
vt 0.143788 0.607123
vt 0.262210 0.454007
vt 0.234692 0.705588
vt 0.262210 0.454007
vt 0.354426 0.723360
vt 0.312174 0.941994
vt 0.383977 0.935464
vt 0.383415 1.000000
vt 0.072064 0.793327
vt 0.188536 0.874480
vt 0.083368 0.864212
vt 0.054659 0.557619
vt 0.060086 0.674804
vt 0.000000 0.596064
vt 0.265786 0.385751
vt 0.112792 0.354574
vt 0.185547 0.294991
vt 0.460191 0.791776
vt 0.403566 0.573095
vt 0.480898 0.699116
vt 0.312174 0.941994
vt 0.383415 1.000000
vt 0.242435 0.947770
vt 0.072064 0.793327
vt 0.083368 0.864212
vt 0.008784 0.730474
vt 0.054659 0.557619
vt 0.000000 0.596064
vt 0.044424 0.438058
vt 0.265786 0.385751
vt 0.185547 0.294991
vt 0.369643 0.452078
vt 0.460191 0.791776
vt 0.480898 0.699116
vt 0.478947 0.912816
vt 0.766264 0.877014
vt 0.647676 0.924121
vt 0.742675 0.825577
vt 0.904233 0.673889
vt 0.860895 0.788958
vt 0.813039 0.711724
vt 0.866466 0.397388
vt 0.888040 0.585119
vt 0.781811 0.512143
vt 0.546501 0.570011
vt 0.713576 0.390002
vt 0.614041 0.568100
vt 0.559421 0.943582
vt 0.509054 0.781921
vt 0.635093 0.843292
vt 0.635093 0.843292
vt 0.614041 0.568100
vt 0.705422 0.729233
vt 0.635093 0.843292
vt 0.509054 0.781921
vt 0.614041 0.568100
vt 0.509054 0.781921
vt 0.546501 0.570011
vt 0.614041 0.568100
vt 0.614041 0.568100
vt 0.781811 0.512143
vt 0.705422 0.729233
vt 0.614041 0.568100
vt 0.713576 0.390002
vt 0.781811 0.512143
vt 0.713576 0.390002
vt 0.866466 0.397388
vt 0.781811 0.512143
vt 0.781811 0.512143
vt 0.813039 0.711724
vt 0.705422 0.729233
vt 0.781811 0.512143
vt 0.888040 0.585119
vt 0.813039 0.711724
vt 0.888040 0.585119
vt 0.904233 0.673889
vt 0.813039 0.711724
vt 0.813039 0.711724
vt 0.742675 0.825577
vt 0.705422 0.729233
vt 0.813039 0.711724
vt 0.860895 0.788958
vt 0.742675 0.825577
vt 0.860895 0.788958
vt 0.766264 0.877014
vt 0.742675 0.825577
vt 0.742675 0.825577
vt 0.635093 0.843292
vt 0.705422 0.729233
vt 0.742675 0.825577
vt 0.647676 0.924121
vt 0.635093 0.843292
vt 0.647676 0.924121
vt 0.559421 0.943582
vt 0.635093 0.843292
vt 0.478947 0.912816
vt 0.509054 0.781921
vt 0.559421 0.943582
vt 0.478947 0.912816
vt 0.480898 0.699116
vt 0.509054 0.781921
vt 0.480898 0.699116
vt 0.546501 0.570011
vt 0.509054 0.781921
vt 0.614077 0.457323
vt 0.713576 0.390002
vt 0.546501 0.570011
vt 0.369643 0.452078
vt 0.185547 0.294991
vt 0.284121 0.374169
vt 0.825396 0.321909
vt 0.866466 0.397388
vt 0.713576 0.390002
vt 0.917540 0.456706
vt 0.888040 0.585119
vt 0.866466 0.397388
vt 0.917540 0.456706
vt 0.950000 0.608226
vt 0.888040 0.585119
vt 0.950000 0.608226
vt 0.904233 0.673889
vt 0.888040 0.585119
vt 0.937106 0.734220
vt 0.860895 0.788958
vt 0.904233 0.673889
vt 0.937106 0.734220
vt 0.864341 0.859931
vt 0.860895 0.788958
vt 0.861964 0.861041
vt 0.766264 0.877014
vt 0.860895 0.788958
vt 0.711488 0.938468
vt 0.647676 0.924121
vt 0.766264 0.877014
vt 0.708358 0.945381
vt 0.574056 0.988103
vt 0.647676 0.924121
vt 0.574056 0.988103
vt 0.559421 0.943582
vt 0.647676 0.924121
vt 0.480898 0.699116
vt 0.369643 0.452078
vt 0.425280 0.567143
vt 0.480898 0.699116
vt 0.403566 0.573095
vt 0.369643 0.452078
vt 0.403566 0.573095
vt 0.265786 0.385751
vt 0.369643 0.452078
vt 0.825396 0.321909
vt 0.921718 0.452908
vt 0.866466 0.397388
vt 0.825396 0.321909
vt 0.879035 0.360283
vt 0.921718 0.452908
vt 0.112792 0.354574
vt 0.054659 0.557619
vt 0.044424 0.438058
vt 0.950000 0.608226
vt 0.937106 0.734220
vt 0.904233 0.673889
vt 0.000000 0.596064
vt 0.060086 0.674804
vt 0.008784 0.730474
vt 0.060086 0.674804
vt 0.072064 0.793327
vt 0.008784 0.730474
vt 0.861964 0.861041
vt 0.711488 0.938468
vt 0.766264 0.877014
vt 0.083368 0.864212
vt 0.188536 0.874480
vt 0.242435 0.947770
vt 0.188536 0.874480
vt 0.312174 0.941994
vt 0.242435 0.947770
vt 0.572151 0.988600
vt 0.478947 0.912816
vt 0.559421 0.943582
vt 0.383415 1.000000
vt 0.383977 0.935464
vt 0.478947 0.912816
vt 0.383977 0.935464
vt 0.460191 0.791776
vt 0.478947 0.912816
vt 0.354426 0.723360
vt 0.403566 0.573095
vt 0.460191 0.791776
vt 0.354426 0.723360
vt 0.262210 0.454007
vt 0.403566 0.573095
vt 0.262210 0.454007
vt 0.265786 0.385751
vt 0.403566 0.573095
vt 0.262210 0.454007
vt 0.112792 0.354574
vt 0.265786 0.385751
vt 0.262210 0.454007
vt 0.143788 0.607123
vt 0.112792 0.354574
vt 0.143788 0.607123
vt 0.054659 0.557619
vt 0.112792 0.354574
vt 0.143788 0.607123
vt 0.060086 0.674804
vt 0.054659 0.557619
vt 0.143788 0.607123
vt 0.152389 0.778436
vt 0.060086 0.674804
vt 0.152389 0.778436
vt 0.072064 0.793327
vt 0.060086 0.674804
vt 0.383977 0.935464
vt 0.354426 0.723360
vt 0.460191 0.791776
vt 0.383977 0.935464
vt 0.264698 0.863806
vt 0.354426 0.723360
vt 0.264698 0.863806
vt 0.234692 0.705588
vt 0.354426 0.723360
vt 0.152389 0.778436
vt 0.188536 0.874480
vt 0.072064 0.793327
vt 0.152389 0.778436
vt 0.264698 0.863806
vt 0.188536 0.874480
vt 0.264698 0.863806
vt 0.312174 0.941994
vt 0.188536 0.874480
vn 0.181597 -0.897604 -0.397438
vn 0.181597 -0.897604 -0.397438
vn 0.181597 -0.897604 -0.397438
vn 0.399917 -0.864223 -0.299688
vn 0.399917 -0.864223 -0.299688
vn 0.399917 -0.864223 -0.299688
vn 0.099828 -0.966432 -0.229504
vn 0.099828 -0.966432 -0.229504
vn 0.099828 -0.966432 -0.229504
vn 0.065587 -0.965740 -0.244280
vn 0.065587 -0.965740 -0.244280
vn 0.065587 -0.965740 -0.244280
vn 0.045723 -0.950790 -0.300891
vn 0.045723 -0.950790 -0.300891
vn 0.045723 -0.950790 -0.300891
vn 0.492880 -0.803463 -0.328853
vn 0.492880 -0.803463 -0.328853
vn 0.492880 -0.803463 -0.328853
vn 0.402228 -0.858965 -0.311480
vn 0.402228 -0.858965 -0.311480
vn 0.402228 -0.858965 -0.311480
vn 0.076074 -0.989864 -0.104927
vn 0.076074 -0.989864 -0.104927
vn 0.076074 -0.989864 -0.104927
vn -0.386254 -0.912773 -0.119500
vn -0.386254 -0.912773 -0.119500
vn -0.386254 -0.912773 -0.119500
vn -0.234502 -0.692324 -0.679945
vn -0.234502 -0.692324 -0.679945
vn -0.234502 -0.692324 -0.679945
vn 0.504364 -0.799275 -0.321567
vn 0.504364 -0.799275 -0.321567
vn 0.504364 -0.799275 -0.321567
vn 0.568324 -0.818694 0.058100
vn 0.568324 -0.818694 0.058100
vn 0.568324 -0.818694 0.058100
vn 0.011880 -0.998241 0.001298
vn 0.011880 -0.998241 0.001298
vn 0.011880 -0.998241 0.001298
vn -0.600263 0.787440 0.127480
vn -0.600263 0.787440 0.127480
vn -0.600263 0.787440 0.127480
vn -0.271844 -0.013777 -0.960489
vn -0.271844 -0.013777 -0.960489
vn -0.271844 -0.013777 -0.960489
vn 0.163823 0.888597 0.424482
vn 0.163823 0.888597 0.424482
vn 0.163823 0.888597 0.424482
vn -0.041927 0.904523 0.420367
vn -0.041927 0.904523 0.420367
vn -0.041927 0.904523 0.420367
vn -0.020166 0.966762 0.248179
vn -0.020166 0.966762 0.248179
vn -0.020166 0.966762 0.248179
vn 0.283424 0.870739 0.397633
vn 0.283424 0.870739 0.397633
vn 0.283424 0.870739 0.397633
vn -0.219139 0.926575 0.300106
vn -0.219139 0.926575 0.300106
vn -0.219139 0.926575 0.300106
vn -0.155038 0.925435 0.340824
vn -0.155038 0.925435 0.340824
vn -0.155038 0.925435 0.340824
vn -0.180099 0.946620 0.260964
vn -0.180099 0.946620 0.260964
vn -0.180099 0.946620 0.260964
vn 0.076473 0.871555 0.480803
vn 0.076473 0.871555 0.480803
vn 0.076473 0.871555 0.480803
vn -0.136763 0.965527 0.213730
vn -0.136763 0.965527 0.213730
vn -0.136763 0.965527 0.213730
vn 0.020666 0.976576 0.206157
vn 0.020666 0.976576 0.206157
vn 0.020666 0.976576 0.206157
vn 0.013178 0.961675 0.267648
vn 0.013178 0.961675 0.267648
vn 0.013178 0.961675 0.267648
vn -0.099728 0.959642 0.256457
vn -0.099728 0.959642 0.256457
vn -0.099728 0.959642 0.256457
vn -0.080661 0.936882 0.335221
vn -0.080661 0.936882 0.335221
vn -0.080661 0.936882 0.335221
vn 0.040631 0.904665 0.420187
vn 0.040631 0.904665 0.420187
vn 0.040631 0.904665 0.420187
vn -0.324752 0.897587 0.292407
vn -0.324752 0.897587 0.292407
vn -0.324752 0.897587 0.292407
vn -0.054406 0.866808 0.492252
vn -0.054406 0.866808 0.492252
vn -0.054406 0.866808 0.492252
vn 0.162026 0.867930 0.465911
vn 0.162026 0.867930 0.465911
vn 0.162026 0.867930 0.465911
vn -0.324134 0.922488 0.201448
vn -0.324134 0.922488 0.201448
vn -0.324134 0.922488 0.201448
vn -0.329356 0.920479 0.202166
vn -0.329356 0.920479 0.202166
vn -0.329356 0.920479 0.202166
vn -0.325145 0.916935 0.223918
vn -0.325145 0.916935 0.223918
vn -0.325145 0.916935 0.223918
vn -0.225616 0.966354 0.109014
vn -0.225616 0.966354 0.109014
vn -0.225616 0.966354 0.109014
vn -0.095643 0.935568 0.334951
vn -0.095643 0.935568 0.334951
vn -0.095643 0.935568 0.334951
vn -0.095042 0.968589 0.222330
vn -0.095042 0.968589 0.222330
vn -0.095042 0.968589 0.222330
vn 0.003594 0.956639 0.285405
vn 0.003594 0.956639 0.285405
vn 0.003594 0.956639 0.285405
vn -0.378866 -0.858363 -0.341029
vn -0.378866 -0.858363 -0.341029
vn -0.378866 -0.858363 -0.341029
vn -0.056005 0.951089 0.298195
vn -0.056005 0.951089 0.298195
vn -0.056005 0.951089 0.298195
vn 0.069481 0.836471 0.540477
vn 0.069481 0.836471 0.540477
vn 0.069481 0.836471 0.540477
vn 0.106316 0.803612 0.582694
vn 0.106316 0.803612 0.582694
vn 0.106316 0.803612 0.582694
vn 0.084355 0.793440 0.599971
vn 0.084355 0.793440 0.599971
vn 0.084355 0.793440 0.599971
vn 0.174708 0.772309 0.607983
vn 0.174708 0.772309 0.607983
vn 0.174708 0.772309 0.607983
vn 0.311775 0.723582 0.613068
vn 0.311775 0.723582 0.613068
vn 0.311775 0.723582 0.613068
vn 0.252784 0.834527 0.486100
vn 0.252784 0.834527 0.486100
vn 0.252784 0.834527 0.486100
vn 0.457723 0.802238 0.378857
vn 0.457723 0.802238 0.378857
vn 0.457723 0.802238 0.378857
vn 0.502865 0.794880 0.334545
vn 0.502865 0.794880 0.334545
vn 0.502865 0.794880 0.334545
vn 0.042727 0.980036 0.185285
vn 0.042727 0.980036 0.185285
vn 0.042727 0.980036 0.185285
vn 0.224428 -0.966698 -0.108420
vn 0.224428 -0.966698 -0.108420
vn 0.224428 -0.966698 -0.108420
vn -0.716483 0.545873 -0.430469
vn -0.716483 0.545873 -0.430469
vn -0.716483 0.545873 -0.430469
vn -0.818814 -0.248679 -0.514130
vn -0.818814 -0.248679 -0.514130
vn -0.818814 -0.248679 -0.514130
vn -0.116304 0.439261 0.888904
vn -0.116304 0.439261 0.888904
vn -0.116304 0.439261 0.888904
vn -0.194269 -0.193770 0.959865
vn -0.194269 -0.193770 0.959865
vn -0.194269 -0.193770 0.959865
vn 0.076972 -0.990251 0.100533
vn 0.076972 -0.990251 0.100533
vn 0.076972 -0.990251 0.100533
vn 0.170218 0.748958 0.637742
vn 0.170218 0.748958 0.637742
vn 0.170218 0.748958 0.637742
vn 0.176196 -0.981210 -0.053009
vn 0.176196 -0.981210 -0.053009
vn 0.176196 -0.981210 -0.053009
vn 0.205150 -0.968548 -0.128281
vn 0.205150 -0.968548 -0.128281
vn 0.205150 -0.968548 -0.128281
vn 0.490051 0.778851 0.387129
vn 0.490051 0.778851 0.387129
vn 0.490051 0.778851 0.387129
vn 0.496441 -0.801113 -0.329230
vn 0.496441 -0.801113 -0.329230
vn 0.496441 -0.801113 -0.329230
vn 0.504766 -0.798980 -0.321668
vn 0.504766 -0.798980 -0.321668
vn 0.504766 -0.798980 -0.321668
vn 0.022562 0.992421 -0.105921
vn 0.022562 0.992421 -0.105921
vn 0.022562 0.992421 -0.105921
vn 0.385738 -0.693809 -0.605361
vn 0.385738 -0.693809 -0.605361
vn 0.385738 -0.693809 -0.605361
vn 0.191881 -0.824331 -0.529421
vn 0.191881 -0.824331 -0.529421
vn 0.191881 -0.824331 -0.529421
vn -0.084057 -0.851248 -0.514722
vn -0.084057 -0.851248 -0.514722
vn -0.084057 -0.851248 -0.514722
vn -0.076069 -0.901544 -0.421972
vn -0.076069 -0.901544 -0.421972
vn -0.076069 -0.901544 -0.421972
vn -0.535888 -0.693321 -0.478286
vn -0.535888 -0.693321 -0.478286
vn -0.535888 -0.693321 -0.478286
vn -0.363471 -0.920308 -0.132471
vn -0.363471 -0.920308 -0.132471
vn -0.363471 -0.920308 -0.132471
vn 0.046722 -0.986656 -0.144759
vn 0.046722 -0.986656 -0.144759
vn 0.046722 -0.986656 -0.144759
vn 0.015674 -0.980652 -0.186287
vn 0.015674 -0.980652 -0.186287
vn 0.015674 -0.980652 -0.186287
vn 0.032446 -0.980260 -0.186188
vn 0.032446 -0.980260 -0.186188
vn 0.032446 -0.980260 -0.186188
vn 0.078466 -0.956868 -0.273633
vn 0.078466 -0.956868 -0.273633
vn 0.078466 -0.956868 -0.273633
vn 0.146148 -0.957350 -0.242382
vn 0.146148 -0.957350 -0.242382
vn 0.146148 -0.957350 -0.242382
vn 0.178987 -0.875069 -0.445920
vn 0.178987 -0.875069 -0.445920
vn 0.178987 -0.875069 -0.445920
vn 0.223927 -0.904094 -0.359302
vn 0.223927 -0.904094 -0.359302
vn 0.223927 -0.904094 -0.359302
vn 0.219130 -0.913757 -0.337131
vn 0.219130 -0.913757 -0.337131
vn 0.219130 -0.913757 -0.337131
vn 0.305674 -0.886574 -0.342311
vn 0.305674 -0.886574 -0.342311
vn 0.305674 -0.886574 -0.342311
vn 0.288818 -0.884323 -0.362195
vn 0.288818 -0.884323 -0.362195
vn 0.288818 -0.884323 -0.362195
vn 0.319662 -0.866941 -0.377964
vn 0.319662 -0.866941 -0.377964
vn 0.319662 -0.866941 -0.377964
usemtl None
f 1/1/1 2/2/2 3/3/3
f 4/4/4 2/5/5 5/6/6
f 1/7/7 3/8/8 6/9/9
f 1/10/10 6/11/11 7/12/12
f 1/13/13 7/14/14 8/15/15
f 4/16/16 5/17/17 9/18/18
f 10/19/19 11/20/20 12/21/21
f 13/22/22 14/23/23 15/24/24
f 16/25/25 17/26/26 18/27/27
f 19/28/28 20/29/29 21/30/30
f 4/31/31 9/32/32 22/33/33
f 10/34/34 12/35/35 23/36/36
f 13/37/37 15/38/38 24/39/39
f 16/40/40 18/41/41 25/42/42
f 19/43/43 21/44/44 26/45/45
f 27/46/46 28/47/47 29/48/48
f 30/49/49 31/50/50 32/51/51
f 33/52/52 34/53/53 35/54/54
f 36/55/55 37/56/56 38/57/57
f 39/58/58 40/59/59 41/60/60
f 41/61/61 38/62/62 42/63/63
f 41/64/64 40/65/65 38/66/66
f 40/67/67 36/68/68 38/69/69
f 38/70/70 35/71/71 42/72/72
f 38/73/73 37/74/74 35/75/75
f 37/76/76 33/77/77 35/78/78
f 35/79/79 32/80/80 42/81/81
f 35/82/82 34/83/83 32/84/84
f 34/85/85 30/86/86 32/87/87
f 32/88/88 29/89/89 42/90/90
f 32/91/91 31/92/92 29/93/93
f 31/94/94 27/95/95 29/96/96
f 29/97/97 41/98/98 42/99/99
f 29/100/100 28/101/101 41/102/102
f 28/103/103 39/104/104 41/105/105
f 26/106/106 40/107/107 39/108/108
f 26/109/109 21/110/110 40/111/111
f 21/112/112 36/113/113 40/114/114
f 25/115/115 37/116/116 36/117/117
f 25/118/118 18/119/119 37/120/120
f 18/121/121 33/122/122 37/123/123
f 24/124/124 34/125/125 33/126/126
f 24/127/127 15/128/128 34/129/129
f 15/130/130 30/131/131 34/132/132
f 23/133/133 31/134/134 30/135/135
f 23/136/136 12/137/137 31/138/138
f 12/139/139 27/140/140 31/141/141
f 22/142/142 28/143/143 27/144/144
f 22/145/145 9/146/146 28/147/147
f 9/148/148 39/149/149 28/150/150
f 21/151/151 25/152/152 36/153/153
f 21/154/154 20/155/155 25/156/156
f 20/157/157 16/158/158 25/159/159
f 18/160/160 24/161/161 33/162/162
f 18/163/163 17/164/164 24/165/165
f 17/166/166 13/167/167 24/168/168
f 15/169/169 23/170/170 30/171/171
f 15/172/172 14/173/173 23/174/174
f 14/175/175 10/176/176 23/177/177
f 12/178/178 22/179/179 27/180/180
f 12/181/181 11/182/182 22/183/183
f 11/184/184 4/185/185 22/186/186
f 9/187/187 26/188/188 39/189/189
f 9/190/190 5/191/191 26/192/192
f 5/193/193 19/194/194 26/195/195
f 8/196/196 20/197/197 19/198/198
f 8/199/199 7/200/200 20/201/201
f 7/202/202 16/203/203 20/204/204
f 7/205/205 17/206/206 16/207/207
f 7/208/208 6/209/209 17/210/210
f 6/211/211 13/212/212 17/213/213
f 6/214/214 14/215/215 13/216/216
f 6/217/217 3/218/218 14/219/219
f 3/220/220 10/221/221 14/222/222
f 5/223/223 8/224/224 19/225/225
f 5/226/226 2/227/227 8/228/228
f 2/229/229 1/230/230 8/231/231
f 3/232/232 11/233/233 10/234/234
f 3/235/235 2/236/236 11/237/237
f 2/238/238 4/239/239 11/240/240
