mtllib vase2.mtl
g objMesh
v -0.974928 0.000000 0.222521
v -0.781832 0.000000 -0.623490
v -0.433884 0.000000 0.900969
v 0.433884 0.000000 0.900969
v 0.000000 0.000000 -1.000000
v 0.781832 0.000000 -0.623490
v 0.974928 0.000000 0.222521
v -1.804960 2.202111 0.411970
v -1.393416 0.527779 0.318038
v -0.803282 2.202111 1.668034
v -0.620128 0.527779 1.287710
v 1.393415 0.527779 0.318038
v 1.117433 0.527779 -0.891123
v 0.620128 0.527779 1.287710
v -1.117433 0.527779 -0.891123
v 0.000000 0.527779 -1.429250
v 1.447466 4.113033 -1.154315
v 1.447466 2.202111 -1.154315
v 0.000000 2.202111 -1.851378
v 0.000000 4.113033 -1.851378
v -1.447466 2.202111 -1.154315
v 1.804960 2.202111 0.411970
v 0.803283 2.202111 1.668033
v 1.501638 5.787407 0.342739
v 1.804960 4.113033 0.411970
v 1.204220 5.787407 -0.960333
v 0.803283 4.113033 1.668033
v -1.804960 4.113033 0.411970
v -0.803282 4.113033 1.668034
v -1.447466 4.113033 -1.154315
v 0.452314 6.660993 0.939239
v 0.668292 5.787407 1.387722
v 1.016340 6.660993 0.231973
v -0.668292 5.787407 1.387722
v -1.204221 5.787407 -0.960334
v -1.501638 5.787407 0.342739
v 0.000000 5.787407 -1.540256
v -0.616453 7.006788 -0.491605
v -0.815041 6.660993 -0.649974
v -1.016339 6.660993 0.231973
v -0.768704 7.006788 0.175452
v -0.452313 6.660993 0.939239
v 0.000000 6.660993 -1.042477
v 0.815041 6.660993 -0.649973
v 0.899468 7.261584 0.205298
v 0.768705 7.006788 0.175452
v 0.721317 7.261584 -0.575231
v 0.616453 7.006788 -0.491605
v 0.000000 7.006788 -0.788473
v 0.342106 7.006788 0.710390
v -0.342105 7.006788 0.710390
v 0.976982 7.625577 -0.779117
v 0.000000 7.261584 -0.922599
v 0.000000 7.625577 -1.249607
v -0.400300 7.261584 0.831233
v 0.400301 7.261584 0.831233
v -0.721317 7.261584 -0.575231
v -0.899467 7.261584 0.205298
v -0.542184 7.752975 1.125857
v -0.542184 7.625577 1.125857
v 0.542184 7.625577 1.125857
v 0.542184 7.752975 1.125857
v 1.218277 7.625577 0.278064
v -1.218277 7.625577 0.278064
v -0.976982 7.625577 -0.779117
v 0.000000 7.880373 -0.948298
v 0.000000 7.752975 -1.249607
v -0.976982 7.752975 -0.779117
v -0.741409 7.880373 -0.591254
v -1.218277 7.752975 0.278064
v 0.976982 7.752975 -0.779117
v 1.218277 7.752975 0.278064
v 0.741409 7.880373 -0.591254
v 0.924522 7.880373 0.211016
v -0.924522 7.880373 0.211016
v -0.411451 7.880373 0.854387
v 0.411451 7.880373 0.854387
vt 0.129239 0.690018
vt 0.147147 0.739397
vt 0.077789 0.673106
vt 0.031050 0.702248
vt 0.116887 0.783685
vt 0.067548 0.799345
vt 0.027000 0.758554
vt 0.318750 0.723076
vt 0.247958 0.636271
vt 0.383390 0.648527
vt 0.304419 0.580305
vt 0.392573 0.439568
vt 0.357605 0.423343
vt 0.379338 0.366288
vt 0.426573 0.364404
vt 0.304419 0.580305
vt 0.273157 0.554975
vt 0.348236 0.510411
vt 0.031050 0.702248
vt 0.000000 0.673811
vt 0.077789 0.673106
vt 0.184043 0.758782
vt 0.147147 0.739397
vt 0.211946 0.689797
vt 0.231872 0.594465
vt 0.247958 0.636271
vt 0.178162 0.598945
vt 0.074871 0.848366
vt 0.067548 0.799345
vt 0.139504 0.813261
vt 0.116887 0.783685
vt 0.348236 0.510411
vt 0.322282 0.474284
vt 0.392573 0.439568
vt 0.357605 0.423343
vt 0.247958 0.636271
vt 0.231872 0.594465
vt 0.273157 0.554975
vt 0.304419 0.580305
vt 0.139504 0.813261
vt 0.116887 0.783685
vt 0.147147 0.739397
vt 0.184043 0.758782
vt 0.636078 0.471907
vt 0.540438 0.396593
vt 0.617113 0.322712
vt 0.709987 0.408238
vt 0.210783 0.896109
vt 0.139504 0.813261
vt 0.184043 0.758782
vt 0.269109 0.813995
vt 0.486142 0.483778
vt 0.392573 0.439568
vt 0.426573 0.364404
vt 0.540438 0.396593
vt 0.383390 0.648527
vt 0.304419 0.580305
vt 0.348236 0.510411
vt 0.435445 0.568906
vt 0.269109 0.813995
vt 0.184043 0.758782
vt 0.318750 0.723076
vt 0.211946 0.689797
vt 0.121637 0.946047
vt 0.074871 0.848366
vt 0.210783 0.896109
vt 0.139504 0.813261
vt 0.435445 0.568906
vt 0.348236 0.510411
vt 0.392573 0.439568
vt 0.486142 0.483778
vt 0.658324 0.606395
vt 0.578543 0.545788
vt 0.709145 0.547397
vt 0.636078 0.471907
vt 0.529165 0.629538
vt 0.435445 0.568906
vt 0.486142 0.483778
vt 0.578543 0.545788
vt 0.418018 0.792967
vt 0.318750 0.723076
vt 0.383390 0.648527
vt 0.483384 0.719630
vt 0.316853 0.963863
vt 0.210783 0.896109
vt 0.269109 0.813995
vt 0.363787 0.873775
vt 0.578543 0.545788
vt 0.486142 0.483778
vt 0.540438 0.396593
vt 0.636078 0.471907
vt 0.483384 0.719630
vt 0.383390 0.648527
vt 0.435445 0.568906
vt 0.529165 0.629538
vt 0.363787 0.873775
vt 0.269109 0.813995
vt 0.318750 0.723076
vt 0.418018 0.792967
vt 0.675717 0.692815
vt 0.619326 0.675272
vt 0.704045 0.641834
vt 0.658324 0.606395
vt 0.594792 0.750582
vt 0.483384 0.719630
vt 0.619326 0.675272
vt 0.529165 0.629538
vt 0.452121 0.923925
vt 0.363787 0.873775
vt 0.497136 0.858156
vt 0.418018 0.792967
vt 0.709145 0.547397
vt 0.636078 0.471907
vt 0.709987 0.408238
vt 0.773716 0.504420
vt 0.619326 0.675272
vt 0.529165 0.629538
vt 0.658324 0.606395
vt 0.578543 0.545788
vt 0.497136 0.858156
vt 0.418018 0.792967
vt 0.557544 0.801001
vt 0.483384 0.719630
vt 0.425612 0.998903
vt 0.316853 0.963863
vt 0.452121 0.923925
vt 0.363787 0.873775
vt 0.533129 0.955076
vt 0.508265 0.947355
vt 0.540678 0.898291
vt 0.558837 0.916157
vt 0.540678 0.898291
vt 0.497136 0.858156
vt 0.557544 0.801001
vt 0.584572 0.863141
vt 0.494548 1.000000
vt 0.425612 0.998903
vt 0.508265 0.947355
vt 0.452121 0.923925
vt 0.704045 0.641834
vt 0.658324 0.606395
vt 0.743545 0.598896
vt 0.709145 0.547397
vt 0.663344 0.749474
vt 0.594792 0.750582
vt 0.619326 0.675272
vt 0.675717 0.692815
vt 0.508265 0.947355
vt 0.452121 0.923925
vt 0.497136 0.858156
vt 0.540678 0.898291
vt 0.743545 0.598896
vt 0.709145 0.547397
vt 0.793094 0.571075
vt 0.773716 0.504420
vt 0.734106 0.670111
vt 0.724410 0.656668
vt 0.770853 0.634324
vt 0.756414 0.622192
vt 0.756414 0.622192
vt 0.743545 0.598896
vt 0.793094 0.571075
vt 0.795244 0.601345
vt 0.700555 0.698846
vt 0.675717 0.692815
vt 0.724410 0.656668
vt 0.704045 0.641834
vt 0.558837 0.916157
vt 0.540678 0.898291
vt 0.584572 0.863141
vt 0.593338 0.889938
vt 0.523145 0.996910
vt 0.494548 1.000000
vt 0.508265 0.947355
vt 0.533129 0.955076
vt 0.724410 0.656668
vt 0.704045 0.641834
vt 0.743545 0.598896
vt 0.756414 0.622192
vt 0.692184 0.743492
vt 0.663344 0.749474
vt 0.675717 0.692815
vt 0.700555 0.698846
vt 0.804718 0.648308
vt 0.817613 0.621108
vt 0.867116 0.628451
vt 0.872041 0.658709
vt 0.783448 0.833997
vt 0.770156 0.845989
vt 0.743044 0.804793
vt 0.735687 0.821011
vt 0.935444 0.750588
vt 0.950000 0.761059
vt 0.932959 0.800252
vt 0.915539 0.796567
vt 0.817613 0.621108
vt 0.823627 0.604367
vt 0.867116 0.628451
vt 0.865876 0.610548
vt 0.720160 0.764037
vt 0.702482 0.761898
vt 0.716246 0.714362
vt 0.699084 0.719482
vt 0.879124 0.828958
vt 0.880062 0.846862
vt 0.838919 0.858011
vt 0.830945 0.842100
vt 0.907419 0.656484
vt 0.924313 0.650843
vt 0.945746 0.687824
vt 0.932487 0.699872
vt 0.812782 0.809263
vt 0.807884 0.815709
vt 0.752868 0.776245
vt 0.757301 0.769946
vt 0.749635 0.770472
vt 0.720160 0.764037
vt 0.716246 0.714362
vt 0.744588 0.703006
vt 0.880328 0.798385
vt 0.879124 0.828958
vt 0.814918 0.816582
vt 0.830945 0.842100
vt 0.877958 0.663280
vt 0.907419 0.656484
vt 0.911869 0.722523
vt 0.932487 0.699872
vt 0.747563 0.696774
vt 0.734106 0.670111
vt 0.797591 0.649772
vt 0.770853 0.634324
vt 0.807884 0.815709
vt 0.783448 0.833997
vt 0.752868 0.776245
vt 0.743044 0.804793
vt 0.912361 0.730483
vt 0.935444 0.750588
vt 0.885544 0.793241
vt 0.915539 0.796567
vt 0.859725 0.683672
vt 0.871181 0.666897
vt 0.905024 0.726902
vt 0.884401 0.728049
vt 0.905024 0.726902
vt 0.912361 0.730483
vt 0.885544 0.793241
vt 0.878437 0.790431
vt 0.803419 0.655767
vt 0.804718 0.648308
vt 0.872041 0.658709
vt 0.871181 0.666897
vt 0.757301 0.769946
vt 0.749635 0.770472
vt 0.744588 0.703006
vt 0.752661 0.702186
vt 0.878437 0.790431
vt 0.880328 0.798385
vt 0.814918 0.816582
vt 0.812782 0.809263
vt 0.871181 0.666897
vt 0.877958 0.663280
vt 0.911869 0.722523
vt 0.905024 0.726902
vt 0.752661 0.702186
vt 0.747563 0.696774
vt 0.797591 0.649772
vt 0.803419 0.655767
vt 0.859725 0.683672
vt 0.884401 0.728049
vt 0.809488 0.675243
vt 0.771539 0.709363
vt 0.865112 0.775151
vt 0.816372 0.789335
vt 0.774750 0.760125
vt 0.771539 0.709363
vt 0.752661 0.702186
vt 0.803419 0.655767
vt 0.809488 0.675243
vt 0.816372 0.789335
vt 0.812782 0.809263
vt 0.774750 0.760125
vt 0.757301 0.769946
vt 0.884401 0.728049
vt 0.905024 0.726902
vt 0.865112 0.775151
vt 0.878437 0.790431
vt 0.809488 0.675243
vt 0.803419 0.655767
vt 0.871181 0.666897
vt 0.859725 0.683672
vt 0.774750 0.760125
vt 0.757301 0.769946
vt 0.752661 0.702186
vt 0.771539 0.709363
vt 0.865112 0.775151
vt 0.878437 0.790431
vt 0.816372 0.789335
vt 0.812782 0.809263
vn 0.000000 -1.000000 0.000000
vn 0.000000 -1.000000 0.000000
vn 0.000000 -1.000000 0.000000
vn 0.000000 -1.000000 0.000000
vn 0.000000 -1.000000 0.000000
vn 0.000000 -1.000000 0.000000
vn 0.000000 -1.000000 0.000000
vn -0.761121 -0.221128 0.606980
vn -0.761121 -0.221128 0.606980
vn -0.761121 -0.221128 0.606980
vn -0.761121 -0.221128 0.606980
vn 0.785055 -0.590089 -0.179193
vn 0.785055 -0.590089 -0.179193
vn 0.785055 -0.590089 -0.179193
vn 0.785055 -0.590089 -0.179193
vn 0.000000 -0.590102 0.805238
vn 0.000000 -0.590102 0.805238
vn 0.000000 -0.590102 0.805238
vn 0.000000 -0.590102 0.805238
vn 0.000000 -0.590102 0.805238
vn 0.000000 -0.590102 0.805238
vn -0.785055 -0.590089 -0.179193
vn -0.785055 -0.590089 -0.179193
vn -0.785055 -0.590089 -0.179193
vn -0.785055 -0.590089 -0.179193
vn -0.785055 -0.590089 -0.179193
vn -0.785055 -0.590089 -0.179193
vn 0.349411 -0.590105 -0.725476
vn 0.349411 -0.590105 -0.725476
vn 0.349411 -0.590105 -0.725476
vn 0.349411 -0.590105 -0.725476
vn 0.629547 -0.590113 0.502060
vn 0.629547 -0.590113 0.502060
vn 0.629547 -0.590113 0.502060
vn 0.629547 -0.590113 0.502060
vn -0.629547 -0.590113 0.502060
vn -0.629547 -0.590113 0.502060
vn -0.629547 -0.590113 0.502060
vn -0.629547 -0.590113 0.502060
vn -0.349411 -0.590105 -0.725476
vn -0.349411 -0.590105 -0.725476
vn -0.349411 -0.590105 -0.725476
vn -0.349411 -0.590105 -0.725476
vn 0.433153 0.000000 -0.899448
vn 0.433153 0.000000 -0.899448
vn 0.433153 0.000000 -0.899448
vn 0.433153 0.000000 -0.899448
vn -0.422383 -0.221125 -0.877111
vn -0.422383 -0.221125 -0.877111
vn -0.422383 -0.221125 -0.877111
vn -0.422383 -0.221125 -0.877111
vn 0.949104 -0.221128 -0.216636
vn 0.949104 -0.221128 -0.216636
vn 0.949104 -0.221128 -0.216636
vn 0.949104 -0.221128 -0.216636
vn 0.000000 -0.221118 0.973517
vn 0.000000 -0.221118 0.973517
vn 0.000000 -0.221118 0.973517
vn 0.000000 -0.221118 0.973517
vn -0.949104 -0.221128 -0.216636
vn -0.949104 -0.221128 -0.216636
vn -0.949104 -0.221128 -0.216636
vn -0.949104 -0.221128 -0.216636
vn 0.422383 -0.221125 -0.877111
vn 0.422383 -0.221125 -0.877111
vn 0.422383 -0.221125 -0.877111
vn 0.422383 -0.221125 -0.877111
vn 0.761121 -0.221128 0.606980
vn 0.761121 -0.221128 0.606980
vn 0.761121 -0.221128 0.606980
vn 0.761121 -0.221128 0.606980
vn 0.959916 0.164828 -0.219138
vn 0.959916 0.164828 -0.219138
vn 0.959916 0.164828 -0.219138
vn 0.959916 0.164828 -0.219138
vn 0.780495 0.000000 0.622459
vn 0.780495 0.000000 0.622459
vn 0.780495 0.000000 0.622459
vn 0.780495 0.000000 0.622459
vn -0.780495 0.000000 0.622459
vn -0.780495 0.000000 0.622459
vn -0.780495 0.000000 0.622459
vn -0.780495 0.000000 0.622459
vn -0.433153 0.000000 -0.899448
vn -0.433153 0.000000 -0.899448
vn -0.433153 0.000000 -0.899448
vn -0.433153 0.000000 -0.899448
vn 0.973286 0.000000 -0.222132
vn 0.973286 0.000000 -0.222132
vn 0.973286 0.000000 -0.222132
vn 0.973286 0.000000 -0.222132
vn 0.000000 0.000000 1.000000
vn 0.000000 0.000000 1.000000
vn 0.000000 0.000000 1.000000
vn 0.000000 0.000000 1.000000
vn -0.973286 0.000000 -0.222132
vn -0.973286 0.000000 -0.222132
vn -0.973286 0.000000 -0.222132
vn -0.973286 0.000000 -0.222132
vn 0.694331 0.455932 0.553767
vn 0.694331 0.455932 0.553767
vn 0.694331 0.455932 0.553767
vn 0.694331 0.455932 0.553767
vn 0.000000 0.164818 0.984613
vn 0.000000 0.164818 0.984613
vn 0.000000 0.164818 0.984613
vn 0.000000 0.164818 0.984613
vn -0.959916 0.164828 -0.219138
vn -0.959916 0.164828 -0.219138
vn -0.959916 0.164828 -0.219138
vn -0.959916 0.164828 -0.219138
vn 0.427185 0.164824 -0.887115
vn 0.427185 0.164824 -0.887115
vn 0.427185 0.164824 -0.887115
vn 0.427185 0.164824 -0.887115
vn 0.769816 0.164825 0.613876
vn 0.769816 0.164825 0.613876
vn 0.769816 0.164825 0.613876
vn 0.769816 0.164825 0.613876
vn -0.769816 0.164825 0.613876
vn -0.769816 0.164825 0.613876
vn -0.769816 0.164825 0.613876
vn -0.769816 0.164825 0.613876
vn -0.427185 0.164824 -0.887115
vn -0.427185 0.164824 -0.887115
vn -0.427185 0.164824 -0.887115
vn -0.427185 0.164824 -0.887115
vn -0.811624 0.550966 -0.185286
vn -0.811624 0.550966 -0.185286
vn -0.811624 0.550966 -0.185286
vn -0.811624 0.550966 -0.185286
vn -0.694331 0.455932 0.553767
vn -0.694331 0.455932 0.553767
vn -0.694331 0.455932 0.553767
vn -0.694331 0.455932 0.553767
vn -0.385354 0.455935 -0.800158
vn -0.385354 0.455935 -0.800158
vn -0.385354 0.455935 -0.800158
vn -0.385354 0.455935 -0.800158
vn 0.865841 0.455932 -0.197667
vn 0.865841 0.455932 -0.197667
vn 0.865841 0.455932 -0.197667
vn 0.865841 0.455932 -0.197667
vn 0.000000 0.455938 0.888115
vn 0.000000 0.455938 0.888115
vn 0.000000 0.455938 0.888115
vn 0.000000 0.455938 0.888115
vn -0.865841 0.455932 -0.197667
vn -0.865841 0.455932 -0.197667
vn -0.865841 0.455932 -0.197667
vn -0.865841 0.455932 -0.197667
vn 0.385354 0.455935 -0.800158
vn 0.385354 0.455935 -0.800158
vn 0.385354 0.455935 -0.800158
vn 0.385354 0.455935 -0.800158
vn 0.879397 -0.427769 -0.200757
vn 0.879397 -0.427769 -0.200757
vn 0.879397 -0.427769 -0.200757
vn 0.879397 -0.427769 -0.200757
vn 0.361199 0.550984 -0.750053
vn 0.361199 0.550984 -0.750053
vn 0.361199 0.550984 -0.750053
vn 0.361199 0.550984 -0.750053
vn 0.650902 0.550970 0.519024
vn 0.650902 0.550970 0.519024
vn 0.650902 0.550970 0.519024
vn 0.650902 0.550970 0.519024
vn -0.650902 0.550970 0.519024
vn -0.650902 0.550970 0.519024
vn -0.650902 0.550970 0.519024
vn -0.650902 0.550970 0.519024
vn -0.361199 0.550984 -0.750053
vn -0.361199 0.550984 -0.750053
vn -0.361199 0.550984 -0.750053
vn -0.361199 0.550984 -0.750053
vn 0.811624 0.550966 -0.185286
vn 0.811624 0.550966 -0.185286
vn 0.811624 0.550966 -0.185286
vn 0.811624 0.550966 -0.185286
vn 0.000000 0.550973 0.832500
vn 0.000000 0.550973 0.832500
vn 0.000000 0.550973 0.832500
vn 0.000000 0.550973 0.832500
vn 0.336738 -0.628052 -0.699133
vn 0.336738 -0.628052 -0.699133
vn 0.336738 -0.628052 -0.699133
vn 0.336738 -0.628052 -0.699133
vn 0.000000 -0.427793 0.902009
vn 0.000000 -0.427793 0.902009
vn 0.000000 -0.427793 0.902009
vn 0.000000 -0.427793 0.902009
vn -0.879397 -0.427769 -0.200757
vn -0.879397 -0.427769 -0.200757
vn -0.879397 -0.427769 -0.200757
vn -0.879397 -0.427769 -0.200757
vn 0.391332 -0.427769 -0.812712
vn 0.391332 -0.427769 -0.812712
vn 0.391332 -0.427769 -0.812712
vn 0.391332 -0.427769 -0.812712
vn 0.705236 -0.427794 0.562372
vn 0.705236 -0.427794 0.562372
vn 0.705236 -0.427794 0.562372
vn 0.705236 -0.427794 0.562372
vn -0.705236 -0.427794 0.562372
vn -0.705236 -0.427794 0.562372
vn -0.705236 -0.427794 0.562372
vn -0.705236 -0.427794 0.562372
vn -0.391332 -0.427769 -0.812712
vn -0.391332 -0.427769 -0.812712
vn -0.391332 -0.427769 -0.812712
vn -0.391332 -0.427769 -0.812712
vn 0.000000 0.000000 1.000000
vn 0.000000 0.000000 1.000000
vn 0.000000 0.000000 1.000000
vn 0.000000 0.000000 1.000000
vn 0.606704 -0.628069 0.483806
vn 0.606704 -0.628069 0.483806
vn 0.606704 -0.628069 0.483806
vn 0.606704 -0.628069 0.483806
vn -0.606704 -0.628069 0.483806
vn -0.606704 -0.628069 0.483806
vn -0.606704 -0.628069 0.483806
vn -0.606704 -0.628069 0.483806
vn -0.336717 -0.628112 -0.699089
vn -0.336717 -0.628112 -0.699089
vn -0.336717 -0.628112 -0.699089
vn -0.336717 -0.628112 -0.699089
vn 0.756538 -0.628052 -0.172712
vn 0.756538 -0.628052 -0.172712
vn 0.756538 -0.628052 -0.172712
vn 0.756538 -0.628052 -0.172712
vn 0.000000 -0.628050 0.776003
vn 0.000000 -0.628050 0.776003
vn 0.000000 -0.628050 0.776003
vn 0.000000 -0.628050 0.776003
vn -0.756538 -0.628052 -0.172712
vn -0.756538 -0.628052 -0.172712
vn -0.756538 -0.628052 -0.172712
vn -0.756538 -0.628052 -0.172712
vn -0.183983 0.903740 -0.382141
vn -0.183983 0.903740 -0.382141
vn -0.183983 0.903740 -0.382141
vn -0.183983 0.903740 -0.382141
vn -0.973286 0.000000 -0.222132
vn -0.973286 0.000000 -0.222132
vn -0.973286 0.000000 -0.222132
vn -0.973286 0.000000 -0.222132
vn 0.433153 0.000000 -0.899448
vn 0.433153 0.000000 -0.899448
vn 0.433153 0.000000 -0.899448
vn 0.433153 0.000000 -0.899448
vn 0.780495 0.000000 0.622459
vn 0.780495 0.000000 0.622459
vn 0.780495 0.000000 0.622459
vn 0.780495 0.000000 0.622459
vn -0.780495 0.000000 0.622459
vn -0.780495 0.000000 0.622459
vn -0.780495 0.000000 0.622459
vn -0.780495 0.000000 0.622459
vn -0.433153 0.000000 -0.899448
vn -0.433153 0.000000 -0.899448
vn -0.433153 0.000000 -0.899448
vn -0.433153 0.000000 -0.899448
vn 0.973286 0.000000 -0.222132
vn 0.973286 0.000000 -0.222132
vn 0.973286 0.000000 -0.222132
vn 0.973286 0.000000 -0.222132
vn 0.000000 1.000000 0.000000
vn 0.000000 1.000000 0.000000
vn 0.000000 1.000000 0.000000
vn 0.000000 1.000000 0.000000
vn 0.000000 1.000000 0.000000
vn 0.000000 1.000000 0.000000
vn 0.000000 1.000000 0.000000
vn 0.413489 0.903745 -0.094338
vn 0.413489 0.903745 -0.094338
vn 0.413489 0.903745 -0.094338
vn 0.413489 0.903745 -0.094338
vn 0.000000 0.903762 0.424078
vn 0.000000 0.903762 0.424078
vn 0.000000 0.903762 0.424078
vn 0.000000 0.903762 0.424078
vn -0.413489 0.903745 -0.094338
vn -0.413489 0.903745 -0.094338
vn -0.413489 0.903745 -0.094338
vn -0.413489 0.903745 -0.094338
vn 0.183983 0.903740 -0.382141
vn 0.183983 0.903740 -0.382141
vn 0.183983 0.903740 -0.382141
vn 0.183983 0.903740 -0.382141
vn 0.331534 0.903758 0.264449
vn 0.331534 0.903758 0.264449
vn 0.331534 0.903758 0.264449
vn 0.331534 0.903758 0.264449
vn -0.331534 0.903758 0.264449
vn -0.331534 0.903758 0.264449
vn -0.331534 0.903758 0.264449
vn -0.331534 0.903758 0.264449
usemtl None
f 1/1/1 2/2/2 3/3/3
f 3/3/3 2/2/2 4/4/4
f 5/5/5 6/6/6 7/7/7
f 7/7/7 4/4/4 5/5/5
f 5/5/5 4/4/4 2/2/2
f 8/8/8 9/9/9 10/10/10
f 11/11/11 10/10/10 9/9/9
f 12/12/12 7/13/13 6/14/14
f 6/14/14 13/15/15 12/12/12
f 11/16/16 3/17/17 14/18/18
f 4/19/19 14/20/20 3/21/21
f 15/22/22 2/23/23 9/24/24
f 1/25/25 9/26/26 2/27/27
f 13/28/28 6/29/29 16/30/30
f 5/31/31 16/30/30 6/29/29
f 14/32/32 4/33/33 12/34/34
f 7/35/35 12/34/34 4/33/33
f 9/36/36 1/37/37 3/38/38
f 3/38/38 11/39/39 9/36/36
f 16/40/40 5/41/41 2/42/42
f 2/42/42 15/43/43 16/40/40
f 17/44/44 18/45/45 19/46/46
f 19/46/46 20/47/47 17/44/44
f 19/48/48 16/49/49 15/50/50
f 15/50/50 21/51/51 19/48/48
f 22/52/52 12/53/53 13/54/54
f 13/54/54 18/55/55 22/52/52
f 10/56/56 11/57/57 14/58/58
f 14/58/58 23/59/59 10/56/56
f 21/60/60 15/61/61 8/62/62
f 9/63/63 8/62/62 15/61/61
f 18/64/64 13/65/65 19/66/66
f 16/67/67 19/66/66 13/65/65
f 23/68/68 14/69/69 12/70/70
f 12/70/70 22/71/71 23/68/68
f 24/72/72 25/73/73 26/74/74
f 17/75/75 26/74/74 25/73/73
f 27/76/76 23/77/77 22/78/78
f 22/78/78 25/79/79 27/76/76
f 28/80/80 8/81/81 10/82/82
f 10/82/82 29/83/83 28/80/80
f 20/84/84 19/85/85 21/86/86
f 21/86/86 30/87/87 20/84/84
f 25/88/88 22/89/89 18/90/90
f 18/90/90 17/91/91 25/88/88
f 29/92/92 10/93/93 23/94/94
f 23/94/94 27/95/95 29/92/92
f 30/96/96 21/97/97 8/98/98
f 8/98/98 28/99/99 30/96/96
f 31/100/100 32/101/101 33/102/102
f 24/103/103 33/102/102 32/101/101
f 34/104/104 29/105/105 32/106/106
f 27/107/107 32/106/106 29/105/105
f 35/108/108 30/109/109 36/110/110
f 28/111/111 36/110/110 30/109/109
f 26/112/112 17/113/113 20/114/114
f 20/114/114 37/115/115 26/112/112
f 32/116/116 27/117/117 24/118/118
f 25/119/119 24/118/118 27/117/117
f 36/120/120 28/121/121 34/122/122
f 29/123/123 34/122/122 28/121/121
f 37/124/124 20/125/125 35/126/126
f 30/127/127 35/126/126 20/125/125
f 38/128/128 39/129/129 40/130/130
f 40/130/130 41/131/131 38/128/128
f 40/132/132 36/133/133 34/134/134
f 34/134/134 42/135/135 40/132/132
f 43/136/136 37/137/137 39/138/138
f 35/139/139 39/138/138 37/137/137
f 33/140/140 24/141/141 44/142/142
f 26/143/143 44/142/142 24/141/141
f 42/144/144 34/145/145 32/146/146
f 32/146/146 31/147/147 42/144/144
f 39/148/148 35/149/149 36/150/150
f 36/150/150 40/151/151 39/148/148
f 44/152/152 26/153/153 43/154/154
f 37/155/155 43/154/154 26/153/153
f 45/156/156 46/157/157 47/158/158
f 48/159/159 47/158/158 46/157/157
f 48/160/160 44/161/161 43/162/162
f 43/162/162 49/163/163 48/160/160
f 50/164/164 31/165/165 46/166/166
f 33/167/167 46/166/166 31/165/165
f 41/168/168 40/169/169 42/170/170
f 42/170/170 51/171/171 41/168/168
f 49/172/172 43/173/173 39/174/174
f 39/174/174 38/175/175 49/172/172
f 46/176/176 33/177/177 44/178/178
f 44/178/178 48/179/179 46/176/176
f 51/180/180 42/181/181 31/182/182
f 31/182/182 50/183/183 51/180/180
f 52/184/184 47/185/185 53/186/186
f 53/186/186 54/187/187 52/184/184
f 55/188/188 51/189/189 56/190/190
f 50/191/191 56/190/190 51/189/189
f 57/192/192 38/193/193 41/194/194
f 41/194/194 58/195/195 57/192/192
f 47/196/196 48/197/197 53/198/198
f 49/199/199 53/198/198 48/197/197
f 56/200/200 50/201/201 45/202/202
f 46/203/203 45/202/202 50/201/201
f 58/204/204 41/205/205 51/206/206
f 51/206/206 55/207/207 58/204/204
f 53/208/208 49/209/209 38/210/210
f 38/210/210 57/211/211 53/208/208
f 59/212/212 60/213/213 61/214/214
f 61/214/214 62/215/215 59/212/212
f 61/216/216 56/217/217 45/218/218
f 45/218/218 63/219/219 61/216/216
f 64/220/220 58/221/221 60/222/222
f 55/223/223 60/222/222 58/221/221
f 54/224/224 53/225/225 65/226/226
f 57/227/227 65/226/226 53/225/225
f 63/228/228 45/229/229 52/230/230
f 47/231/231 52/230/230 45/229/229
f 60/232/232 55/233/233 61/234/234
f 56/235/235 61/234/234 55/233/233
f 65/236/236 57/237/237 64/238/238
f 58/239/239 64/238/238 57/237/237
f 66/240/240 67/241/241 68/242/242
f 68/242/242 69/243/243 66/240/240
f 68/244/244 65/245/245 64/246/246
f 64/246/246 70/247/247 68/244/244
f 71/248/248 52/249/249 54/250/250
f 54/250/250 67/251/251 71/248/248
f 62/252/252 61/253/253 63/254/254
f 63/254/254 72/255/255 62/252/252
f 70/256/256 64/257/257 60/258/258
f 60/258/258 59/259/259 70/256/256
f 67/260/260 54/261/261 65/262/262
f 65/262/262 68/263/263 67/260/260
f 72/264/264 63/265/265 52/266/266
f 52/266/266 71/267/267 72/264/264
f 66/268/268 69/269/269 73/270/270
f 73/270/270 69/269/269 74/271/271
f 75/272/272 76/273/273 77/274/274
f 77/274/274 74/271/271 75/272/272
f 75/272/272 74/271/271 69/269/269
f 74/275/275 72/276/276 71/277/277
f 71/277/277 73/278/278 74/275/275
f 76/279/279 59/280/280 77/281/281
f 62/282/282 77/281/281 59/280/280
f 69/283/283 68/284/284 75/285/285
f 70/286/286 75/285/285 68/284/284
f 73/287/287 71/288/288 67/289/289
f 67/289/289 66/290/290 73/287/287
f 77/291/291 62/292/292 72/293/293
f 72/293/293 74/294/294 77/291/291
f 75/295/295 70/296/296 76/297/297
f 59/298/298 76/297/297 70/296/296
