mtllib rotary.mtl
g objMesh
v 1.240293 0.402736 -0.704753
v 0.756233 0.569661 -0.871123
v 1.283909 0.529217 -0.704753
v 0.799849 0.696142 -0.871123
v 1.539458 0.299571 -0.269192
v 1.583074 0.426052 -0.269192
v 1.539458 0.299571 0.269192
v 1.583074 0.426052 0.269192
v 1.240293 0.402736 0.704753
v 1.283909 0.529217 0.704753
v 0.756233 0.569661 0.871123
v 0.799849 0.696142 0.871123
v 0.272173 0.736586 0.704753
v 0.315789 0.863067 0.704753
v -0.026993 0.839751 0.269192
v 0.016623 0.966232 0.269192
v -0.026993 0.839751 -0.269192
v 0.016623 0.966232 -0.269192
v 0.315789 0.863067 -0.704753
v 0.272173 0.736586 -0.704753
vt 0.327686 0.417217
vt 0.462242 0.505548
vt 0.305961 0.448162
vt 0.441657 0.536890
vt 0.133095 0.456798
vt 0.292452 0.412291
vt 0.144574 0.491957
vt 0.305961 0.448162
vt 0.902395 0.660079
vt 0.809464 0.543129
vt 0.843737 0.522656
vt 0.936363 0.649124
vt 0.912050 0.811535
vt 0.902395 0.660079
vt 0.936363 0.649124
vt 0.950000 0.802421
vt 0.079612 0.895225
vt 0.000000 0.794236
vt 0.025346 0.763727
vt 0.098949 0.864533
vt 0.215383 0.958706
vt 0.079612 0.895225
vt 0.098949 0.864533
vt 0.226617 0.923227
vt 0.359978 0.966645
vt 0.215383 0.958706
vt 0.367646 0.928362
vt 0.226617 0.923227
vt 0.459757 0.823541
vt 0.522644 0.946605
vt 0.367646 0.928362
vt 0.451170 0.822666
vt 0.144574 0.491957
vt 0.305961 0.448162
vt 0.098949 0.864533
vt 0.025346 0.763727
vt 0.038715 0.620546
vt 0.226617 0.923227
vt 0.441657 0.536890
vt 0.479054 0.693999
vt 0.367646 0.928362
vt 0.451170 0.822666
vt 0.528049 0.563911
vt 0.459461 0.694045
vt 0.441657 0.536890
vt 0.479054 0.693999
vt 0.459461 0.694045
vt 0.459757 0.823541
vt 0.451170 0.822666
vt 0.479054 0.693999
vt 0.459461 0.694045
vt 0.528049 0.563911
vt 0.686471 1.000000
vt 0.522644 0.946605
vt 0.459757 0.823541
vt 0.665293 0.506805
vt 0.809464 0.543129
vt 0.829300 0.941472
vt 0.912050 0.811535
vt 0.902395 0.660079
vn 0.291599 -0.100527 -0.949469
vn 0.291599 -0.100527 -0.949469
vn 0.291599 -0.100527 -0.949469
vn 0.291599 -0.100527 -0.949469
vn 0.763522 -0.263260 -0.586818
vn 0.763522 -0.263260 -0.586818
vn 0.763522 -0.263260 -0.586818
vn 0.763522 -0.263260 -0.586818
vn 0.943778 -0.325441 0.000000
vn 0.943778 -0.325441 0.000000
vn 0.943778 -0.325441 0.000000
vn 0.943778 -0.325441 0.000000
vn 0.763522 -0.263260 0.586818
vn 0.763522 -0.263260 0.586818
vn 0.763522 -0.263260 0.586818
vn 0.763522 -0.263260 0.586818
vn 0.291599 -0.100527 0.949469
vn 0.291599 -0.100527 0.949469
vn 0.291599 -0.100527 0.949469
vn 0.291599 -0.100527 0.949469
vn -0.291599 0.100527 0.949469
vn -0.291599 0.100527 0.949469
vn -0.291599 0.100527 0.949469
vn -0.291599 0.100527 0.949469
vn -0.763522 0.263260 0.586818
vn -0.763522 0.263260 0.586818
vn -0.763522 0.263260 0.586818
vn -0.763522 0.263260 0.586818
vn -0.943778 0.325441 0.000000
vn -0.943778 0.325441 0.000000
vn -0.943778 0.325441 0.000000
vn -0.943778 0.325441 0.000000
vn 0.325441 0.943778 0.000000
vn 0.325441 0.943778 0.000000
vn 0.325441 0.943778 0.000000
vn 0.325441 0.943778 0.000000
vn 0.325441 0.943778 0.000000
vn 0.325441 0.943778 0.000000
vn 0.325441 0.943778 0.000000
vn 0.325441 0.943778 0.000000
vn 0.325441 0.943778 0.000000
vn 0.325441 0.943778 0.000000
vn -0.291599 0.100527 -0.949469
vn -0.291599 0.100527 -0.949469
vn -0.291599 0.100527 -0.949469
vn -0.291599 0.100527 -0.949469
vn -0.763522 0.263260 -0.586818
vn -0.763522 0.263260 -0.586818
vn -0.763522 0.263260 -0.586818
vn -0.763522 0.263260 -0.586818
vn -0.325441 -0.943778 0.000000
vn -0.325441 -0.943778 0.000000
vn -0.325441 -0.943778 0.000000
vn -0.325441 -0.943778 0.000000
vn -0.325441 -0.943778 0.000000
vn -0.325441 -0.943778 0.000000
vn -0.325441 -0.943778 0.000000
vn -0.325441 -0.943778 0.000000
vn -0.325441 -0.943778 0.000000
vn -0.325441 -0.943778 0.000000
usemtl None
f 1/1/1 2/2/2 3/3/3
f 4/4/4 3/3/3 2/2/2
f 5/5/5 1/6/6 6/7/7
f 3/8/8 6/7/7 1/6/6
f 7/9/9 5/10/10 6/11/11
f 6/11/11 8/12/12 7/9/9
f 9/13/13 7/14/14 8/15/15
f 8/15/15 10/16/16 9/13/13
f 11/17/17 9/18/18 10/19/19
f 10/19/19 12/20/20 11/17/17
f 13/21/21 11/22/22 12/23/23
f 12/23/23 14/24/24 13/21/21
f 15/25/25 13/26/26 16/27/27
f 14/28/28 16/27/27 13/26/26
f 17/29/29 15/30/30 16/31/31
f 16/31/31 18/32/32 17/29/29
f 6/33/33 3/34/34 12/35/35
f 6/33/33 10/36/36 8/37/37
f 10/36/36 6/33/33 12/35/35
f 3/34/34 14/38/38 12/35/35
f 4/39/39 19/40/40 14/38/38
f 19/40/40 16/41/41 14/38/38
f 16/41/41 19/40/40 18/42/42
f 4/39/39 14/38/38 3/34/34
f 2/43/43 20/44/44 4/45/45
f 19/46/46 4/45/45 20/44/44
f 20/47/47 17/48/48 18/49/49
f 18/49/49 19/50/50 20/47/47
f 20/51/51 2/52/52 13/53/53
f 20/51/51 15/54/54 17/55/55
f 15/54/54 20/51/51 13/53/53
f 2/52/52 1/56/56 13/53/53
f 1/56/56 5/57/57 11/58/58
f 5/57/57 9/59/59 11/58/58
f 9/59/59 5/57/57 7/60/60
f 1/56/56 11/58/58 13/53/53
