mtllib shard1.mtl
g objMesh
v 0.000000 0.008468 -0.080199
v 0.207133 0.025497 0.180966
v -0.079116 0.000499 0.257357
v 0.352398 0.069462 0.239665
v 0.414267 0.061012 0.106437
v -0.256031 0.070251 -0.036672
v -0.079116 0.115868 -0.609636
v 0.207133 0.021803 -0.318006
v 0.463167 0.131078 0.233152
v -0.134602 0.006497 0.417748
v 0.128018 0.024655 0.336940
v 0.000000 0.040916 0.488156
v -0.435587 0.117573 0.096793
v -0.335150 0.045747 0.277284
v -0.463167 0.118584 0.268488
v -0.134602 0.250575 -0.662854
v -0.335150 0.209126 -0.395624
v -0.286253 0.311704 -0.518971
v 0.352398 0.105339 -0.323487
v 0.128018 0.170876 -0.632217
v 0.286253 0.214658 -0.483189
v 0.286253 0.086131 0.360275
v -0.286253 0.058046 0.439708
v -0.463167 0.228541 -0.088699
v 0.000000 0.302705 -0.640888
v 0.463167 0.142092 -0.064258
v 0.134602 0.132444 0.397044
v 0.335150 0.187059 0.272028
v 0.079116 0.208127 0.309800
v -0.352398 0.153187 0.338340
v -0.128018 0.128361 0.438045
v -0.207133 0.193700 0.266740
v -0.352398 0.296787 -0.303047
v -0.414267 0.218090 0.154327
v -0.207133 0.246704 -0.247799
v 0.134602 0.261830 -0.578343
v -0.128018 0.311722 -0.592464
v 0.079116 0.191237 -0.498079
v 0.435587 0.169836 0.144869
v 0.335150 0.176016 -0.274788
v 0.256031 0.161384 0.115247
v 0.000000 0.173932 0.061649
vt 0.697972 0.735364
vt 0.816660 0.833288
vt 0.681521 0.891974
vt 0.891172 0.843889
vt 0.816660 0.833288
vt 0.907070 0.772282
vt 0.697972 0.735364
vt 0.681521 0.891974
vt 0.579907 0.766261
vt 0.697972 0.735364
vt 0.579907 0.766261
vt 0.622189 0.500511
vt 0.697972 0.735364
vt 0.622189 0.500511
vt 0.768940 0.609986
vt 0.891172 0.843889
vt 0.907070 0.772282
vt 0.949282 0.830242
vt 0.660066 0.967583
vt 0.786501 0.913237
vt 0.731688 0.991616
vt 0.501493 0.827344
vt 0.555677 0.909128
vt 0.472648 0.901474
vt 0.565519 0.454770
vt 0.509817 0.596533
vt 0.479196 0.522779
vt 0.833173 0.581414
vt 0.706214 0.454294
vt 0.807191 0.489047
vt 0.891172 0.843889
vt 0.950000 0.834553
vt 0.871153 0.907612
vt 0.272912 1.000000
vt 0.206829 0.967667
vt 0.344645 0.974121
vt 0.501493 0.827344
vt 0.472648 0.901474
vt 0.470450 0.734724
vt 0.565519 0.454770
vt 0.479196 0.522779
vt 0.550372 0.390338
vt 0.833173 0.581414
vt 0.807191 0.489047
vt 0.921278 0.672611
vt 0.157072 0.893357
vt 0.083294 0.803381
vt 0.194469 0.848624
vt 0.390357 0.914994
vt 0.274017 0.934806
vt 0.327641 0.862054
vt 0.460636 0.623409
vt 0.431401 0.833929
vt 0.388733 0.631720
vt 0.279815 0.437815
vt 0.408497 0.465757
vt 0.289854 0.491391
vt 0.052855 0.730264
vt 0.150414 0.554638
vt 0.135782 0.739657
vt 0.135782 0.739657
vt 0.289854 0.491391
vt 0.256926 0.747329
vt 0.135782 0.739657
vt 0.150414 0.554638
vt 0.289854 0.491391
vt 0.150414 0.554638
vt 0.279815 0.437815
vt 0.289854 0.491391
vt 0.289854 0.491391
vt 0.388733 0.631720
vt 0.256926 0.747329
vt 0.289854 0.491391
vt 0.408497 0.465757
vt 0.388733 0.631720
vt 0.408497 0.465757
vt 0.460636 0.623409
vt 0.388733 0.631720
vt 0.388733 0.631720
vt 0.327641 0.862054
vt 0.256926 0.747329
vt 0.388733 0.631720
vt 0.431401 0.833929
vt 0.327641 0.862054
vt 0.431401 0.833929
vt 0.390357 0.914994
vt 0.327641 0.862054
vt 0.327641 0.862054
vt 0.194469 0.848624
vt 0.256926 0.747329
vt 0.327641 0.862054
vt 0.274017 0.934806
vt 0.194469 0.848624
vt 0.274017 0.934806
vt 0.157072 0.893357
vt 0.194469 0.848624
vt 0.194469 0.848624
vt 0.135782 0.739657
vt 0.256926 0.747329
vt 0.194469 0.848624
vt 0.083294 0.803381
vt 0.135782 0.739657
vt 0.083294 0.803381
vt 0.052855 0.730264
vt 0.135782 0.739657
vt 0.065177 0.632086
vt 0.150414 0.554638
vt 0.052855 0.730264
vt 0.065177 0.632086
vt 0.200378 0.464716
vt 0.150414 0.554638
vt 0.200378 0.464716
vt 0.279815 0.437815
vt 0.150414 0.554638
vt 0.353010 0.426896
vt 0.408497 0.465757
vt 0.279815 0.437815
vt 0.550372 0.390338
vt 0.479196 0.522779
vt 0.515847 0.447284
vt 0.479196 0.522779
vt 0.460636 0.623409
vt 0.408497 0.465757
vt 0.470450 0.734724
vt 0.431401 0.833929
vt 0.460636 0.623409
vt 0.470450 0.734724
vt 0.472648 0.901474
vt 0.431401 0.833929
vt 0.472648 0.901474
vt 0.390357 0.914994
vt 0.431401 0.833929
vt 0.344645 0.974121
vt 0.274017 0.934806
vt 0.390357 0.914994
vt 0.344645 0.974121
vt 0.206829 0.967667
vt 0.274017 0.934806
vt 0.206829 0.967667
vt 0.157072 0.893357
vt 0.274017 0.934806
vt 0.084506 0.871094
vt 0.083294 0.803381
vt 0.157072 0.893357
vt 0.084506 0.871094
vt 0.017729 0.791168
vt 0.083294 0.803381
vt 0.024572 0.767687
vt 0.052855 0.730264
vt 0.083294 0.803381
vt 0.807191 0.489047
vt 0.702651 0.370736
vt 0.753780 0.421528
vt 0.807191 0.489047
vt 0.706214 0.454294
vt 0.702651 0.370736
vt 0.706214 0.454294
vt 0.565519 0.454770
vt 0.621948 0.413552
vt 0.479196 0.522779
vt 0.470450 0.734724
vt 0.460636 0.623409
vt 0.479196 0.522779
vt 0.509817 0.596533
vt 0.470450 0.734724
vt 0.509817 0.596533
vt 0.501493 0.827344
vt 0.470450 0.734724
vt 0.472648 0.901474
vt 0.578552 0.982578
vt 0.498781 0.961445
vt 0.472648 0.901474
vt 0.555677 0.909128
vt 0.578552 0.982578
vt 0.555677 0.909128
vt 0.660066 0.967583
vt 0.578552 0.982578
vt 0.731688 0.991616
vt 0.865667 0.921281
vt 0.819812 0.983438
vt 0.731688 0.991616
vt 0.786501 0.913237
vt 0.865667 0.921281
vt 0.786501 0.913237
vt 0.891172 0.843889
vt 0.871153 0.907612
vt 0.019588 0.762233
vt 0.065177 0.632086
vt 0.052855 0.730264
vt 0.019588 0.762233
vt 0.000000 0.694096
vt 0.065177 0.632086
vt 0.907070 0.772282
vt 0.833173 0.581414
vt 0.921278 0.672611
vt 0.768940 0.609986
vt 0.706214 0.454294
vt 0.833173 0.581414
vt 0.768940 0.609986
vt 0.622189 0.500511
vt 0.706214 0.454294
vt 0.622189 0.500511
vt 0.565519 0.454770
vt 0.706214 0.454294
vt 0.622189 0.500511
vt 0.509817 0.596533
vt 0.565519 0.454770
vt 0.622189 0.500511
vt 0.579907 0.766261
vt 0.509817 0.596533
vt 0.579907 0.766261
vt 0.501493 0.827344
vt 0.509817 0.596533
vt 0.579907 0.766261
vt 0.555677 0.909128
vt 0.501493 0.827344
vt 0.579907 0.766261
vt 0.681521 0.891974
vt 0.555677 0.909128
vt 0.681521 0.891974
vt 0.660066 0.967583
vt 0.555677 0.909128
vt 0.907070 0.772282
vt 0.768940 0.609986
vt 0.833173 0.581414
vt 0.907070 0.772282
vt 0.816660 0.833288
vt 0.768940 0.609986
vt 0.816660 0.833288
vt 0.697972 0.735364
vt 0.768940 0.609986
vt 0.681521 0.891974
vt 0.786501 0.913237
vt 0.660066 0.967583
vt 0.681521 0.891974
vt 0.816660 0.833288
vt 0.786501 0.913237
vt 0.816660 0.833288
vt 0.891172 0.843889
vt 0.786501 0.913237
vn 0.085953 -0.994600 -0.003294
vn 0.085953 -0.994600 -0.003294
vn 0.085953 -0.994600 -0.003294
vn 0.223626 -0.958898 0.164725
vn 0.223626 -0.958898 0.164725
vn 0.223626 -0.958898 0.164725
vn -0.246292 -0.964102 -0.080467
vn -0.246292 -0.964102 -0.080467
vn -0.246292 -0.964102 -0.080467
vn -0.256161 -0.952368 -0.154934
vn -0.256161 -0.952368 -0.154934
vn -0.256161 -0.952368 -0.154934
vn -0.139869 -0.972596 -0.176409
vn -0.139869 -0.972596 -0.176409
vn -0.139869 -0.972596 -0.176409
vn 0.478784 -0.831683 0.275131
vn 0.478784 -0.831683 0.275131
vn 0.478784 -0.831683 0.275131
vn 0.133478 -0.965294 0.216839
vn 0.133478 -0.965294 0.216839
vn 0.133478 -0.965294 0.216839
vn -0.488556 -0.867501 -0.073373
vn -0.488556 -0.867501 -0.073373
vn -0.488556 -0.867501 -0.073373
vn -0.712083 -0.372663 -0.592188
vn -0.712083 -0.372663 -0.592188
vn -0.712083 -0.372663 -0.592188
vn 0.674545 -0.446535 -0.584998
vn 0.674545 -0.446535 -0.584998
vn 0.674545 -0.446535 -0.584998
vn 0.467638 -0.801893 0.367301
vn 0.467638 -0.801893 0.367301
vn 0.467638 -0.801893 0.367301
vn -0.155133 -0.736031 0.656369
vn -0.155133 -0.736031 0.656369
vn -0.155133 -0.736031 0.656369
vn -0.880009 -0.450537 -0.138665
vn -0.880009 -0.450537 -0.138665
vn -0.880009 -0.450537 -0.138665
vn -0.215526 0.794523 -0.564721
vn -0.215526 0.794523 -0.564721
vn -0.215526 0.794523 -0.564721
vn 0.918674 -0.014576 -0.390452
vn 0.918674 -0.014576 -0.390452
vn 0.918674 -0.014576 -0.390452
vn 0.152038 0.791139 0.589586
vn 0.152038 0.791139 0.589586
vn 0.152038 0.791139 0.589586
vn -0.068083 0.919719 0.382243
vn -0.068083 0.919719 0.382243
vn -0.068083 0.919719 0.382243
vn 0.251281 0.945921 0.196772
vn 0.251281 0.945921 0.196772
vn 0.251281 0.945921 0.196772
vn 0.097834 0.711492 0.693423
vn 0.097834 0.711492 0.693423
vn 0.097834 0.711492 0.693423
vn -0.051314 0.996628 0.026955
vn -0.051314 0.996628 0.026955
vn -0.051314 0.996628 0.026955
vn 0.041229 0.996788 0.036637
vn 0.041229 0.996788 0.036637
vn 0.041229 0.996788 0.036637
vn 0.022661 0.997170 0.042027
vn 0.022661 0.997170 0.042027
vn 0.022661 0.997170 0.042027
vn -0.356914 0.808474 0.464338
vn -0.356914 0.808474 0.464338
vn -0.356914 0.808474 0.464338
vn 0.243385 0.966053 0.064290
vn 0.243385 0.966053 0.064290
vn 0.243385 0.966053 0.064290
vn 0.395018 0.880180 0.256657
vn 0.395018 0.880180 0.256657
vn 0.395018 0.880180 0.256657
vn 0.236490 0.941766 0.231898
vn 0.236490 0.941766 0.231898
vn 0.236490 0.941766 0.231898
vn 0.192374 0.974450 0.100330
vn 0.192374 0.974450 0.100330
vn 0.192374 0.974450 0.100330
vn 0.061294 0.991182 0.102123
vn 0.061294 0.991182 0.102123
vn 0.061294 0.991182 0.102123
vn -0.083755 0.928994 0.355785
vn -0.083755 0.928994 0.355785
vn -0.083755 0.928994 0.355785
vn -0.030846 0.989775 -0.126579
vn -0.030846 0.989775 -0.126579
vn -0.030846 0.989775 -0.126579
vn -0.105422 0.910359 0.395930
vn -0.105422 0.910359 0.395930
vn -0.105422 0.910359 0.395930
vn 0.084751 0.777438 0.620513
vn 0.084751 0.777438 0.620513
vn 0.084751 0.777438 0.620513
vn 0.081864 0.981767 -0.161431
vn 0.081864 0.981767 -0.161431
vn 0.081864 0.981767 -0.161431
vn 0.053013 0.979190 -0.187092
vn 0.053013 0.979190 -0.187092
vn 0.053013 0.979190 -0.187092
vn -0.021564 0.986645 -0.150647
vn -0.021564 0.986645 -0.150647
vn -0.021564 0.986645 -0.150647
vn 0.367394 0.925274 -0.074277
vn 0.367394 0.925274 -0.074277
vn 0.367394 0.925274 -0.074277
vn -0.063490 0.976810 0.196061
vn -0.063490 0.976810 0.196061
vn -0.063490 0.976810 0.196061
vn 0.220417 0.965321 0.127279
vn 0.220417 0.965321 0.127279
vn 0.220417 0.965321 0.127279
vn 0.166125 0.948730 0.262566
vn 0.166125 0.948730 0.262566
vn 0.166125 0.948730 0.262566
vn -0.281636 -0.741178 -0.606600
vn -0.281636 -0.741178 -0.606600
vn -0.281636 -0.741178 -0.606600
vn 0.037037 0.994407 0.080064
vn 0.037037 0.994407 0.080064
vn 0.037037 0.994407 0.080064
vn -0.355282 0.926290 0.111307
vn -0.355282 0.926290 0.111307
vn -0.355282 0.926290 0.111307
vn -0.781491 0.593705 0.182794
vn -0.781491 0.593705 0.182794
vn -0.781491 0.593705 0.182794
vn -0.505279 0.744491 0.432497
vn -0.505279 0.744491 0.432497
vn -0.505279 0.744491 0.432497
vn -0.263459 0.610378 0.744752
vn -0.263459 0.610378 0.744752
vn -0.263459 0.610378 0.744752
vn -0.137769 0.332044 0.931340
vn -0.137769 0.332044 0.931340
vn -0.137769 0.332044 0.931340
vn 0.112403 0.611926 0.780730
vn 0.112403 0.611926 0.780730
vn 0.112403 0.611926 0.780730
vn 0.346800 0.515308 0.781547
vn 0.346800 0.515308 0.781547
vn 0.346800 0.515308 0.781547
vn 0.435954 0.462109 0.770082
vn 0.435954 0.462109 0.770082
vn 0.435954 0.462109 0.770082
vn 0.448155 0.859870 0.237505
vn 0.448155 0.859870 0.237505
vn 0.448155 0.859870 0.237505
vn -0.271240 -0.959772 -0.043526
vn -0.271240 -0.959772 -0.043526
vn -0.271240 -0.959772 -0.043526
vn 0.531485 0.469891 -0.702391
vn 0.531485 0.469891 -0.702391
vn 0.531485 0.469891 -0.702391
vn 0.135276 0.066490 -0.986867
vn 0.135276 0.066490 -0.986867
vn 0.135276 0.066490 -0.986867
vn -0.749553 0.632647 -0.185891
vn -0.749553 0.632647 -0.185891
vn -0.749553 0.632647 -0.185891
vn -0.921652 -0.021264 -0.383057
vn -0.921652 -0.021264 -0.383057
vn -0.921652 -0.021264 -0.383057
vn -0.731352 -0.625532 -0.265447
vn -0.731352 -0.625532 -0.265447
vn -0.731352 -0.625532 -0.265447
vn -0.574535 0.373872 0.725781
vn -0.574535 0.373872 0.725781
vn -0.574535 0.373872 0.725781
vn -0.493387 -0.841514 0.212250
vn -0.493387 -0.841514 0.212250
vn -0.493387 -0.841514 0.212250
vn -0.296191 -0.939784 0.160324
vn -0.296191 -0.939784 0.160324
vn -0.296191 -0.939784 0.160324
vn 0.325634 0.380738 0.863498
vn 0.325634 0.380738 0.863498
vn 0.325634 0.380738 0.863498
vn 0.294595 -0.889275 0.345009
vn 0.294595 -0.889275 0.345009
vn 0.294595 -0.889275 0.345009
vn 0.307576 -0.903262 0.293500
vn 0.307576 -0.903262 0.293500
vn 0.307576 -0.903262 0.293500
vn 0.788048 0.612449 0.022661
vn 0.788048 0.612449 0.022661
vn 0.788048 0.612449 0.022661
vn 0.835281 -0.546372 -0.020266
vn 0.835281 -0.546372 -0.020266
vn 0.835281 -0.546372 -0.020266
vn 0.643227 -0.744458 -0.169318
vn 0.643227 -0.744458 -0.169318
vn 0.643227 -0.744458 -0.169318
vn 0.424993 -0.770018 -0.472314
vn 0.424993 -0.770018 -0.472314
vn 0.424993 -0.770018 -0.472314
vn 0.180794 -0.868631 -0.457626
vn 0.180794 -0.868631 -0.457626
vn 0.180794 -0.868631 -0.457626
vn -0.003394 -0.368058 -0.927981
vn -0.003394 -0.368058 -0.927981
vn -0.003394 -0.368058 -0.927981
vn -0.655117 -0.494383 -0.568361
vn -0.655117 -0.494383 -0.568361
vn -0.655117 -0.494383 -0.568361
vn -0.489171 -0.842472 -0.218130
vn -0.489171 -0.842472 -0.218130
vn -0.489171 -0.842472 -0.218130
vn -0.413993 -0.874207 -0.246978
vn -0.413993 -0.874207 -0.246978
vn -0.413993 -0.874207 -0.246978
vn -0.362389 -0.915855 -0.162825
vn -0.362389 -0.915855 -0.162825
vn -0.362389 -0.915855 -0.162825
vn -0.181596 -0.974072 -0.121796
vn -0.181596 -0.974072 -0.121796
vn -0.181596 -0.974072 -0.121796
vn -0.175509 -0.982471 -0.023960
vn -0.175509 -0.982471 -0.023960
vn -0.175509 -0.982471 -0.023960
vn 0.486862 -0.857026 -0.158427
vn 0.486862 -0.857026 -0.158427
vn 0.486862 -0.857026 -0.158427
vn 0.171203 -0.983496 0.007287
vn 0.171203 -0.983496 0.007287
vn 0.171203 -0.983496 0.007287
vn 0.072579 -0.995643 0.007388
vn 0.072579 -0.995643 0.007388
vn 0.072579 -0.995643 0.007388
vn 0.089551 -0.991954 0.068087
vn 0.089551 -0.991954 0.068087
vn 0.089551 -0.991954 0.068087
vn 0.098634 -0.992425 0.044625
vn 0.098634 -0.992425 0.044625
vn 0.098634 -0.992425 0.044625
vn 0.243103 -0.961030 0.118107
vn 0.243103 -0.961030 0.118107
vn 0.243103 -0.961030 0.118107
usemtl None
f 1/1/1 2/2/2 3/3/3
f 4/4/4 2/5/5 5/6/6
f 1/7/7 3/8/8 6/9/9
f 1/10/10 6/11/11 7/12/12
f 1/13/13 7/14/14 8/15/15
f 4/16/16 5/17/17 9/18/18
f 10/19/19 11/20/20 12/21/21
f 13/22/22 14/23/23 15/24/24
f 16/25/25 17/26/26 18/27/27
f 19/28/28 20/29/29 21/30/30
f 4/31/31 9/32/32 22/33/33
f 10/34/34 12/35/35 23/36/36
f 13/37/37 15/38/38 24/39/39
f 16/40/40 18/41/41 25/42/42
f 19/43/43 21/44/44 26/45/45
f 27/46/46 28/47/47 29/48/48
f 30/49/49 31/50/50 32/51/51
f 33/52/52 34/53/53 35/54/54
f 36/55/55 37/56/56 38/57/57
f 39/58/58 40/59/59 41/60/60
f 41/61/61 38/62/62 42/63/63
f 41/64/64 40/65/65 38/66/66
f 40/67/67 36/68/68 38/69/69
f 38/70/70 35/71/71 42/72/72
f 38/73/73 37/74/74 35/75/75
f 37/76/76 33/77/77 35/78/78
f 35/79/79 32/80/80 42/81/81
f 35/82/82 34/83/83 32/84/84
f 34/85/85 30/86/86 32/87/87
f 32/88/88 29/89/89 42/90/90
f 32/91/91 31/92/92 29/93/93
f 31/94/94 27/95/95 29/96/96
f 29/97/97 41/98/98 42/99/99
f 29/100/100 28/101/101 41/102/102
f 28/103/103 39/104/104 41/105/105
f 26/106/106 40/107/107 39/108/108
f 26/109/109 21/110/110 40/111/111
f 21/112/112 36/113/113 40/114/114
f 25/115/115 37/116/116 36/117/117
f 25/118/118 18/119/119 37/120/120
f 18/121/121 33/122/122 37/123/123
f 24/124/124 34/125/125 33/126/126
f 24/127/127 15/128/128 34/129/129
f 15/130/130 30/131/131 34/132/132
f 23/133/133 31/134/134 30/135/135
f 23/136/136 12/137/137 31/138/138
f 12/139/139 27/140/140 31/141/141
f 22/142/142 28/143/143 27/144/144
f 22/145/145 9/146/146 28/147/147
f 9/148/148 39/149/149 28/150/150
f 21/151/151 25/152/152 36/153/153
f 21/154/154 20/155/155 25/156/156
f 20/157/157 16/158/158 25/159/159
f 18/160/160 24/161/161 33/162/162
f 18/163/163 17/164/164 24/165/165
f 17/166/166 13/167/167 24/168/168
f 15/169/169 23/170/170 30/171/171
f 15/172/172 14/173/173 23/174/174
f 14/175/175 10/176/176 23/177/177
f 12/178/178 22/179/179 27/180/180
f 12/181/181 11/182/182 22/183/183
f 11/184/184 4/185/185 22/186/186
f 9/187/187 26/188/188 39/189/189
f 9/190/190 5/191/191 26/192/192
f 5/193/193 19/194/194 26/195/195
f 8/196/196 20/197/197 19/198/198
f 8/199/199 7/200/200 20/201/201
f 7/202/202 16/203/203 20/204/204
f 7/205/205 17/206/206 16/207/207
f 7/208/208 6/209/209 17/210/210
f 6/211/211 13/212/212 17/213/213
f 6/214/214 14/215/215 13/216/216
f 6/217/217 3/218/218 14/219/219
f 3/220/220 10/221/221 14/222/222
f 5/223/223 8/224/224 19/225/225
f 5/226/226 2/227/227 8/228/228
f 2/229/229 1/230/230 8/231/231
f 3/232/232 11/233/233 10/234/234
f 3/235/235 2/236/236 11/237/237
f 2/238/238 4/239/239 11/240/240
